<mxfile host="Electron" modified="2020-10-29T15:02:03.468Z" agent="5.0 (Windows NT 10.0; Win64; x64) AppleWebKit/537.36 (KHTML, like Gecko) draw.io/13.7.3 Chrome/85.0.4183.98 Electron/10.1.2 Safari/537.36" etag="952UU5L7XanWEL624zF2" compressed="false" version="13.7.3" type="device">
  <diagram id="Nq4X2bp1SKzdJSvTS_t-" name="Page-1">
    <mxGraphModel dx="39.3" dy="138.53" grid="0" gridSize="10" guides="0" tooltips="0" connect="0" arrows="0" fold="1" page="1" pageScale="1" pageWidth="827" pageHeight="1169" math="0" shadow="0">
      <root>
        <mxCell id="0" />
        <mxCell id="1" style="locked=1;" parent="0" />
        <mxCell id="5rvtZwvqExJEslM-TS6T-1" value="" style="shape=image;verticalLabelPosition=bottom;labelBackgroundColor=#ffffff;verticalAlign=top;aspect=fixed;imageAspect=0;image=data:image/png,iVBORw0KGgoAAAANSUhEUgAAAgMAAAGUCAYAAACoUCExAAAgAElEQVR4AexdBZxU5Rd9S7cgCAoiIoiigoIKotgIgoKIiqLiXxQDTFSwKFFE6e5O6e6O7e7u7p3O5fx/55sdXGFjttiZ3ff8jbNMvHnvfnW+e889V4J8yBaQLSBbQLaAbAHZArXaAlKtvnv55mULyBaQLSBbQLaAbAHIYEDuBLIFaoEF8q9ehUJnQmy2Du5xChwKzMI2rzRs9UzDLt8MnA3PQUiqGmlKA/SmfFzF1VpgFfkWZQvIFrBaQAYDVkvIz7IFaqAFtMZ8RGdpcTQ4E7NORGL8Jje8Oe84Xvh1K/pNWIUnvlmJ/hPXYcjve/Hhygv4aW8ANrolwTNBgSyNAVevyqCgBnYL+ZZkC9xgARkM3GAS+QXZAo5vAXP+VSTl6XE0KB2T9/rj5d/3ocO7s9D4+fGo0/stSPe9CKlzP0h394XUpT+kh15BvX7/w63DfsajE9bh4zUXseZyLPyTldAazZAxgeP3CfkOZAuUZAEZDJRkHfk92QIOaAGj+SrC0jVYci4KL808jBavT4fUYxik1p0hNWwKyakOJEm68VG3PqRmt0Hq/CQaPDce9325Dl9t9cKFiGwotEaY8/MBOXzggD1CvmTZAqVbQAYDpdtI/oRsAYexAD0C0ZlafPlPIDp+tg5O9AK0aHfjwl8UGCj8WoMmkDo9jqbDpuLJWedwPDgdORoD8mVA4DB9Qb5Q2QJlsYAMBspiLfmzsgXs2AIEAqkKPd7bHIzb3p0Np7v7QKrfCJKTU9nBAIFBnbqQWrZHgyf/h27TzuFwYDpyr/EIZC6BHXcF+dJkC5TZAjIYKLPJ5C/IFrA/CzBbICFXh3G7wtDuvTmo2+lRSA0YEignELB6CerUg1OLdgIQPPHHSRwLTodGbywgFsqAwP56gnxFsgXKZwEZDJTPbvK3ZAvYlQWYErjOOR53fLENdTv3hdSwGSSpgkDgGiCoK0INjQdPwkdrr8AtNgdmM0mFTECUAYFddQT5YmQLlNMCMhgop+Hkr8kWsBcLGMz5uBiZjRf+Pg2JHIGGzSsPCFgBAZ/vfBidPl6MOSfDkJKnRv5VswwG7KUTyNchW6CCFpDBQAUNKH9dtkB1WoA786Q8HeaeCEXjt+ZYsgGKyxYovLCX5++6DeDU530Mn3sUZ8LTYco3Iv8qMwzkQ7aAbAFHt4AMBhy9BeXrr9UWuHo1H+cjszFszjFIvUeWiSjYrFkztG3bFi1btrT9e3c8iM7/m41ZpyKg1mtgzpe9A7W6A8o3X2MsIIOBGtOU8o3UNgvQK2A0m7HKOQG3f7gM0q1327yo161bF3369MGnn36KV155BXXqFKM9cL0HoV5D1O3/Kd5b54rY7BwYzQbZO1DbOp58vzXSAjIYqJHNKt9UbbAACXzZah2mHAqB9PKvZcocaN26NaZNm4a4uDgcPHgQt9xyC5xszTx4cAgG/LYLp8OTYDBpLd4BWaKwNnQ5+R5rsAVkMFCDG1e+tZprAQIBCgAFpuThk7UXID35sc1eAaoPPvPMM5gxY4YAAvv27cPAgQNRr149285xd1/0+mIxVrtEQW9UwWRmqqHMHai5vU2+s9pgARkM1IZWlu+xxlnAAgbMOB+RiRGzD0B6eLhtC7kkiZDA119/jd9//x3jxo3DnDlzxKNJkya2naPd/ej67jTMOBkCnTEPRpNVmbDGmVm+IdkCtcYCMhioNU1de2/Ukg1v+X9NsQLBgDnfhKPBaRj82z+Qug+ybSGXJEEanDdvHn788Uc89NBD+PDDD3HhwgV07NjRNu9A67vRccQk/HgoEFpDNowmHfJrGJGQvUU+ZAvUJgvIYKA2tXYtuVeW7c1UG4VGv3eiEpeic3E+Kkc8+yapEJutQ5bGCJ3JcV3bBAN0zx8JSsXL03eUCQy8+OKL2LRpE6ZOnYrHHnsMY8aMQXBwsCASNm9OjYIiihgVfu1WgoGJmHQwAGp9JowmZhWYcBWOZ09T/lUo9WYk5+kRkqaBS6wCF6NyxcMtToHgVDWSFXoodCZQ5VGGCLVkEqmFtymDgVrY6DXxlqnLn6c1iWp9x4MzsPpiNKbu9cHY1Rfw+pyjGPr3YYyYexSfrr2E3/b7Ye3lGJwOzURkhgZKncnhSvQyv99kNuB0WCqGz9oDqedrpS/ikgRmEUyePBl79uzBwoUL8cUXX+C3336Dq6sr5s+fjzvvvLP087TthntGTcbUYwFQ6TNgMKlhdjDNAb0pHykKAzzi87DLKwnzjofgu61ueGfhSQyffUQ83l1yChO2uGLeiVDs8EiCV4JCAAOCSJkvWRNnkdp9TzIYqN3t7/B3z0lZZ8xHXLYW+31TMX6rNx75eR9avrcQdQdOhNRnNKSHXoH0wMuW5yc+RN1BP+HWD5ag79SD+O4fPxwNTBMFfgwONMkLMJBvgHdCBj5ceRpSvzGlLuLMFmjVqhV2796NdevWYdKkSfjmm2/E89KlS+Hh4YFevXqVHiro9Dh6jpuHpZeCodKnQ29SOYwAUf5VQKEzwys+D4vPRmH44gvoNH4TGr02A9KzX0B6eASkBwZDenAwpF5vwumZ8Wg4/A90HLcBry68gMXnosR3szVGmEQFR4cfQvINyBYQFpDBgNwRHNYCdJVrDGa4xuZh3I4g3Dp+F+o8/zWkux6D1ORWSHWKYcfXrW9R6rvnKdQbOBHtJ+zHhH3hCEpVQWdyDBEdKxhIzsvFT3t9IA38qVQwwGyB5557DkeOHMHrr78uvAQMCdSvXx/du3dHREQERo4cKQBDiaGCBwbh2ambcSgwzKHAAN38Sp0ZWzxS0X/OZTQbtVAs+FKbLpDqF0OeZLpl/caQWt8N6ZERaPj2Qjw75xLWuyUjTakXoQOHHUDyhcsWKGQBGQwUMob8p+NYgNHbHI0RG92T8cysM2g+bDLq3NkTUpOWkOo1hCQkeYsr1ONkKc9brxGkZm1Q9+7H0eKNmXhh3iUcCEhDrtZo95r7VjCg1iux6EIEbn1/IaRbOpQICLjojxo1ChMnTkSPHj2ufZYeA+oMMEzwwQcfoEOHEs5Tpz7q9BuDN1ecRUByFFS6DOiNarv3DBjNVxGRocH4XWHo/PV2NH58JJza3GOp7Fi3XskaDQQEBJYNmsCpVUc0euI9dP1qIybsCUFgikqkVcpsAseZO+QrLdoCMhgo2i7yq3Ztgaugm3bZpQQ8OXk3mvb/EFLrzhYQUNZKfQQN3BW26YJmz3+G52cewRaPZGRrDAVleu3TEBbOgBE6owpHg+Lx0sy9pfIGuOjfcccdImugadOm18AAvQDkEnTp0kW837Bhw/+89x8vQdtu6DDqd/x62BNpylio9JnQGzUwmUmws08CodGcD59EJcZt80e79xegXtf+Fs8QPUSFiZG2/F2nrvhu/fufR6fRf+OTrf4ITFHIwkv2OUzkqyqDBWQwUAZjyR+tfgtwB2YwmbHWNRlPT9mNJk++D6llhwJPQCks+JIme4KCVneh6XOfYODMQ/jHOxU6I4mF9skft2QTmGAwahCenoZpB9zRYPhMSI1bVtwWxdmJu+PeI/HSHzuwxy8IedoEaAzZMBi1MJvt01a0k3+SCj/s9EP70fMsIaQGTUv2BBR3/4Vfb9QCdbs+hY7v/YnPdwQiMUcNI0NMdtpfqn/kyldg7xaQwYC9t5B8ff+xgPnqVTjH5OLluWfR/LmxkFp1rNxyva07o8WgbzFq+UW4xuYKlb//XICd/IOLDosEMcc/T5uDw4GR6PPbAUg9hlpc34UXrsr6u113tHv/L/x64DKCUyOg0CZDa6DokN6iM2CHC2GqQo/5Z6Jw77jVkLo8DYkhgcqyR8PmqNu1PzqMXYlFF2KRrqQ0c77dh5jspAvLl2FnFpDBgJ01iHw5xVuABDDG87/YGYx2b0yFdPv9Fd/hFbUwdOyNTqP/wk8HQpCr1tnlbo9ggBLATC/UGRWIzEjG7JPeuHXsGtTp+IiF9FbUvZXnNXpNmrZGgxe+wojFh3E0KBBZqhgodWnQGZVC74DSyPZ2cGE+GJAhPD1Oj42CVLdB5QEBqx0bt0T9h4ei5/STOB+eBqWe4SX7s4W9tY18PfZnARkM2F+byFdUjAU0BhMuR+Wg0/f7UeeefpDqN6r8yZ2TfP1GqPPQEPSZdhgXIzPtNh5s8Q4YYTBpoNJlISA5Fm+ud0Or16egTvuHKsc+jJE3bY16vV7Hg7/swWZ3byTkhCNPkwiNPkv8thAcsjOvAG2Tqdbj652BaPHqz5ZQknUBr8xnkgubtob0ym/4ca8vIjIUduslKWZYyS/LFhAWkMGA3BEcwgLkCqQodPh6dwiaD/4B0i3tSwUCJMyRGMeUOuvD5lK9bbuh/RuT8cPBsALtffuLB3PBowyw0ayHzqBAjjoVvomRGLTcBbcMnwKnDj0KdsPFZVWUwrGgR6DZbQIItJ90GKuueCAiPQQ56liodGnQGhSWEsZ26BWgp+JESCZe+G0/pIdeLbWvMHTA/mLtJ3xm3+FrpYYV6jWAdHdfPPTLASECZSgo6yxnGDjE1CJfZIEFZDAgdwWHsABdvkGpStw15QLqde5jkxv89ttvx4ABA/DZZ59h7NixGDFiBO699140bty49Am+QVM0eOhlPPq3M7JUShhN9lmZr7B3QG3IRrYmCc4xoRi55gLajF5gEdAhqbCsu2GmZ97xIOoP+Bb3/rwfa5w9EJ4ehExVFBTaJAtx8JoMsX2RLIVNzGb8dDgKHUdOg9S2W6n3z8W/Xbt2GD16ND799FN89NFHGDJkCO655x5R2KlE+xVoEdQfuQALzwYjRaG0yDPbmbfEIQa6fJHVZgEZDFSb6eUfttUCnNwVOgMOBySh/kdb4USvAHetpSxwLNNLyd0dO3YIyd3Vq1djy5YtGDRoEK5PrbvhXE514NThYXT8+h9cjkqFSqezhAvsTJ3e4h2wcAdYTpi1AjKU8bgUGYLJ+y/j0Z82o9GgHyB1ewFSi9shiXS64na7TpAa3wKpw8Oo03c0mo+ajU4/7sCApYfgm+iPNGVkQQZBplAdNHIHbIeEOaY4ag0GvL7GD436vW8ToZIVG/v374+LFy9i0aJFmDlzJjZu3IgFCxagT58+pfY1iSmtT4/D+A3n4ZOQYdekSlvHnfy52mUBGQzUrvZ2yLvl5J6Yq8H8UyGQhv5hSZ8rBQhwcR88eDBWrVqF2bNn49FHH8VLL72E/fv3C/ndrl27lj7Bt7kHt436CyuvRCFTpSooxmNfu2A2qAUQMLNAD51JCZUuHRnKOHgnhGGdsxc+WX8cj09cjVuH/4K6/T6wSO3e3RdS+x6QyC3o2AvSvc9D6vUWmrz0FbqOnYNhc3fhhz1n8fXes+i3YA/Wu7ohMTcWan0G9CalCE0wm4G/bW8H+wtj9/1nnYYTZahtcPU3a9ZMgMSgoCC8++67AgBMmDBBAIKvvvqq9L7C/vjgEAz+cw9OhCSKlE97Tbe0t/aSr8c+LCCDAftoB/kqirEA466c3MPSlfhmuzuk/p9BatjMpsmZYIC7vK+//lp8nq5gavLPmjULvXv3Lv0ct7RHy0Ff4/v9QUjKzYUp32C3wjpksHPxMZp1It2PgCBXk4C47Ehcjg7CGmcvTNh1AW8vOYAXpm1A76/m44GPZ6L7R3+gx2d/4cmJyzF09k6M3XACs04640CAD7wS/HEs2BNvbzyOIatO4WJkNHI1ueI3LKRB+2PNW/qLGWfC09Fr4jZI9zxVejtLEqxgwMfHRwCBRo0aCclmgkkqNt7gOSoKjHbshUe+X48d3jEFWRb221+KGW7yy7XYAjIYqMWN7wi3zp0nd6D+ybkYvfqS2L1SFtaWyZlgYNmyZfjll19A/sBDDz0kivTw3/fdd1/p52h2G5r3/wAfbPFBXBaZ8zqYr9pn7QJruICAgNfJ/H9WFMzTJiFbE4M0ZThCUoNwOdofO319sOSSJ/4644FZp90x75wH1rt54kSoDzwT/BCbHYh0ZQgyVRGIyYrEJg9/PDDrJCYfDURIao7d8ifYnwkcTflG/OOThAfHr4B016Olt3MBGHj55ZcREhIiOCbsO9ZQAbkmtvQ3qc09uOfz5VjnGgmtMU94T+wx5dIRxr18jTffAjIYuPk2l3+xDBYQYMBsgm9iNt5deUEUiykLGNiwYQPWr18vNPmnT58uwgRvvPEGWrRoUfoE37QNmj35HkZt9EJMZrrF9Ztvn0p7NOn1gIAaAFQIVOpSRaw/Wx0tFvgMVRjSlCFIUwYh/T+PEPA9goBsdYzwLCh0qYjPScO43b54dI4LNronIUttn1LNVq8AuQxbvRLwwOdLIXW0wQNUAAYIAOLj469VdTxx4oTgm5BISK9SqYDg1k7o9OlSrHEJh8ZA0KSD2WyfoZQyDEH5o7XEAjIYqCUN7ai3afEMGOGflI0P116CRPEYyskW5aa97jVO7izX6+7uLgABwwOs2teypY3s+uZt0fyZMRizzRuxWamiII85n1kF9hcnt7avAAQMGeSbhSARNQh0xjxoDFkWUKBJQq4mXngLstRRKPwgAMjRxAtvAgWFqCNAQSOtQWOJwS/0whvrAnEqLBtm1gK2s+MaGDDpsds3AQ99uQpSp8dt6isME9AzEBAQAILFBx54AK+99hpWrlyJffv2oXXr1qWnGba9F13Hr8Q6N1ZzzILemm1hx/3FzppQvpxqtIAMBqrR+PJPl24B4fY1GxCeno0fd7tDemECpEY27OoLCIRLliwRMd/mzZuLDAJW7rMpd5zAotWdaDV0En494ovEnFTBoLd3MGC1qMVLYIbZbBQxfoNZI4h/3LEy44A6AfQYKHUphR5p4j2tPgd6I0mCmgKioEno7m9yT0Xf+d74/kAUojK11p+yo2fyS6i7oMXlmCQ89useSPc+WyYwYOUM0BPASo5MM7x8+bIIMVF3oEQQ2vlJ9P15E3b6hlsKOJlYzdEkyxPbUQ+RL6V4C8hgoHjbyO/YgQUYc6XkbnJeLlZfCoL01mJITVqVPCkXeAjoGShMICxxIr/OqyA+27Yb2o5Zis0eQUhTpFnAwFX7L29sbTYCAhILuUASxJjNBhhMWuhNajANkQs+d/7WB//NcsQGsxamfD3MV1mJkG7ufOENSVca8N3+SAxY7ocF51mkyGz9KTt5/hcMJOam47n5F+HUcxgkp1IW8UKcgcDAQLz11lti8X/11VcF5+TAgQNo27Zt6SCy11t4Y/4+nA6LFHwN2lkGA3bSNeTLKNUCMhgo1UTyB6rTAlyICAYUWgXOhMag6Rf74XRbF0t9+aIW8EKvMW/8xx9/FKliZQYCdeujTue+6PzTIXjGRyBHkwaDSYV8hgnsTGug5Pbh1QoHuljUmQVAgh09BuZ8w38fZv7bJEIM9MhcxX+L7rA2hHNMHt7fEoLh6wJxNDjLzkImVjCgg1KXjdFbfHDLgM8hNWtbKnikENUTTzyBM2fOiNDA33//jblz52LGjBkibECPUol9iLoUg37GD/+ch19S9DXPgMi6cKj+UnJvkt+tuRaQwUDNbdsacWfc3XLx0hlVCExJRv/5l9Gw93CbtAbat28v9AVsyhwoBCLEpN+8LVr0fx9DVjgjOY9FeTJgMKkdWlnuGiwQO33u9q0LfsHf1tdLWLzUBjPWu6Vg6JpAfPJPGGKz7SlcUAAGTDpB4Jt3LhQPfLYAUqfSRYOsCoQjR44U4HHUqFEitbBv375o1aoUTxTrN7TqiDZjV2P1ZW8k5cZBLXMGasT8U5tuQgYDtam1HfBeCQa4u+JCnJSbjr/PBKD1u3Pg1K4bJE7C1y/ilfHvOnXh1OkxdBk7H3PP+QpWPSd3kvHETq9GEMJIAPzvwwoWSusm0VlaTD8ei6cX+2DRxUToTQQTpX3r5rxPj4bRZIDGkIcr0XF4bcEx1O832mbSabn6U8OmkHq/hYFzj+BsRDBytYmgNDRDMvYqzHRzWkP+FUeygAwGHKm1auG1coHiAmw0aaHQZsE3MQaP/XkajegdaHpr1YCBZrehydP/w8uLTsEzPhR5miRoDTkWnQGq7pWwc64NTcREgisxeRi9NRT9FnjDK0EJnck+BIgIHo1mepKUyFKlYvoxP9z1vzmQ7nzEJgnrMoOBug0EMG3+4UrMPeWC0LRw5OmSoTFYxJmEXLO9IKXa0Dnleyy3BWQwUG7TyV+8GRbgwksSm4mV+Yx5yNEk48/Tfrhn3ErU6fJUgdZ+KdX3yuItqNsAdR54GT2/W4t553yQqYoWbHuS7MhdsMTS7WQbfDMaoJjfYLjgQGAmevztKTgEcTkUZKp+u1jAo1loQjBr4mJUFN5ffRYNWJ9BFGwqri5DOfoQ62O07IDGz3+OAUsvwj0uEFkqhpTSBCnTnhUri2lW+eVabAEZDNTixneMW7cw4k1it6eCUp+OmKwYjNrgiltHTLXo69ugPW/zju+ux9B61N/4cqczIjJCkKth/DezQGNAThOz9hku+4m5esw5l4BmP17CWtcUZKiM1rer9ZmAzWDSi915ljoJm92D8PjU3ZD6jK5YSefrQWXTNqjXewS6/HIEx4J9kJgTJjQcRH+xhpRquRepWjuC/ONlsoAMBspkLvnD1WEBC2/ALNz0zJPPUSfibHgI3l55Cq1enwzpzl42pY+VCAi4y+vUB63emYWxG0/jXIQ/MpQs15sMLV2+Jh3y5RDBf5rfaL6KkDQNhqwKQP9FPjgVlmMX4QIr6ZTpkwptOo4EBWHoylOo/9F6SI+/Z0lNtaHqZYn9hRUgH30brT7fiDfWnkJ4RqAo70zdBp0hz6I+aKfS1f9pRPkfsgUKLCCDAbkrOIQFuNujm54TvEqXgZS8WBwKDMDoVcfQ9p2ZkLoPtJTfLauXgCTEZm0g9RiKW9+djU83nsTxEF8k5lp3eRkWr4CZyoP2ERe3pwaj1sDJ0Gw8NtcLX+6JgHeCstrJhAQDBG46oxbO0Qn4br8LXlx2DG+vO40eP+9A/efGQbrjQdgqa/0fUFCvAaQOPUVooPv36zFo2TH0X7QXyy87IzYr5lpKIT1ZvA75kC3gKBaQwYCjtFQtv07BHcinupxOcAe4A0vKjcbRoAB8vf0sen67Ag36fwQnlublrq1ew+JL1xIw1G8MqeWdcOraHw2f+xRtPlmOh37fhw1ubojNDkG2JlYo9LHgj+AK2Gm53uruFiQTqvVmTD0Wi+eW+GLe+QQk5+mr+7JgMpvhEpOFCfsCMHT1Jfx82AX7A3zx2c6LaPvNFjR97VfUe+Q1SLd3t4DIkjJT+B5VL9vdhzo9h6LDqOkYPn8v5p5xxgY3F3y47RgGLD+G1c4BiM3KFB4s4UWSwUC19wP5Amy3gAwGbLeV/MlqtoAlXMA0Q40owMOKfGmKKLjHBWHuGTcMXXQU3T+bi1Yvfoz6Dw6E012PiQlcurWTyAMXz7ffD6dOj6NBz8FoM+hz9PhyEYYtPoqPtp/D04v2YtGFSwhNDYNCmyJy1fUmrSU8IE/sJbZ+UKoa72wKxhsbgrDbL0OkG5b4hSp8k3UTPOMV+GpvOAav9MIvRwLhEhsLz/hw/G/bSTy/9AhGrDqNZ6Zuxl1v/4Imfd9Cna79IbXvCVYelFrdZXlQ3Kp9D9Tp+jSaPP4G7nzrF/Sfuhnf/HMee/28EZkRiJisYBwM8MPwdefx6mpnrHONRXwO9ShkL1IVNrF86iqwgAwGqsCo8imrxgIW74AlXEARIpU+E3naRGSpoxGfE4ILkX6YdcYDb60+g77TduK+8UvQ8Z0paD34C9R7ZixaDvoCd46aivu/XI4nZ+zGe+vOYu45D1yI9IFnvDdGbjiMdzaexG6fIGSpM0WhGaapye7e0tuTNtrunY6XV/oLMaLAFPVNp87RKa8z5oO/PW5XuNBBmHosCv7J2YjLzsTyKwG4/88D+OvMRZyL8MF2b29M2HsFL80/ip4/bMA9Y2bjjuHfoe3g8Wg7ZDzaj/gB94z5Cw9P3IgBcw7jqz0u2OHtiYBkX6TkBSFTFYZsdSwylEk4FhKLISvdMWyNLza4JyNVoa/2cEnprSZ/QrbAvxaQwcC/tpD/cggLWOLBZIszl5zMbYU2CTnqGFF+lyV5g1L8cSbcG+vdPTHthBtGbryIVr8cxJBV5zD5mAs2e3riXIQ3QlL9kKYIRLoyGJmqcLE4PL/0FL7a7QmfhHSwFK4sGmN7p1DqTPjtRCyeWeKLacdjodLfvNoF/wIBFT7cHoruf7pj5qk4RGaoodYbcCwkBS8svYJXVp1HUEok0pURSFeFIjY7EB7xvjgQ4IWFFzzw/QE3jNvtinG7XTDpoCsWXHAX77nF+iAh2w+pioBr/SVHE1cQSsoV9R6OhaTh5ZW+GLTSDxvcUpCrZfaJfMgWcAwLyGDAMdpJvspCFhDhArMZRgEIVCJkwAp8udo4ZKk50YchVRGMFEUgkvL8cTzEBffO3IRVzmcRlu6N5Dx/8V6aMgQZyjBkqaJESlimKgU/HfZF/0Uu+O0Ei83IXoFCZrfpz4BkFT7bGY4nFnrjSFCWTd+pjA+Z8q/CJ1GJ0VtC0Orny5h/PgGJucwAuQrfJCW+3BOKB2ddxrkIepLSRZlmlmwmCExXhiBVEYTkvEAk5wUgKdcfSbl+4mHpKwHifX4uQ3gDopGrTYBSnyYyTQxGjeCVkKdwPCQLQ9dYsivWuabAaJbDBZXRvvI5qt4CMhioehvLv1AFFhCAgOVq81mJTyNIhRpDJhS6ZLGwZ6ujkamORIYqHGfCvXDPjG1Y7XIJUZl074YL0MDFgJM6+QHMUKCErW9iJj7aHoiXlvviH580OURQxrajm36ffwZeXR0gHil5ejCGX5WHwXwVl6Jy8eG2UPT82xOLLyYKDQQChCy1EfPOJeDJBV6YcjQSCp0GWqMKGn2OEAdimIk7fIaaMlURYrHngp+hCi14hIn+kor/q+cAACAASURBVKmOgugvGkt/oUdKZ1AIZUwWfbISBlV6kwBB724OQf/FvkJ/gYCgai1QldaVz11bLCCDgdrS0jXwPq3qhCzPa8zXiRLDlA1W6zKh1KaK3V+uJgHnIoLRcdoerHL2RGxWNPLEhJ4sFgPWHNAac2EwqkRuuFqvxy7fNIxYH4iRG4MRmqaugZar2ltiNsHSS0noNdtTZBlka+hhqZrfZF0EpjaO2R6GF5b5YcGFRKQoDCAQIAghmZEVFkdtCkZwCqtOmkFlQAJIrUEBtT4bKn26UJkkMMjVxItHjjoO4iH+nYg8bcq//cWQJ9JNjWYCHROulxzO0RhxKDBTyDUTEGxwp9eq6mxQNZaVz1rbLCCDgVrW4pyUuXvjjikhV4fYLMsjIVcPTtr2VHTGlqaxAIL8AsliTvJaoUVA4Rfu/rjYX4yKwR1TjmClcyASc1PEaxQv4s6OBZCYrmjd3XFiT8rVid3ks0t8MfloDJhLX1WLmS336Gif4ULsn6wSugMP/eUhdsoKnanSb4N99VhIFsZsDxVeCKY1JuTorv0OQxaf/BOOYWsCBbnR6rKnZoXZzHoX1K3QioqYTCFln2B/ITFVpc8Q3iL+rdFng++L/mLUiPCU6C9CVKjoMADH18HATLy9KVgIMm32TEWa0lAt/ajwmI/P0SOmYMxTQdI65q8ZTf6j1lpABgO1oOk5GZDMFZ6hwemwHGx2S8Lck2H4dY8PJu7wEI/Je3yx4HQEtnkm40JkLliZjougIxwEBAwbcCEn4Y+CL+QTCGBg0uBKTCpum3waK5wjkaIg2UsjcsGpH0CvAmsfWHd34jxXr8I7UYmv90bi8XleOBacBWrxy4ftFmB/OxOeI+zHOD7FiOjOr4yDZ7F6BEZvDbkGBOILAQGCj5mn4jFohb8gNaYqDNd+mm1s7S+mfJOlv5gL+otRI8iAepNa7P71RrXoR/QCmEzsL/QEEByKXnftnEX9ITwEQZkYtNIfr6wOwBbPNKHBcLOApVJvQni6RrSDZcyH45fdPvhhO8e8J6bs9bs25s9H5gqQoDXaTwXKomwqv1Z1FpDBQNXZttrPzFAtJ+XQNA32+abgp10+eOmPg+g2bhVuGzkTjQb9gHrPfyUejV+eiHajZqH7l2vx6t9HMf1AAI4EpCE6kzsnThCVM5FXpVGsk7x1oicw4OTtEpuNNr9ewPIr8UhXsqysSYAGUXSoYFK//v40xnwhr0shHRLCuMs02Ellvqq0YWWem7tOlji+/093zD2XgLhsXYV3xlZgezEqFyM3BGHAcj8svpgkOALWa8+/ehWnwrLx4jI/keboGquwvnXt+T995So9S/likbf0DaMAidz904NgAQB83zIOru8r105axB8UZDoanIWXVviLcAUBQVV6CIQIlIFjXo09Psn4cacPBv5x6N8xP/AH1HuOY/5rNBk8Ce3e+UuM+SF/FYz5wHREZWqhMcresCKas0a/JIOBGtq8dNVmqo04G56Fz7b44O5vtqP+4J8tsr1tu0FqdptFha9uPUh8NGgCqXk7SO26Q+oxDI2HTccDk/bgu12BcI/LRa6GE6T9AwI2Z+GJnn+7xSlw2+TLWHY5EZkqumotuzr+v6QjXWXEapcUtP71CmafpQtazh0vyV7Xv8dFmYDgrQ1BQp3wH5/0CnlYCASUejOcY/LEbvuxeV5Y45qCVOW/u372UbYxf5Mcgt2+6TDYwOi3epcsfYeL/r8Lf+H+dP092vJvfv9QUCZeWu4nvBgEBIJDYMuXy/AZ65i/GJGNjzf7oMu329FQjPmXIbW9998xT0XFOhzzTS1j/vYHhBx3w6HT0W3iXkzcEwiXmFyRGukoY74MZpI/WowFZDBQjGEc/eWUPANWXEnCw9NPQRr4s0WJr14jSJItJVydIDVsBumuR+H02kz0+esSdvqkIlNtoEPe4UzjEa9E28nOWHIpSQAkW2+Aiw/JcFTWY976wYBMaOVwga3mE58jfnSPU6DvAm98sDUULkXs0m09IV3YDGHRW9Nxugt2+qaDrvjCR57OJMiLHae7YuFFC5mw8PvV9TcBAVMtB67wxzOLfbDFMxUmG0BKWa6XfXXVlSR0n3YGTgN/tNRfqN8E/6mtcH3lReu/KdFNcHDnI6j72kw8NfsitnmlIotj3gG8gmWxk/zZoi0gg4Gi7eLQr7K2/LSjkej6xQY06PWaZUdQt0HxWv3WCaHwM6u61W8EqcUdaNh3FLpP3IPFF+KQTGU1BwMEBAO3T3EWKWf0lpTlYGyaIQIuZqM2h+BSVF6FXd1l+f2a8FnakGECLoK/HIn+z07e1vsjZ4OEvCGrA0CPANMXSdKj98F6ECxciclDl9/dRJqhX5LKrrxZDBkQUNJr8exiH2zySIW5kngUdO3/fiwSd3+xGQ16vgqpaRtILKpUlsJd/CxretzSAY36vYceE//B3LNxSFfSI/avna32lp9rlgVkMFCz2hMkSk07Eon7x61A/YdeLijXaos3QCp6B0FQ0KwNGjz6Bnr9sBULz8ciXeVYgIBgoP1UFyy8kIgMVdnAAOdALmbLriQJVviUYzEiplrDuk2V3w4Xq/G7I4RcMUMvxjKEnJQ6M3Z4p2PE+iARHuDfORrTf4AAQUFQihpjd4ThvpnuIt2QIQV7Oxg2IZB5d3MwmK2y1TMNvL+KrLXkYvx+LAL3j1+Neg+wemfLsoGAwpsA/u1UF1Lz29DwsTfR64fNmHs2Frla2UNgb32psq9HBgOVbdFqPB9Tp5ZfTkLv7zaiwcNDITW9tegF/vrBb8u/m7dFw77v4rlpu7HNKwUGs9lhPASeCUrcOc1FqNKVFQxYm5NM9c93hQtW+GqXZFGpz/qe/Fy6BRjPPhqSJUIub24IsjlcwKwALpjcTRMMcDedrblR5jcpT4/Fl5LwyGxPzDodh3SVAWXAG6XfQCV+IkNlwF7/DEGAJCDY7pUuQGp5AAG9IcsuJeKx7zehXs+hFiBgy3i25TMt2qHRE6Pw9LS9+MebXgxLFkUlmkI+lR1ZQAYDdtQYFbkUAgHPBAVenH0WzZ5830IMsmXAl+Uzre5Cy5e+xDsrr8AvOU8wsB0hZEAwwBgzXdXlBQN0klLchgsZBWyYilWeybsibezo36Vbf+nlJBE3n7A/ssDNX/Rd0bYEAtu8KAAVJOy+UQCBGz07zPw4EJCJ19cFiUdstg7GSnK/F311FX+VtqCHgKmPTDtkkScSIcvqjL8UnYshc0+jyVP/g9SsbeWBf+u8cGsntHppPEascEV4uhJGGRBUvPHt9AwyGLDThinLZXHizNMaMfFgJNq+OQNS2/sq5ia0TgTXPzNkcNdj6PLRAsw8FQ29ibsvSq2WdQory91V/LNeCUp0+s1VZAQwQ6C8B+PWVNZj3vhXeyPA3ah8lM0CdOVPOhQt9AeYXSAEna47BV3+JAbu8csQYYXX1gZiq1eayEy47qMCkJEb8M2+SOF23+2bcf1H7PbfBDv7AzLxwjJfvLE+CDt80oVHw5bRxM/oTGZ8szcM7d+aDokZAdeP18r4NzMP7nwEHT5agnnnY6HQ6UWKpd0aVb6wcltABgPlNp39fJFegbA0Fe6ddh71uz1jYQWXMhE4OTmhXr16aNiwIRo1aiT+5mulTiiNb0GjR9/As/OdkZKnhDGfLtuiVdjsxUIEA51/c8XfZ6gz8G8aWnmuj7HvHw9F4cmFPgW68/YOhcpzl1X3HYYL6FXhbvjpxT4ISlX/J/WPQIAkT8r59pnvjQHL/cUOmlkCRR2sDPjXmXg8v9QXPx2OBt3mjnTQHgwZ8Popm0xAYEu1Q34vLF2NR347jbr3D7AQ/0oZ89axzXHeoEEDMe7r16+POnXqlDzum7RC496vod88N8Rlsx6DSSYUOlIns/FaZTBgo6Hs+WNM+VtxMRZNRi2B1PLOkge2JIGTQZMmTXDnnXeiV69eeOyxx9CpUyfxmk2AoMPD6DRuPXZ4JUKl1wkFP3teEqkmeM/vbiKWTMGXihxkVZ+PzBFuay5WkRkaoYNfkXPWtu9ysWP+P9M9uYBTCps7XT7oEdjrl4EH//LA4/O8cTYip1htAnrEmGFAVzszPUIctI4EARBDBtRFoIgSPSalqTWyINLsc3G4492/LWnDNgIBLvwc+/fffz969+6Nbt26oWXLliUDAm4S2nRBs8924GAACztpHcIjWNvGVUXvVwYDFbVgNX+fi3BkpgbvrPNCg77v2kQg6tq1K7766ivs3r0bu3btEs+HDx/GhAkTcO+995YKJqSWHXDrwPH4bGcgMlVKUNKV4QJ7PQgGuv7hJurbVxQM8B4VOjN2+qQLstr/toZWqaKcvdq0ItdFYh8JmRMPRqHzDFex+OVoTcIjsME9Bf0W+OD5pX5CXIgZAcVxMwgiCAKGrGLMPc3ueQIl2YwhKIZFhq8NFF4CkgqLE/zhmM9S6zFktT+a9X0LUtPWpY9ZSRLegO7du2Pp0qXXxj7H/7Rp0wQwsHoOinxudhsavfQdJu71Q2yWQqgy2vMGoCRby+8VbQEZDBRtF4d5lUppfskKPDTjHOre/bhFG6CEXcKtt96K77//Hhs2bMCnn36Kfv364YknnhB/79mzB1988QXatWtX8uTSqAUa9xyMJxd6IDkvG9Rtp76/veYi+ySq0O0Pd/x+Mk4s3BVtXC5mLPYy81QcKG6z3i0FmRXgIlT0ehzx+0zXZDEjCgiRIMjd8OJLiYJcOGJdEM6GWzwCRQEBehBIEJxxMlaEGmadiUdyodoDjmgPXjPTDnf5pmPkxiC8sNRPAM6iOBXm/Hwk5mnQ+Tdn1Ov8uE0hAnr87rvvPsyePRvbtm3D8OHDxbgfOHAgXn/9dfTp06eUMd8c9XsOxZAllxGYklUw5u13A+CofaA6r1sGA9Vp/Qr+Nhdfo9mEy1FZaPHVQTjdcgckEn5KAANPP/00VqxYgT///BMdO3YEY4bkDjBksHz5cixcuBBPPfVUieeQ6tZH3Y6PoP3kC4jISIPOpBFa7vYMBu770/2GgjUVMb/OlA9yEV5dHYCBy/1xLiJH6LlX5Jy16btc0LVGMzZ5pAlBJ9YRoDrf+1tChJZ/UYug1T60PYsgkbfxxe4IoXBY3C7a+h1HeSanhV4nZq0QEJAQSZBAe/HgblxrNMErPgu3fH0ITm272kQWbtq0KYYNG4ZLly7h7bffRps2bcTYb9asGW6//XbcdtttJY/5eg1Rp0MPdJ18Eu5xqaJ4E2s22OuYLzCX/FQGC8hgoAzGsrePciBqDEYcC0qB05jtkBo2L3lASxI+/vhjrFmzBmPGjBHcgcLA4ZtvvsHatWvxzjvvlHIeJ0i3dUHzb4/BJyEBKr0CrABIL4U9Hj5JKnSf5Y5px2OFKFNlXaNSZxLkr15zvPDDwSihVMj4r3zYZgEu4FZ1x6aTLolsAOoIlFQtkx4Bkjjf3RwiFkuy8cnKrykHuw91COgheHmlvwCbBATUTWDP4phX6Aw4HpSMph9tgtTqrlLGqkVM7I477sCXX34JNzc3sfDXrVvypqHwvCD+rlNXbDZafHMYl6ISRJlwU77Rbsd8TekPN/M+ZDBwM61dyb/FiUGl1+OAXwKk0ZtsyiKYNGkSVq1aJVyD1w/4999/H+vXr8fYsWNLn2Bad0bTLw/CNSYWCm2uKBlsLe1aybdZ4dP5Jqnw4CwPTD0Wg5RKdCdz4iaR64cDUXh6kY+ofVAZnIQK37ADnIBs+BSFHsuvJKHfQh+0n+aCYWsChV5Acbt82psKmyuvJKPTby6YczZekA8d4HbLfIm5GpMABBQlYthgt1+GAAnk5uRqdDjgG4+mH6yG1Kpj6WNVkkCe0OTJk3HmzJmSyYLFeRVJImx6Kxp+cQjnI+OgNebBxPBgvn1uAMpscPkLkMGAg3YCugs5MZDNfzggAU4fbrUUFypuMBe8TjCwevVqjBgx4oZJ5IMPPrjmNbgeKNzw7zb3oNk3R+ERFwOFjrwBlga2T94AwUCPvzwx+WjlggF2HS5QYekaMBeeueIUv7GlSp6DdrtKuWwCgcRcPajk2HO2p9jlj/0nTFT1G7crHAk5uiJ/hx4DliZ+apGPKCsdns7wVM31xJBX8Y93uvCYUIFxtx9lmA3I1WpxJCAeTcestxkMkBg8ZcoUnD17FmX2CnDucKoDpxZt0ezrQ7gQGQutIQdGk06UfZZDBUV2V4d7UQYDDtdklgu2ggG9SYdzESloMG6/hVVMYaASAMEnn3yCdevWiXBB4TRCphwRKJA38Nprr5V4DvISnO54AK1/Oofg1Fio9dl2HUOkKA0XnV+PVD4YsHYfsr+fWeyLT3eGITxDY31Zfr7OAly7KdbEipokX5I8SO4FAcAvR2LwxAJvIRt9fUU/gi4SDin2xEJEl6NzHU5T4DpT2PRPgh2SK+khGLLKH3v8KL6kwZWoZDT7Yj+kNp1LHqsFc0GHDh3w7bffwsvL64YwAeeBwnNBkfNH3Qaoc/v9uOunY7gSEwONIceux7xNxpU/9B8LyGDgP+ZwpH9YPANk8nvGp6Pb1FOC1CeJMsXFFB2SJEEO3LhxIxYsWPCfrIHOnTtj586dgljIHOQiJwQryGjYHI0eHIBH5zojJisOGn0WDIJEaJ+EIr9kFR6Z4yly2lnmtSqOPK0JU47GiMp804/HiuJGVfE7jn5OVtSccy5B6AiM3BgsRId0xnyxw78cnYf/bQsVxED3eKav/bvrp3zvoouJ6DXHE9OOxwgg8O+7jm6Vkq+fHhEWZyIYGLDcBzt8EhCZmYEOUy6i7l29QEJvieNVkoTAEAmEPj4+YiPQokUL8R0SiFu3bv2fuaDIczVshnoPDcIL88/AKyEWGkPBBuAqRcdqS0uU3E6O/q4MBhy2BS1ggHG74NRMvLb8Cuo/+hakxreUODFQYGTcuHFCX4BZBSQVUXOAqYbkCwwZMgSNGzcu8RzSLXeg5Qtj8f4WDyTkxFvAgJEuW/sEA9xR9p7jiR8PR6OqwACJg9QzYDEjMuMpIiMf/7VAZKYWM07GCQ/KxzvCQI8NMwOsSwmJgFz0uAumfgClo2lXhhUYMx+2NkAULCKBkJ6C2nLwVgmGqKXwxvoADFjugZXO4ei/yB1NHh1uqUxqBerFPNPzR97A9OnTcfHiRcycOVOMe4YOfv31VzDFsEgQYD1fszZo+MKXGL/9CoJT42QwUAM7nwwGHLRRrWECegYSc7Mx51QAGr81u0CBsHhZYU4KXbp0wZtvvomJEyfip59+wo8//ghmEgwYMABt27YtxWXoBKl9D9z58RKsvOKPNEUCNHYeJiAYeGyelxC5qcp6AtzBkfn9+rpAsWhFZ5FHUYtWrRLGEnkVU4/FCoY80wFdYxU3iARxgad+A+WFWYaY5EJKE/smKfHZznC8sipAkOoIDmrbwTtOVeix2SMZr6z2wpMLL6Hn3xfQeOgUSLd1LXkhL1jQCfIfeOABoSVSeNxTZ4BzQrFggHwBZg99tA6bXH2RkJvwLxgQcuS1rz1qYv+TwYCDtuq/YMCAPG0erkTF4p5fjqJe16cgNWhS/MCWJMEmpoeAIiR9+/bF448/LuSIOVmUGjts1AINHxmGJ2adgE9iKHI0SQVkIvslEAYkq9Fnvhe+PxBV5cWFqIq34EIi+s73xowTsUJetzbtYq8fTtzZk+hH8ubglf6ioNDlmLwbgID1eyRf0sPCEAJrF+z3z8AvR6LFdxl+qWhtCevvONIzl1qlzizkllc6J+LFZZ5o+dMJtJtyDPU/2Qap2/MoLTxoXehJHqSmwMMPPyyEhqhISM2BEkmFjW9Bw56D8ciss/BKCEW2OgkaQy4MJp3dkoYdqX3t5VplMGAvLVGO62A2AXN99UYVUvLSMGabN2595XuhI072r3UCqLRnChp16ImOo6Zjwn4PZKiioNSlQGfk5M40I/vMJghIUYvFecL+KMFiL4epbf4KFz+6vxku6PG3B46HZIN6BLXxMJjyEZGhwZRjMUJpkJUFXUoAAlYbMVzAQkUPzHIXaXWPzvMCsw3c4hTWj9T4ZwIAaiowVZUluFm1kQTYtzcGYdAKLwxf64Z+C0/jlh9PoM4LXxWM+eI9guWeA+rUg1P7h3D7qN8x6ZAnEnIjodClQGvgmC+oWlqb0W4N6okyGHDgxqR3gHF6g0mLPG0WToRE4vEZh9GwtzWOWJmTgxOkZrehyTNjMGjBUZwKC0C2OgYqfTr0RqUQHWLOsT2mGREM9FvgjW/3RVY5GGB3YrjgXGQuKEY0anMwfBNZB7525WMzLY6hAQo99fzbU3gEmDVgi4ufawvz7D/eHobbfnVGt5nuokIkwUVNPxhWUunNop8S/KxxTQH5FZRt5mPsjlCsc02Ad0I6NriF4OnFZ9Hi881w6v0mpEYWUmC5F34rP8D6TG2B5u3Q9Kn38ey8U3COYS2SWKh06dCbVGIjYo/jvab3kaq6PxkMVJVlb9J5Ld4BPXSmPORpkzH1mB+6fr4Mdbo9a5Nmuc0TR/3GqNNzKB7+YR3mnfdCuioMuZoEqA0FmQRm+yQPshkCU9QiN/3rvRE3BQzwNykhu9I5Ge2numDe+QQk5OquEeVuUteotp/hgh+aphbZFbdPcRFAgMDAVv4Ed8X0Dkw9GoM7p7mIUsYs7VuTARVtozUQBOhwKiwHU47F4slFPrh7hiueW+or6mow2yJbbRSuebroVbocbHQPwJMLL6DRO3Mh3fsspLoNKs8j2KAp6vZ4BT1+2IiFF7yQqQpHnqYQR0jOJKi2MVYVPyyDgaqw6k08Zz4KQgUmNVT6DISnx+DzHW64/YN5kLo8DcmpjLKj1l1B4WeGBx4cjLs+X4mfD7kgNC0IWepoKLTJ0DBEYOfiIwQD/Rf54Ms9ETdNsY7hApaWfntTsAhRUF6WKXQ1/eBOkfamPHPXP9zx/f5IUaHQFo+A1Ta0k3ucAvf87irSDO/6zVXoNwSmqKwfqVHP5EmEpmmw/Eqy0F3o/qcHevztiTHbw0Q5ZxJR6S2gDdmv6IEzmY3QGVXIVKVhnasfnpp/CnXfnA3pHtYVqQSPYL0GYszfPW4FJh1wRVRGELI55nVp0BlI/iwoTlZrIG6N6nJF3owMBoo0i+O8yMmXyn9Gsw5aYy5yNMlwjQ3Hl9svosNHiyA9+EqB+7AcEwSBRJNbIfV6C3d/sRqTD1yEe5w/0pQRFq+APhN6o1oUKaKHwl5dhkGpapHONn53+E0DA+xBnLxdYhXCvfvB1hBcjMy1WxtVRo9n+3vGK4Un4KmFPkLXITZbWyxZsKjf5GIXmq7B6C0hYkHc558pskBeWOYrCJk1hX9hMF8VZFZySkhsZToqCy+9vTEYf5+Nx+mwbMRkaZGnMwn7FebrW8c8vQMafQ7ishOw2sUHz847gnoj50N6YLClTkm5eEOUHW4DqfdIdP1yFX7afwmeCQHIUEYgT2v1CmhgtmNPYFH9Sn6tdAvIYKB0G9n9J7gQm/ONMJjUIuc/Q5WAi1Gh+HX/JfSeuB71nxsPqcPDkBq3LLWqoQgbUMSk2W2Q7n4CdV6cgBZjV2HS3nO4Eu2HlLww5GhiodSlQWtggSL7Ll/MxiMYYLyVpL74nKoRHSqqk3AC1xjyhVjOgGV++PVINGKzi5baLer7jvQaF3GmC9L7MmiFvwgRhKSpxU62LPfB1M8llxJFaiHDK6wl4Z2gxCc7wzG4ILXQXkFnafdJLgTDR+QCMG2SpEhWamTlS5IrKc98MSoXFGZSG8wl7rnpHTDSO2BQQanLRERGDFY7e+GFBUfQYPRSSE9/DqljL4sGQSmVTMWYr1MPUrM2kO7uA6cXvkW7cavx/e5zcI7xR6oiHDmaOMEVuOYVsFOycGltIL9fvAVkMFC8bRzmHWuaIRdmnVEhBm26Ml6kAS294Ik3lhxGlzGz0OSZj1Dnvuch3d4d0i3tLRMFSUd80APQsgOk9g+hzgMD0eLFz3HfZ/MweOFhdJmxB3+cPAe/pABka2Kg1KcILwSJiyQwCq9AiVNX9ZoyOFWN55dSKphg4OYvxhTJ+WJPhJj0V7vQdjUrXCCAQJwC43dHCC0AkgYZKuDrZTlIvDwUlCnsNGJdEChSREY9wwYs60vpYlYrpEu9jKcuy2VU6md5nbz+6EwtDgdl4c/TcfhoR5jQonhnUzB+PBSNLZ5pIp2Smgoms202u+YdMOoEs5/u+7D0KKxx8cDzS46j2fjNaPj6b6j31BjUue+FEsb8nWLM133gJTR/8XN0+3Qenp99AD1n7cPMUxcQnMLwQCwUulRoRTqhZcw7KiCr1MatYSeTwUANaVBrZoEIFxjyxM49Rx2HuOxwHA/1x7Rj7nhz6VE8/v0KdH53Mm4b9BlaPPUOmvUZIR4t+o9C28Hj0GX0NPT7aS1GrTqOP066Yq+/B97acADvbDqCPb4+SFMmWgRHzBoRt7TXDILCzRqcqhFu2E/+CasWMMAF4WhwlsidZ8EZ55g8h1nMCtvx+r+5bBHYWJUXByz3w28nrEDg+k+X/G/qCPkkKkXGB/kdLPhEIGA9WNho7rkEwf34/WScSNe0Z+0h8gAyVEawfDaBDAWXRm0KFkDnvS0hwk5HgrNE2Mpo4ugt+8GxR3c9QTnz/gkIojKjsNbVFc8uOYz2Uw7g7h//wX1fLkXnUQVj/sm30azP62jWdwRu6f8u2g0ej66jp6PfT2swatUJ/HHKHVu93PDm+oMYs+049vn7IkuVLMIReiPHvP2D/7JbUv4GLSCDgRrUD8TkwFRDs2VyoCufjP9MdRSS80LgGuuH9W5e+PWIG8ZsuYThy09h8IKj4jF8xSl8vP0yph13w1ZPT3jE+SAx1x8piiBs83LDi8uO4vsDLvCITxDEJRKYHAEIsHlD0jR4abm/SNGiC7Y6DqXejOWXkwQo+WpPBDJVwKlfmwAAIABJREFUrAVfHVdSOb/JS6cr2zNeAYIsKjzOPBUnBIbKc1+0x+yzCXh+qR9+PhxzA9mSv2cFHQ/P9sS5iBzx+5VzN5VzFnpCaBMCF9fYPKxzSxVhE2YDPL3YFx9uDxWhAFbRVOorrj3B3bkIEZoZIiwABNo0JObECEAwaMV+DFh2EB9tP4uv97rgwy2XMWzZSQxecARDFh7F6ytO4+NtlzHtmBu2eHrBM94XyXmBSFOGYOUVZ7yy6gS+2++KoJRkwQ1ypDFfOS1au84ig4Ea1N7XJoerBAQkFCpEhkGuNkm495kalK4MRpoiEPHZ/ghJ9YVfoi98E30RnOqL+Bw/pCpIEAwUn8tQhSJTHYl0ZRx+OOCG55dexOyz5AxoHQYIsHkJBhjHHrM9FHHVGLOPyNDi5yPR4GK21TNNLHiOigcE4z9egbE7wtB+qjNmn40XlQfLAwSYVrc/IBNDVwcIAh0JhEUd/M0z4Tl4dK6XKBnNdMWyZCkUdc6Kvsb2E2mBxnykKPS4EJkj0gBfXukvijGRSDnxULTQnSDgsTW90tbrsoYILZwhrcjuUerTkaUmqdAdg1YexAdbj2C3rzMiM/wQlOInxjvHPcd/XLZlzKcrApGhDEaGKgxZ6ijEZsdgwn43DFh+GQvOR0Ctp6iY/ZKEbbWX/LniLSCDgeJt45DviMkB+TBfJQtZJwSBWG7U6iWgUFCWKgIZylCkKYKRmlfwUBAkBCNdGSLyiZk6SNIQ0wdVukz4JKbgrQ1eGLzSG4cDMxyKFU8wwMmZFfGqk8BnvnoVl6JzMXxdoKi+F5Gu+Y8r3FE6HBfgKzF5GL01BPf87obFF5OQoaIaXfmgDb01728JwcDl/qJQUUnuf7reKcRzy0+XRanjqio8ZWtbUAgpNkuLbV5pAsh0m+mG7rPcxf1s8kgVCowUYCIIKKd5Sr2Ua5uAAgEyrVEpyopnqpKx1tUbg1cexRvrj2KfvzvSFCHXxrxlvAeLuSBTFYFsTTRyNfFQ6JKh0mfifEQi3tnkjYErvOAaW7MzYUo1ci34gAwGamAj/7tbICAwiPLCWmOeyDRQ6dLEAs9BT2IQwcG/D2rpxyNPkyQIQ5wQSBpiPrNar8Umj0QMWeWHD7eFil2go5iOhDOWf/1ga/WCAdorV2vCbr903PenO8bvChfgpKoWiapoH8bxKYrD1L+nFvlg8cVEUVGvvDteCgmx5sAzi31FmIGLfUkHgQi9OyQSsv4DPQp0zd/Mg/dKmeBTYdmi5gK5EvT2MCvgj1NxOBGaDZJG2daFeQ9VeY0CEBRwCKgBwJRfSgYn5aZhvWsgRqw/i+FrT2Gfvw+yVdHikaOOQY46VgCAPG0SlPpUaArGvN6kRp5Wg7WuCXhxmQ8+2hEqeBqO1Fer0t418dwyGKiJrQqInTvjidd4BCa9SD2kdLBWnwu1PktkHaj0abA80kVIQa3PFGQhTiSsecBYpMlkQH6+CfE5WkF8YolZ5kLfrImuok1EtzMnau4+q9MzwPvg7pnXMO1YLLiLXO+WgnSVoaK3eFO+z4WbREjacciqACy6kFghRUcu7Fw4GU9nJUP3OKVN3gXutKnGR6IhFyl6KUryJlSGcbgIqgxm+CepRNz/s13hAmC+sjoA43ZFCMGg85G5iMnWgfwQeoFu9kFAcFWMeQoUGYUwEEl/cdlZ2OAWjjfWX8bQ1RdwODAMGcqUgvGfDsuYzxY1RpieTBEx8gOYKRSRrhZgjaGZda6sSXBzgdfNtmFt/j0ZDNTw1v/XS2AWg9tkNsBo0gpvAfXFdSalSEfUm5RCb5yTAQGA0aSHuWBCsBYg4o6IkzDzo0mK4t8UT7H3g7HloWsCxW6SJXKr++BixmJGg1b6ixQz7jDtOd2QLUx2PIHAe5uDRbx+0cXECvEvxA4/Rwem1zGEs8cvQyyitrQN11nyB5hdwJRRZjBUBcjjffN36Ik4GZotADDTAl9bGyiue9KhaGxwTxVqifRo2JoWaMs9VuQz1lAhxy0XdHoK4rLzsM41BkNWuWLoGlccDoxDujJHjHl6AcSYF8XGSAw2XeMHsK9eiMwVSprU6mDGB20iHzXPAjIYqHltesMdcXKw7BosUqZULOQkQdKRKd8gigzx2XzVaHmIycBs0Q8Qu41/F/w8rQn/+KSD3gEWUKGIDyd2ez4IBqwTuD2AAdpKZzRju3canljgjUmHohCQrLJLHobYEevNwiXOssLcCS+9nCSEccrb5jwnvSFLLiXh/j/dxaJeHv0H5u6zDw5bGygWZeoUVMbB/pylNgrARhnp6Sdir3lDCF6oo8DUx8gMLbTGyvnNyrjuwucQY75g3NNDyJTApFy1cPv3W+iOdzf743BQKjLV1A2weAHyr1qqjlrnCuv5qH9Awmv3P92vCWeVlx9iPaf8bH8WkMGA/bVJlV2RdZAX+cyJw/pfAQDg54o6uKDOOBkniqhs9kwTE2fRnyzq2zf/tfB0jdiBczGLtgPPAC1gXWRZVvmFpX5CpZALkD0dvEbGvcngJ5h6ZokvVrkkCxndilwnY/w8Z5/53kJ7gQJF5eEcsH+y1DGvjRwC1jMopsuWernEs/TOkJDoEa8EyX8T9kcKESWmO/L8iy4mifdoE0dZDAuPaYKCbLUBq52T8MQCL3y4PQTHQ7KQq2Waq2XDUJShaFN6R5gS++BfHtjtm44cTcVTI4v6Lfm16rOADAaqz/YO+8ucuDmBUy/+mcU+QkSH7kR7PcIztHhjfRAo+MOiL/Z0sLwy1fZeXxckFOrsxcvCBYCVAxnCYIiFO3gq5ZVG8CvNtlxE6QX5am8E7pnhhnMRuRUiAGqM+aIqJD1VBFZcqMty0N4EJ5Q9do7NE+ciuCAhkJwElr0+EpSFVIWh3ECjLNdT1Z8laDea8oXmRd8F3nh/S6gIgZTm4WCYiEqeved6CfEk8jTspa9Wtc1qy/llMFBbWrqS75NkqpNh2Wg/zQWMndIVb68H8/sJBAgI7A0McEdG7wp3n//bGlotColFtRvjwlTIG7jCD91muuNgYKbNMf2izmd9jd6PZZeTcO8fbqLwEKvxVfSgu57FfnrN8cI27zSbT8fFLDFHh91+GUIQqMvvbugwzQXD1gYIDwhrK2gNzK23+ZQO80GCd5bYZpiK4OdsRE6pYSp+hyTC+//0EJ7BhNybV+fDYQzrwBcqgwEHbrzqvHS6VbkL4yT8+Dwvkftd1l3Zzbp+ggGGCF5fFyhSvm7W79r6O8zRJwmOrHrGp7kLq86DsXfyQpiBQYKeIPfpyCGp2FVx8d3rnyEyEbgAcTGpDNY9c/1J8HtzQ5DgsrDaX3GZLryFHK1RkF8Z6mLxI4KIgcv9RJrg0ZAsUROBfZntUBOBAFuR90Vgtso5WQhyDVsTKEI3xYUGr31HZRTiXayySPKkPXsEK9Zba9+3ZTBQ+9q80u6YEzldviSVcbFl/NEeY6kseEPiFxcg5n/b28Gwi3u8pdAP3d3ckVfGIlme+6TLfLNHmrAVwdMO7zQRH64gDhCX4pOoEpUjKQ3N0sTl4QkUd08MX3Bx6jXbU1QApNvfupDzmfdF8SmGOlhQiRkMVKX85J9wQWTkzpheI6WO5NrKuNvirtR+XqddKJ3M4lkEfgQElHkmubW4g+Obthq2JkCITjGjSD5qhgVkMFAz2rHa7oK552tdU0Qp1u8ORNlluIBg4N3NwWKy49/2eNBdzh04J+W3NgSLVLnidrdVcf1cGHgNG91TBRAgeNrqlQYyySvjYOle1i4YvNJfsPEr67zWa+MiRaLoT4eihSridu90EedPytXjbHgO5p1LEJkHr66x2PeHgyzokyL4LgQO1e2Nsd7HzX6m3agAKTwEK/2FOuaZ8GzBFynuWsglYXlpCnn9dDhaCDAV91n5dcexgAwGHKet7PZKubv4bn+UcP8yXYy7MHs66A1gpTgutPYKBmgvptctuJCIh/7yFOl26cp/d7dVaU8uCFysKak7eJW/8PIw7bGyFmzutJmKN3RNgFiQydavioMkOJeYPOEdICmTOgSscEjFTO5kCXB+ORKDXb4ZwkvAYkG899p+0AYM2ZBD0G+Bj9jxkzhaUtiPBGKSQKmVQdAokwkdvxfJYMDx27Da74BxRu6+Rm0KETsLug5Lij3e7AsmGBi9NVSAFZLN7PXgohmUohaLV8/ZnjgeUvIOrTLug79Jad2dvulCEpgLNuP6lZU6xrWWMXyqFjIrgTv2yhaq4m8wLTAlT4/zkTl4bU0g2k52RucZbiBjftTmYMw5lwDn6DwBemQAcGPPYWSE2g/UkGDKJytREhDQC1DUwcWfpNIR64PEmCeBWLZrUZZynNdkMOA4bWXXV0r2OWOPJJx9vitcTLr2sukiGGCRIsaJSSa054PkPYIpMvg/2h4K7wRlle26OHnT+7DTJ12wyklgJBFPoasczw7bn/fD0sSPzfXC32fiRQpfZdmfQIZeqKQ8PVxi87D0UhLe2RiMHn974N4/3NH6lyti9+qfrALDWfJRsgVEexnNWHgxUQCCj7aHCZBfnJgTPUfMDOk11wvTjscI4GAvY77kO5XfLcoCMhgoyirya+WyQGyWDlOPxYiqbVs97YdpTGIYyxczTc7ewQANz9g95X47z3AVru6qqsxHN/Bmz1RREpi7Qfd4ZaXKIpNpTvlaApuPt4cJYFOujnXdl+jY506WHg2SLb/YE4Gef3vizukuIMudtuOulToBTCc9HZ5z3Rnkf5ZkAbYbAcFj87wwckMQLkXlorhgCsMFX+6JQMffXAX/wp5ltUu6Z/k9QAYDci+oNAuQ8HYxMhdvrg8SOwu6Dm8mCa64GyEY4C57wDI/UIDI3g/u2DPURuHepv4AY/mVncJlzfenN4BcCueYPAEEKmtnx3ugUiUXYxa5YcijuB2mre3BayPbn94SehtYLInhFGZgMMWVAIBeILq2+VurnZOFuuNXeyIrVEfB1uurKZ+jndk/6GkhuGIo4GJUbpG3x8WfoRmmFzM8E5YmhwuKNJQDvCiDAQdoJEe6xGy1UaSjUcf8u/2RonZBZS0w5bUDFyUWV+LERsa5IxxcTJnC9fLKABHiELuzSjIkdQ3IBmeKH2P5lAbm4lnc7q889kpWGMRi0nGaq9ip07tR3stnCCoyQyN4Dd/si8RLy/3w7GJfwa0g4fJ0WI4ghrJuBkMH1iMxVyfqPrDEMO+3sgGV9Xdq4jPNSGLw8ivJQovh9fVBInx1PbhnmzLUtNI5CZ1+c8X88wkVqmRZE23pKPckgwFHaSkHuU4uYtyJ/3goWuiYkzDGXUZ1HgQDn+4MFyp/jgIGaC+WwiUjfvDKAPx8OBpc3CpyWCdukunIn2CRH+7Y1ZWgAlj4uhjHp/ueizZ3laFpmjKTBrmoE7QQBNHtz/ajTgTP9+3+SFFGmNwKsuC5O/0XAvx7JdRqYMU9ZhPQi0DQIx+2W4BjmdUgl19OEiE2qnjSQ3B9thABAsf82xuDRZsfCMy84TO2/6r8yeqygAwGqsvyNfh3uZPzSlCKugUs8MIJhCpx1XVwQvtsZ7hwJ9uzbHJR9qFQztd7I8ViRinY8u5uyf7m7nz+hQS8sMxPeEoIBCpDDrjwdXMB8U5UCuEfSt2y7LGtcWQu3nTxEzwwFfGPU3GC6zF8XaDQw2dO+zavdFEXQ6mzLS2Q56N2AsHP2B1hgsBY2HtQ+Nrlv2+0gBUQLL2ciKcW+Qgv1bnI3BtIpuyXJ0KyxWeYcuiZoJSzC240p12/IoMBu24ex7045nxTyITxYkrtMr+/qN3bzbhDgoFxu8Lx9GIfuxRFKskGnIy5y6bCI3fGBFlltSN3brQBmd8kCjKzgiGIisbwi7ruVKUlBME4/q9HYkBgWFp4gAsJv8d72+GTjl+PxojCTQQt1Ab481Sc2NVTHKg8+ezsezNOxgrZYWa8MJxQ2jUVdW+19TX2wWSFHgsuJAhSIbOFWGCKnivrwT7Jtp5yNFZkFM05myCLEVmN4yDPMhhwkIZytMvkZMtJd8w2C3FvvVtqtbkOuRCScc6dTaiDcAYKtzftSGD15EIffLU3EooylNDl4sksj+WXk/HALA9RsImlfjlxV/ZB0EGZYcoY06UcnlE8P4O7c4IRVgN0i1OI+/toRxieWugj0hzHbA8TxMmIdA20FRSxosfBI14hrumR2V7i92z1VlS2jRz1fBzP9LLMORcvAAE9bReicm/w+tDzRgDHPrDPP8MuCMSOavObfd0yGLjZFq9lv8f8b8aO390UIhjrZd3VVoa5WIud6U/9FvoIF3RlnPNmnyMiQ4Nfj0SLdMP9/hk2ufc5gSfk6AR5jiWIX1sXKFIrryeBVda9RGdqRXyeO3oWOrr+YNtzl0lPAEln1MGnLDC9Fff87iY4HVQMpEIh49KV2VcYDjkRmoU7prgIHQxyR+xJGOt6W9njv8Xu32QGd/30+I3eYhnTbNPCB+tZMHOHHihKHcuHY1hABgOO0U4Oe5Wc+BdeSMRzS32FZDFlb2/2wQnpm72RYsfJeLQjHlzAnWPzBHeAVfZYIKo0IR2CoBknYsVO7oOtISCgoPrff6fuyrEGr2XacUvlRYaFcjU3KtdxQaYAEMMVw9cGCv0B5rITqO3yTRchHO4+xTVW8kVyvWIogjwEKhOudkkWinuVc/e15yxsFhKCGTJ4ZrEPRm4MEoJPhS3AMc4+QJ2HGSfiYMqvfC9U4d+T/64cC8hgoHLsKJ+lBAsw95sM8BeW+WKNa/JNJxZR8//bfZFiB0pCnqMe2RoTdvtl4K7priKvnul2xa2ZtPkvR6JF/PaL3RFC/KeqPAK0J4mCzy3xxbhdEfCM/5c8xnBAQq4O+wMyMfEg61f4i0WESoF0OVPyliCF8sdVeX28Rp6fdqGuArMLDgdlVSux1VH7IT0B9Dgxy4OVH9/aGATXWMW1tE6+z9DP5zvDRZ9gFkehjE9Hve0af90yGKjxTVz9N8hdI+vEs3IghUl8k1Q3dXKIz7EUUuIu1JHBABdW5n5POhSFR+d5YZ1byg27W+6AqbLI1E4qLlLrgRNzVVXls2YpMK2MdQ12+2aIAjeUqiU3gcI11LlneVymBTIzYsWVJJHyR5DG2P3NXCgICBjLJsGRrHcKGMlH2S3ABZ9hocUXE0XFUrY/AYGVi8Fsj3980kQWB7UsqBYpZ3GU3c438xsyGLiZ1q7Fv8UiKMuvJIliOJMORosF42YtAgk5evxwIAq953oh2IE9A+w+XNQpActUORK1ToRmX0s3pHudQIApeIzb855dYqsOCBB40CVMoZlHZnsK1zB3gcx+YB0C6hhwF86FguBks0eaWHwpTHV9nPlmDg3KME8+GiN2tbxO8hfko+wW4OJOQMAwIEMCJH1S+8GarsoCVbNOx+OhvzwEQZSereI8WWX/dfkblW0BGQxUskU5QFjohSxpkpSYc82dmWucQqROkW2botALZm550qQq+XJv2uk4CXAR++5AlNCRp4u2cGpSVV4IhWnoou41xxPBqeqq/Kmbcm4S39a7pQh3+6SDUeKeuCMLSlVjyrFYIQ1LjwDd9ZVdIbDwDXLSZ4rig395CF4CUwm5yFJbgmDlzQ1BgkfA/HMCMvJH7OWgR2D01hCMkFnvFWoSa8iAQlbksjBrh7oi7Bsm81Ux57EfsDTypei8KklnrdANyF++ZgEZDFwzRfn/4ELHiS5DZURgigoH/FKx5Ew4JmzzxMgl5zFkzkkMnnMSby4+h2+2emDx6XDs802Gf5JSuHn53dqAmHmfnCieXuSLV1YHCDJZVbmvC7cmXevcmbKYDRfMmnCQaDdhfyReXO6Hv8/GCxctCXxd/3AT/AiCHk7GVXEQ8JLtT9b/2H/C4TThAnrP8RKcDGo5kEW+yiVZ2Fpvg85AVVxjaefkPbDmA7kDBAXUIpCP8lmAgICkwpmn40SWAQmh9BAQoObpTDgUmCV4LpMORYtsnur0CpXvDmvHt2QwUMF2pquUnT4wWYXF5+MwZLEL2o3fjjqv/Qnp6XGQeg6DdN+LlkePoZD6fwanYTPRdtxWvLzwChacjYVfosKiDV81c3cF77Byv85JY4N7Klr+fFmkKHHHWNW3TTBA1zlL29YUMMBWodeJuy7yBxivZ3oeJ2KW9OViV9kHJ3ECOnq9zobnCM0DtmPLn6+ITI0pR2NwPjJXLAyOkLbHEMefp+MFiJl+PLbU7IzKtmdNOh97m8Zo/j975wEdVbW98aGqCPbeG8/us3fs9dkLKs/us773t2EXAcWCSJUiTaSKFAFFBQGV3kIK6QkBQnojvRf4/uu3JwMhpkxCEibJnLXummTmzp17zz33nG/v/e1v6/PF2wwYUgsEzgjez4z8EuOunPnFek3ySbIQYVXXzjEYtoyz3VtVe3rfa4we8IKBvexVJpRv1ybq1iErdNjjQ9Xx0ofV9qiucux/kBwdDpCj/X5ytOvo3Np3dL63Xxe1PfIMdbz4QR3aY5BuHLjMSFVpecUtPveZhxxZ3B5TwmzSIGfeRTray1tR7dcBAzDrz+3vo5DEluEZ4GIhZhKvR0OADAPY23AzGgMIMKnDR2Csw1Xo+tl6Hf7hKltIqT9BSAwrEIJeI+CQau/t3nwAkAdQkW1x4cANpnvQmGGVvTnX5vBdFnP4IPAw0PR4fEqYyRIzdiCLkm2CiuaiiPQqOSOFJWVKzi42HkJUaoHgHEA8ZJw3PLRtDj3atOfoBQP17G8mXIpzvDEnQue9MVmdr3lCbY4+U44DDpGjXQc5HG3kcDiq39jngIPV5qh/6MAre+jsV7/Tf2eGKiqNsr9IuLbc4U+dAp9t2bp6mJ+J1FA+tzGvFkuZWPbZX/gYb6Get9yjvsb4QFXv8alhOuqj1Tr903UmpkPfNlRfsrAnZhVb+h+eFbITUAj854ANOrbPal06yNdSBiHksW9zHLKoIMJfQRiLkAHaDK2Jy9PQgxqwz8JPgS2qRQL6ndyVHZq6IdkIxPB3AI+ECHk2SUvFQ/Pi9BDdN3KNbvnqD93Yf5Fu/eoPPfANIDdcg/6KMX5KUnbjeL0auh+a4/G8YKAedw1XaURynl6eEapTnh6oDufcKsdBx8jRtn31i391wIDvdDlaHc66SSc+3l//+T5YQQnZKihGP72hpvV6XGQjfoXLwhvAhIG18OmiaMtbbqyfZMLps2CrWdCQGJt7Y1ysi862lL07xzqrDz43PcKsMdj8hXtB1OPYmQUlRvzCC/Df2ZtskaRyIhY0IkZoBWBJ910QbfoAzbk/ecLwVCGEBKCC/Y4Ov7fVvwcwlPAi4bUCZAFY/eJyrT4GPJc7xwTqvfmbNW51nJ6f7Kere83SGY/301G3vayDruiuTv/8lw644A51uvAuHXTlozr6jv/pzGe+1M2fzNX//bBR03yT7FgtdX6sf8/v3Te9YKCO/Yea1ubUfL0zN0zHPDFY7c64xhkSqM0TUB0YsPfbyLFfF7U79Qod/thXemNmoEKTclRSVtZiAQHdzoTBIoYaHVYDIKsxGpM95Lp/fL5eQc0cDFBTAI8AMdnbxwRajBbJ5x83purm8sI+9CuWursNcEbfo9RIqiLMcEoGowvwyMRQU46ktgR55KNXJRj585np4S0mRx9PQFhynrimK4b46efgNKur4W7/eff7ew+4AAGAn7RD6k6Q5koFyVtGBej0Xot0yZsTdOht/yfHWbfKcczZchx0rHlLHR07OcOpHQ90eloPPk6O485Xhwvu1lH3vK1rP5imD+aFWnnrvGL3qlf+/Qy971TuAS8YqNwjNfwPEiUtcNyKrTr25clqe9rVsoFb40JfQ6ig8vc67K82J1+mo58fr6//jFRsZr527ESj3f2JvYbT97iPcClS2IY4Igx04reN0QADyKPCtG/OYIB0LRZ+gAATbP8l20zCl4kXlb/Bf8XqlH7rNHxFvFm7tTmWAAyIAyFtPCcw1Sr7kRZIpge8gN4LtloYgEJPhK4o8sR94n7BxK8L4GiM+9qQxyQ7YmlUhqVIAoQgv7Wk62vIvnL3WIzLrdsL1f+PGP3zqw16bc4mvftTpC796Cc5bn1PjjNvkqPLUXK0aeeeRxX+1aEnqd15d+qYHv316Kjlmh+UIrhWO5oLUcXdztsH+3nBQB06vai0TIvCUnXjFwvkuKSHHO32c28QV170a/qfB+Pi7ur2yc+aH5SggpJi7djZcjkEVOD78o8Ys2qJ61Ohr6EbpW8pgHNav3UKSmieYQKAwKotWcYLOPPz9dZnLNIAKprTEss3ax7yFnFYvlO5uUI09Ak15/HI4LpFpOiKoX6mEolqIJ/BBQAA23eKdxj4uHa4v8V3+X5La5Td7v+HMz2OdE30Kbxt73qAipEJ2cU2xk7qs1IHvThNHa/9jxxHnCZHWzdBQOX5sv3+chx9ptrf/KZu+HKJfg5M0nYAQW3od+8upcV/2wsG3LzFTIoxGQXqOz9E7e/73BkaaFMLSbDyIHb3f0IGd/XRuz/6a3Mamt+l2tGCi31QvIZ49JVD/fRbaNVMYzdvU5W7sXBRoOaUfmsV2AzBAC588rZR9AMIQKZKy/175gkhBFz5Z/f30YszIizuzwQJXAAswCXAEwBhEwCGB4CyxlQNfH1ulJZEZFg2QmUCHb+PpQxPAK8E+gItsbGWkPqKYuIt3wQ2auiqJfZfVddEnyJNTJz/+J4/y3FRdzk6H7X3RlSbts4Qwg2vGSD4LSRF+S2YZ1VV3zb0e14w4EaPAgSwzn8NTdXN/ebIcd7dtWcLuLvwV7lfGznOuVPX9/5BszfGq6S0SGUtmD+AO3Z+yHbd9k2g6ZyTrtmQKJ+8+C+WbNNJnwAGct24456zC5YVpX57TA41yd+vl8WZ4E91XlFS40jtQmCJBZ9rJ8MAljx1A0j3IhXx7P7r9ejkUI1fm6jQpHzLEQcEVDZeh7t4AAAgAElEQVSu+J34zCLTMbh8iK9+DdkuQEdLbVw/JEyY8BDf1m9rmcCnqe4fYy84IUfnf7FG+13+aHlYoIGMqHJA0P6O9/XshDVavy3TjCbma2+rew94wYAbfcbgKigu0YAlW3TYowPkgNBS5SLu5Ad07NhRV111le644w4dd9xxatu2re3fuXNnnXfeebaxT03HgExz2EP91OfXcOUU5qpsBwtky52EWbS+WZVglu+ni7eZhebGrXFrF4795ZIYndh3rTY2IzCANb8gbLuo8Acre8SKeNPRr2mq4zMqylFrHklglBf7LdpmXgDkYnkPMiXpdJRzBnjVpAJJ2d/hK+IslXDEynhLBWvpc21OUalVVETd8e2ftwhNfW+rew8wb25Oy9drM4N1wH391Oawk+sfGqhuvgUQHHuOjn1qiD5dsEnJOYVeQFD3W2Xf8IIBNzqORTg6PU//m7pe7W74X7mOQPXEwEMOOUTDhw/XkiVL9OKLL+r444+3hf+kk07Sa6+9pldffVXsUyMYaNdB7a59Qc98u0KRKWkqKSO/tuVmF2CVYrW/MivSLNdF4ekNVruABY0Y8HF912hjfPPwDCAlzILdfaKz0iOpb5AEa1qI+Yy8eQiBz3wfbqlyp/ZbZxX6XpgZaRXmsHop44ucMWCjppZXVKaFYem65mt/IxSi3tgaSHX0CtkFlL0GEExYl9Sgnqqa+rwlfZZXVKpfgpJ0cs85anPCRU4BtuoW9b15v8P+andJd93x+Tz9EpKiHTvKWnRYtbHGiBcMuNGzgIGVW7brwUG/yHHhQzUv4g6HjjjiCP3+++9av369ZsyYoTvvvFMdOnRQ165dNWDAAH355Ze2T41ggIfjgvt05+eztSQiTkWl+U7uQAv2DlC4iLj1+V9t0PM/RNjCXTl+7cbt+tsuqJiRLodQjqeDARZ0iH8QAB/6LsSY+3hMcPNXt3TjtkfWmXACud2UDL5tdKARAk/+ZK2uHuZv2QL0g4UC/tZDf3+DMA3ZHa/+uMkY9qQcwrhvLQ1vCdUXCc+QPUHZ7drAU2vpG3euE69AZEqePpjtr7Z3fuRMFayFY4UH9YADDlCXLl2EF5W/29TynV1z6JFddcKjn6jXLxHKK8I70HINJ3f6vz77eMFALb0G/QoC3+yARF3//iQ5ut7gNhgYMWKEFi5cqA8//FCnnHJK3cHA6d10+ZujNXb1JiVlZyg1N1/pecXKKCgxpjfMeyRgsfJcG2Qd3JwsrCwqbFh4TORsWI62lZSZ8A/iPywmtpXusHxzCGPE+pgQSSlzbjut8A2LCRsTIxspPSwcRlTbKbNcq1u0aulq+y5ypgi/kIr09fI4ISW8t41FcPDSWB3de7VN6nt7vMb6PkAgI7/UQgNoL9w+OlDj1iQ4PQKVfhQuQUZBqSkqIun8xeJtlidPGAAQ8cEvWyysQFlZ9AcoH1wXq550zKFLnaVp+yyItrFTk1ei0um1iH+Rdh6zOsHSOFHNS8stEf3ubbX3AAbUoog0dfv4JznOvEUO3Pm1WP+EVG+//XY98cQTevTRR/Xggw/qlltusblzv/1qydzqsL/aX/5v3T98qcKTM1Ra1rLDqrXfgbrv4QUDtfQZg7q0rFgT1sbo0ldHynHSZbUOapdn4JVXXtHAgQM1ZswYPfbYYzrnnHPq5hk48SKd/NSXem66ryat36TJPjGauiHRcryn+yXrB78UzfBP0cyAFCOHzd6YauIz5IzPDUy1HPGfgtNMRAWCHm5nrB2sTmLRuICx+NAKXxyRoSWRGUaeoiwtViZFZ5ZtzrRKg5QfhdG+amuWsdHJd4e5TnlmmOYI4SA76hubYxalf1yuLbxYVFjjxOoJA8DmJ9efDTVANtzPbFTaI/WP34e5Dolr4vpEc9lS+hkJ08jUAhMrQliHSnNsuL3ZkIfesr3Qcpu3pheaShnpd5wTOfNo6XPNpIyxATTYUChkYwEkDYrsAza4BoQYABNs1L1PyS2x6pQsDDDz2WCgA2KIv7OY21ZQaoCN9Dw2A26u18K/gzjAHL8PQQ9LFJLfyJXxdl0uQMcr+3Eu/vG5+t4vWW/MizI+AWI5FCtCIZD7xrH4TcbCPeODjStAHwMEK4I9AN9u0LfTAAOgkbH0wIRg3T8h2LQMABIuAGggcI9iMhAPneTDlrZWhiXl6e2fNosiOz8FpRn4rmXKaPUfMxaKS0v13bpYHfr0N3J0PtItwvUNN9ygb7/9VvPnz9fIkSNt3uT/nj176qyzzlKtgOCMbrr87e80OyDOSNde70DdhqIXDNTSX04wUKhxa6J18f++luPEi90GAy+88IJuvvlm4w/AIQDl1ilMcMI/1emBj3Vi38U6/8slOvuLlTr787U6+4v1Oqc/m4/Vkj/vSx+dzzZgg7HIYZJjWV9om6/VGb940AYrL3rJIF9z+1462Nfq3l82xM9U11hMSO27cqi/rhrqp6uG+Zl7GRczAjfkl3cbHmDbdSMCLA59/YgA3TAyQDeO3KibRgZYrjpWKHFWFvJby7MDsFbRfSeVjQXrvm+DbJF5YEKIWbHdJ4bokUmhFpf+9+QwY3Fz7of3WmXnigAOFi5pbQjCvDQr0rgF1E5/dc4mvTYnylLjes6L0ls/bdbbP28W5VLR0//w1622YKKr3+mdFZan/8miaNMdoMIaXghY91/9GWvyyHgQhi6LM68E4j0syN+sijflvbGrEzRuTaIV6/luXaJVX5zsk2wpaNN8kwVAA5zNCkg1cIYq4I8VgVlQmi0oKNzND0lzgrMQJzgDpA1fHmfegIPfX2mufr6/C6BFOsEa32U/+vS4Pmt02AfOYkEsWGQLrI7O1tptu0Ha4oh065MT+q6xioaro7MMpAXG5xrwMjBWDshCk/MUlpxv4I+yvhAO6R8X4AJsISIDwIpJL7TQhAtUucAUIIpiMxWBE6W9K24uEOV6BUztseU7gRXgCvIe2y6Qxd+VgNbfAFc52NrTawaQKlMOW9HuzeU92/Va7kFzedI49l+bMnXxIF8b3xtisu37eNQqbhW9a6RwsgG6atrM+1bBC+cEZjtFRggbAKy2DW6JbeUeO5fnruJrRRBX5d+VgJ3L0welpOIG0KtykyyE5fKZMGduzy1Q/4XhanN3PzncdPXffffdGj9+vN59912dfPLJuuCCC/T888/Lx8dHb775pr1Xo3fh2HPV9cl++nLJJhUTVi1ruZLutSxb9frYCwZq6TbQZUlpob5bF63LXx8pxymX1wkMnHjiiXr66ac1ceJEDR48WF999ZX7nIGTLtEZz32lN+aSfx+l30LiRT7tb+ULyfxg5+IyJzDNPAKzApyegum+yZq2Idlcw5N9kvTd+iRNWJuo8WsSxIKGpCyENNjpuOJxB7MIEleHaMfiiNsZVn+/RdH6+Pdo4SpGFIjFlUUWljpMaxbfN+dt1utzomxhZoF+ZXakXpoZqRdmROo/MyJsIUe57qlpYXpiapgVL2GBBwAABB6cEKL7Jzjj44CFu8YG2WIHIDjsw1U6tvcaAyrUMQCAAEauA5gAUr72N4Ib4IUNQAOwIXeeVDhAD8CITIJ2by6zbIULv3K+B2gCQJ335QYDVed86WM5+hQ0wjLHGuz6+Xqr0Id6Idr1CBdBykPpj3g81QJPtG2NWHCP77vGFulj+6wxjgI8hdq2Y3qvNq/Fge+sUIeey3XAOyt01Eerdn+v92od23u1hTkoF8w+bd9cpjZvLlPnd1fY+5zHqf3WWhljzpPzpbIgEswn9F2r/d9eYcdFp+DcL31kALIcPBpwHLhBFw3cYIse3zvofWdpYvoHMSL61QBieX/T74BD7sNuUBigm0ZutLAEYPC2bzYauKF+ggHBcQDBYAECkTrm3pPTz1hA+ZCx8dT3YRbuQKYa3gjg7+VZkVYjgfLMqNihidBz3maz2N+Zv0Xv/bLFwiK9ft0qyiiTLfHJ79v2AHykWw4E8LnA3rI4U2oE7PE8EA4Yt3Y30EM2l9DKVN9kjVmVoGe/D9cBb6/QizMihTTzvCCnxw1PDp62hWHbzcO2JDLdPFtLN2VqWVSmSeau3JIptiq9ajEur1p2Ba9ajgLic8yjhjcNQmhwYq5V3MR7BrkxPDlPEclOb9mm1HxFsVXwkEVvLzCeCVwTCgdBPo3LLDQPWGJWkSmp4vlyebxSc4tNu8Ll5aLssMujhTfKFX4k5Ih3qaC4zEKLRSVOwAOwIZyIXHtJWalCkrL06uRVclz3v1rnS9cCDxgYPXq0ka7hCrDhDejbt69mz56t2267reZjHXy8jrrjf3ppZrAKinNUUooyYcvNwKpl6arzx14wUEuXucDAT0FxuqXPNDnOvr3mAVmBQIhngDjY6aefrt69exuh8Pvvv3cfDJx5s655b7wm+4QpNSdJGXk5yi4osgdzlyVTwcrB6sH6cfEHsIxsq2RJYVm5LC2X5YUVtp2t3EpzWW28VrTqcJPbVsF9zoSCO922cve6y9XOa0IWm9MN73LJ8+py0/Pqct1DhIuxrVBrt2Wpx5RQW4wAK0xwlDXdUj7pUeaUiTAyJd8mRiZI3LpMmLjEsXqZSAl1fPDLVnV5b6VZ7xDjCB0Q1iC8QZiDwj9ro7NM7hdRHiZuwiIrysMkHAO5WsInhDFg5UN2xPImzEK4hRAE4RcWBxYJNjwAWPNsuJnnBTlDOIRx5mxMtcWGGD+AgsUVAiBSv3AFWPQARF3eW2GgCJDDYjh+bYLGr0nUWNsSNHaNczEzkLfK6c3Aq2FAb1mcLYAAuMsG+5on4bnp4SbPjGcEZUZCCwA+FlFSGAE03Yb769U5UeZhefdngN/mcuAXZSx7vDF4ZVigKWbEgu0EgM5FHC36Z6eHm3zxU9PChaeBvH0WfUh5aBw4wWCoeYcAB4QlAAv3jg+20AYAgqJIFLahDgOkSDY8TmwADvNEjdpoVjsqioARPFVsLvAIWLm+HLgYiBweYJ4uF5AkW4INLxgbCo54yAxYDvXTZYP9DEBRHfKIXs4KkQAogOYlbIOcG94DABUelQt3bRss5EXYy/nZnq8XA8Bc2yDAWPk20FeXsJUf2/Xq9Oi5wG45SBvqPG+uwenFc3rwDKSNKPfc4bFzee3ow9GBBtTwMN05ln4O0r/GOb13d49z3gPuBdwVwNsD3zkBHGP1YTx5E0OdQG5SqHpMdgJ8F6B7clqI7h3vp7Pe+1GOK56udb6sDAaYN13vQSqER7B48WL16NFD7drVoFrY6XAdcv0z6jE5QAVFGSopQ6ET0qvLZ1HLZN/KP/aCgVoGgAsMrN+WqMdGLJTjsid2DVTXgK386uIMuMAA6BbUu2DBAoWGhlqogH0qf+9v/1/8iO4bNE/LN29SblGKikryVFZWop0tOKOg4u3A1Qovgrg1iwk5yzzWFV2Vu1yaFUiNuEIrukmxgPCCHPTeClv4zR3rcs9WcOW63Lsul29FN3B+yY5d5EuXC9n1Wh0wc4IzJ7mzIjAjlo/VRZ2LwUvjrCwwEy4pbFiUo1fFm5XM4s8CjuWMVQvgAPhgxbFBcAOIGRirwHWA9wD4MsBVDrrgXOAxOuWTtbZAcyzc/Wy4/rEqsWRZUFhwJ6xLNK4A3IxIF+BKybf6BOgTEE5gQ7DIxflwcUDgfcANwaqFKwJvhA2eA1wSFxgzQLYLlOVofUyOE5iVhzkId1Dcho3whgugOUFaloUzOGc4EgC0P8s5L06QliHSUxeGA9DSTdnSBdJ+Cd4uvGougEZ9DDbAGaEZwi2Eemb6p+gH/xRN90sxgIaHDaDQ9bN1FsZxhYomrk8ybwHeNyo9IuREOAkvHB6H0eXeOLJCvlkZb145PBKMSTQcCPsA3NiGLYvT0GWxBgoBhtSboNgPG547wll4OfDeofmPBw9Qh8KmE9ht2wXsAHdwZfDo9Sr36kEsdXn23p2/WRAjCTHh4SPMBgcFEOoEe1EG9lAHdQG+XaBvpjNshyomXhzCeBR6enpamJ6aFqy7x/mq69sz5bi89vnSNe+5PAOVwQCaLX/++aeeeuopy8py7f+3106H6uBuT+qRSf7KL9qukrICLxioOKHW8rcXDNTSQS4wEJuRqjdnrlfH29+Rg2paNTBjDz30UCPCdO/eXUceCXnGITQG0BdYtmyZ3njjjdp1BjoeqI43v64Xpy5XVOoW5RaltjowwK3BU/DF4hjjJqAiSAy2rjgf7wZWc+f3VjRaMaRahtEeHxOHxTvDIoKFi8XGhEsohskW8IOVzKTMYrJ8c6Z5UQAp9W0AJEADxyTMgncBQEEDXOFNYoEhvMLCg2vZE5uBwfJzdgFBVxx8FwDcFWt3kiNxYbti9wb4yrNnqEWAu9uVYVMZ3Dm5BbszdfCmMY7wmhAKgzxrXrZyT5vTy/Z379qenjUnn2IXiMOjVtGbVtmLVoHo6vKgcW+oMGlgrpwwC58DEq3TWwaAKzAwtydwy7NQg3nMEp2E3j3AWpyT/OsCachOr49x8k/2AGYVPWdbykGZec4yDZAtiUjV+DXRumfwAjmueq7GubLiPFoVGMATcO+995ohxXzqEnCr+L1df3c+Uofd9B89Oc1feUVpKi7Ns0wwCI3eVnsPeMFALX2EFY67KacwXSOWh+u0F0eIcpq7BmAVoGD//ffXPffco7PPPludOnWyfdEZOOOMM/Tkk0/qsssuE/vUdAzHsefqlOcGqf8Sf6XlblOuDe7WR4phwscyJHaM1crCyMRelwYYwEo78N0VFh6oy3cbel8WLiZ/4tG4oUl3xDWNS5btkYkhZq0RKiDcwSJNHzRE47cpQIT7HZc9YQ28JMSBsaxxRaNRwGLAvt729x5AmhkxIvoQ656wnLft7gFi9KT1bU5N1zsz18px81s1z3MV5s/KYKB9+/Y6+uijzZNKVkG3bt1qPtbhp+j4+3vqzXkbyz2puSrdgSfVO5Z336Hq//KCger7xj4BDJSWFamgJEt/Rkar+7Bf1PaqZ+VoV4uccIVBXuOiX9V+7Tqo7RVP6r5BP+qXkBBlFsQqvzhdxaUFJqbR2mJguOHnBqXZokm4ALc2VqC7DR4EMXayCeAJ7IvGfIRlD+cBj8Clg/2M0EfxJMIBj0wKMZcvYQIs9saawMiTBxgRW8ctDOBgAwQQB4cIh0XsbdX3ALwROA/wHAhR1GEoVn/QFvKJCwyk52Vr0JJQdXhwgBxUGaxqnqv03l133aXvvvtO/fr100UXXWSS7o8//rilGr700kuCjF3jcU68SOc8P0BDl4Uop5Cwaq4Bk8Z6llrILdt1GV4wsKsrqv7DwMCOYhWW5Cg2I1FD/gjQYc98I8fhp7lfh7vSoK9xQJOGc/ipOvSJofp0wVpFpW5SdgGljDNNkninEWKqPteW/C4EQ2KlR/ZaLZjeuF7dhQOAAWLgnd5dYYTBpjQUsOrhHpBqB1mRGC+kQIhoF3y1QRDtSEnExVtXj0d97zeaCLDxbxwZoA9/3WIcBbIRCBNADvW2mnuA+wTB86ZRAZbuWpexWPORm/+nLjDAfDl1wxYd//K3Np+5k1544403WtYVZEGyr6ZNm6Y5c+ZYqiGibTWGCMg+OPs2Xf3RNP0cHKHccjCAYJwXDLg3rrxgoJZ+YiAxoJADzivarlVbtqjHuD/luO2Dcu5AA1XgcgGGth3kuPltPTxqgZZEBCk9b6tyCpINjCB+tEN1c5HXcnnN5mMWVUhuxNch1UEiI7/anUamxMR1SQYGiPM2lNu9tt8GdJCihVYAsfrzB/jo0A9W2SuEL8SYiFc3JThxnTPV+GB/H9FrlWlTwF2AkNhUfeM6j+b6Svz+44XRpvUBKdAbVnHeyd1gIFd/bYrVPYN/leOSx9xSIDz44INNW+D666+3kADhVPQGCBfUaEAxd3Y8UB26vaDu367W1u1by8OqedqxkyJT7s0TzXUsNtR5e8FALT3pBANoDRSpoDhLydkJmhcYorN7z1e7Sx+To9Nhbqlr1TqYHW3k2P8gtbnwIZ35wRx977NBMemRysyPMxBitQl2lspZnb6Wk26hH0PwIqUPDQAWV4hQ7jTAAHoLeAZQTWzMBY9ph7AG7HlY4vAA0C1AL4GFF2LgH5syLLUTC3NfAAH6DG/FyBXxpkdAf87wS2kyz4Q798zT9yFMRXYDaZOkFCLi1FSeHU/um13GU0meorcna9AiP7V95Gs59utcq/gQlj/VXKlJwEYWFkDArfoEJ12qM18YpC8WByg9L8bmzOKyfG82QR0GixcMuNFZLrRLal9OYZq2bI/W2FX+OuudH9Tx8secJY3d0N6uFhDw3S5Hq8MlD+m0N6fp66VrFZoUqu3mFUhSQXG2U16zlaQUVndLiM2SlodrGzIhBC7IgbU1WOBTNzjBABoCjWHFwViHy4D8L+laCCeR503+NuJER3+02kh7eAkAC/u64dome4Hc+dM+XWfpZ3gpvM39HiA9FNlmiJdoN0RvJ6+9dVuhzlouZcZvyirYriXhUbrs09/U5p/3y7Ffl9otfJeHtC6v+x+sDje8okdG/aalm8KVnR+vgiJnWBWdgdZsQLk/miUvGHCjtwztlpWaEiHegcz8REWlbtbQpX66/MOpOvCml+U4/p+1phxWCQY6dpLjuPPU6YbnddF7E/XVH+sUnBislJwoZRXEK78ovbxiITHy1j3RcKuYa8lfh7yFaA01F2ojEwIGkAvGM2DhhQZifAEq4CPgbSCHnFxsLH/Ojb9ZbO8YE2SeDPKxqf/gCeQ8+os8erQNSDN8cmqYpRRChsP74m3u9QDDiBQ/Qj4AKoiZCG+15sYc5UzHdnpSt6bFa8if/jr0uXFqe9LFzuqFdVnoa9u3bXs5zrlTF731rUYu81NcxlblFCarqDjHMglaa1i1PmPQCwbc7DW8Awj+oHmdV5SuzIJ4bUnbpBHL/XXvkJ904mN91OGCu+U4+iw5DjhEDmL/uP7/NpjbyMEAPuBgOY4+Ux3O/5eO795L/xo4R0P+8lFESpBScjYpMz9WeaYtkGPEQS/C3X2jWMxg5KOehjgK4jc1NSw4SHqkFq7Ykuk216CqY2L5saAjxoOIDSIwz8+INKU2wAlKfQjPIGLTd0G0rhziZxK2MNA9wSPANYUk5hlxEXU5pHZRQ0RfAPEY+rIu1Q2r6qPW9B6hAcJVqPjdPS7IhKFaO6Da7UnNVVZBqjbGb9E9Y1ep893vyXH8BQ0ECNrI0X4/Kxx3zFOD9d6Py7QhJkJZBYRVybzKV5nXK1CnR9ELBtzsLrwDIF5IfIUluSZqkVUQq/jMKP0cFKhXZ67Qlb2/1/GP9FKnS+5TO2oYAAwOO1mOQ453bvx99Jlqd8pl6nTxvTr+4fd1ea+peuX7pfoxwE8x6SFKzY1URv42Q7eFJZDkCr3CGVXcI3L1qY9AmV8KC9W00AIGKCAEGEBWuD6LHfn4uNbxSqBSB3ms+6RQ3TByo1nY/I+qH6ECtONRk8N9/MSUMK3Zmm1EwSouo0nfcvEZUKyDiIlFm5Tt1Knvv2Sb1V7Aw4FyodcH5f6tgX8B+EMqmBARY6Q1hwtcvAH0WXKLMrQpZZve+mm1Tv5wvva79Q21PcHlRa3KWHJUYUBVeo+wKvyqEy/SEY99oae/+1N/RAYrNdfpFSgoyS43oFon2dr9kbvnnl4wsGd/VPsfA9w5yMtsoBWWZJvlnpUfq+15mxWREqofNwao59w1um7QIv3jrak67unBOuK+93ToHf9n2xH3vatjnx6krm9OUbeBC/X6j6s1099XoYmBSs4OVdouIJBkqYToCpTtcNbl5re9bc8ewMp/fEqYeQhw/1fXRYABijgd+O5Kqy3Awu5OY0JnogcEIKGLN4JCNfAVsKSfnBpuJZaR+kXNjuwGUgSRkWVhQMcdK9xTiGWAIOR7kdR9cUaESf/SD4Q7YjMKTUgHTX9ker38AXdGiHMfnkzuMV6ha4b5m6Qw4aPW2pirqFxYVFasuMwMzfCP0NXDftPtoxfr4s8X6MiH+6j96VfJccChcrTDg1ppsa/uf9Ku23dUmy5HqcNZN+jIJwerx8QVWr45SEnZzrAqXoGiknJxNi+krdMQ9IKBOnUXJT13mKVuQkTFOcotTLPYPimAqbkRis8M0cb4QP0e5qcxq3zU67d1em3OWr06Z60+/HWdvlnlowWhvvKPC1BMRqCSc0KUkhOhtLzNyiiIUW4RaYSZKi4rcMa8dsA49wKBqm4TVdLQHKB6IXFv3LNVdRWkw9kbnWAApT3IfjU1jkEoggkdwIGuO4s/ufhM9n0WbBVERNQBXY07RLoZ+vBUQ6QaHwWXGoOs6PrNurwCbAA194wLNvGmn4LT9vCQABS4Vs4dtUdUCL2jri49LG1NK9B9453FlahqWNVYrNsRm+/eNt5yCjXNN1YXDFiq64b/ocXhQVoYGqznp6/R8f+bpLZXPq02eEsJm2LtW6njyt6CNs73+bzjgWpzzNnqcN2LOuWdOXpj7joFJgQpOTtSmTZ3ppZXKyzyViusx9DxgoE6dpoRZMoBAaWNC0vJFU9XTmGSMvNjlJa7RUnZEYrLDFX09mBFpQYpMsW58ffW7UGKzQhWYlaoUnLCtT0vSpn50SYshORwYSkuLi8QcOe2sFhRohW397n9fUwIBku+cqNIEHFxPAMUsanJUi8o3mGKfIjKoDJ33gAfqzbHAolEMJY+hESOUZGHiF48YQskhl+aFWnVE2sjNlY+z8b8n6yLYcvjdOLHazRyRZwVMqq42PN3YUmZgRk8B4QQAA/e5n4PcL8JRxG6omIjRaVaa0Nka+yqeF01xEd3jF6v1VvjlJgVp6TsaG2MD9Oo5et1+9AFOuL5sXJc/5ocp18nx5Fd5eh8lBz7d3GSsXk96Gg5jjpTjrNuU/vb3tYJ//1OD41erMnrfRSZEqzknEhl5DnDqpC7i0sLVVbmFRqqz1wehx0AACAASURBVLjzgoF69JoLEBiHYIeTVMhAxEuQXZBo5D88BYQPtudGKS13k4UACAPwPwCAzwEPqAtSkTC/OMO4CCVlWJOlhmy9HoHab05xmTPfm3ABpWZx51OMpmLDgqd8MGCASnaVC/5gvVPjHULgh79u1T3jg6z8LYRAiiPxPgVf0Cvg9yovopRW7vnTZvsO1d84h9q8DxXPr7H/dukzUEL3qe/DraxzdbyJqNR8W8hIjUSbwZMATWP3U0Mcn0Ww3+9OTgY8EsJHra3xLMHjoRz2Y5OCtXRTqrIK4Fml2/yYmrNVkSkR+iNio0YtW6PnJizQVb2n6fRXRumIxz5X53t76cC73leX+3rpiB5f6OjnR+ngl8ar+zfzNW7lGi3fHKDNaYRVN+3iV+UbEMCI8gKB+o43Lxiob8/Z95yxMRZvyDLoEAAKUCpEDjO7MEnZhQkWRoDlysbin1OYaOEAKmsVFGeauiD8AMiJZTvKLBThBQLu3xgWacrN4h14c16UtqRRunT39wEDlKwFDEDyw3sAAOB7uMPHr3GmBVItkI20wOEr4k05kFoC1akEsqDCEeA3kfalNCySwzV5HnafVdP8hbsWAaRXZkVa7YFFEek1ki3hPQCc4DsAsLgeb3O/B+hvn23Z+u/sSCNpwr9oTc8y5FOqXgImKWkM+M4vLrGQZ1Fpnhk9OQVJysiPUXJOlDalhmr55kDNCvDXNyvW6vPflunDH5fovVmL7fWzX5fpg/nLdMGAOer9218KTCC0GqHteVvM6CKNkDmU7AGKEhHG9bb69YAXDNSv3/b4lvEIdpbZYDRQUJqv4tJcFRZnGzjA6ndtDFxEhIpLsR7zTLvACQJ2ewNa0+SxR0fW8x8mYJeb/vwBG8yirejiziks068h2w0MIApEYR4WxSHLYvXSzEhTCXxoYogt6qQFrt+WrbTckhrj/XgXghLzLDSAW50QAcDCk4AA3cnkPGxZnBVD6rdomyBT1hbLJqTAhI67G4ADd6ICtqrnXWo9X8MTQ8YJHia4I9HpAP2W3YM8gwlZRRr4V6wRep+fEaGFBrzh8TiNJqoZsmibF7UoRVmFceYhTcuLMr5VbEaouf6DEwIVGB+ooIRAhScHyifGT3eMmat35/8h39gQ8wZgZOUWwhFgLnURrZ2/1XpGWsNeqRcMNFB/4jxm0JPbiqtqx44SUw2EVwBAgBDIxt9IG5ftwAvAgrPbE+AFAfW/GSzCwYm5pvpHrB+iIO8xBRPjn12eTUDqV+8FW/XE1DDdPibQBIIIDfwaut3qw1cOMVR1RngW/ONy1fu3rVZngNAAuebuZilUdczGeI/zBPwggoSlvzWdNFX3FiXqJrwxL8rImWRiEPZw75uNcSXN75ixmYUauhTy3AZbIAGnbnZ9s7tYPGSxGUX6elmcug33Nw0LlDYr8ndcoVWnVkuBeUPzi7cb1wpxNdKpsfadYdVIpeVEKpUtN1LJOZv09LTFenran/olJMzCqgXlYdXi0iLnfLvTS7Te24HjBQN724OVvu8CBVQ7NKGiHWUGEAAJtvF/GQjWOXj3jEBXOpj33zr1AJPSd+sSTSv+owVbFZKUp+ScYq3blmUAYP+3V6jr5+vNSv735DCTMyYnvC5pdAAM//hcyzD45wAfvTpnk5EYPS22jvUflJir//24ybgMgKG6NPoSyw4hnVtHB2pTqleMqC79h6VM/z/zfbi6frbOwGlNWhh1ObYn7cs4iU4vtDoX5/RfL0qMr9qSVaWHzOUhKNtZamXh8RKQoo3XNLcoVTkFicouiLdwKhoulG7PLA+tfrbIV/eOX6Exq8JVUIJXdXdY1WtENcyI8IKBhunHKo/CILXNhIQNJjj/r81PW+XRvG/W1gNYrnlFZTYBkwJILB8CIPF8Sh+3eXOZxTEXhqUbU54Juy4NqzooIc+KJJ33pY96zotSZgEWX92OU5ffrO++ABzCAt2+DlCvX7f+jTTpznHhVEzxSbLaCnhPEHryvCt150r2zT6EklZvzbaU1MenhrY4MSI8HcgxQxYk7RbCLQCIlN/qWvks6EzRLitV6Y5i85jCJwAYFFoYlbAqXIMM4QEgtDpvY7RuGUV6drhyi/Bw7faoVvdb3vfr1gNeMFC3/vLu7cE9gHW+ZXuBxe+7frZeB7+/Umf39zEX+WtzN2m/t1dY6ld6fmm9FnCIeMRCrxjqZ4V9ElkcPXR1hAR4y6iNJjFMOmR9TpPJHoLk2z9t1rF9VmteIJoau7UVPHgoeMSp0eeEqEatjLfaBYP/ijUtCo84uQY4CZ61zxZt0/lf+lj1RrxHrtBcbYff5UGlKDte0x14C4rNY2ChVMKplmJdaO9tTs3WQxM26smpIQpNyjWjqrbf8H5etx7wgoG69Zd3bw/rAYhZhALQ/kcM6F/jgizF8MKBG3RC3zW2IMIHIHZONgGysfUpFgQ58Onvw40hjq5BVBqkpfossY3bgZwR2gsQ1yifTN67OzyI6s4K63ZDTI6uHuZnx1u5NcubblhdZ1XxPmME0NhjSqhu+WajZb20hHRDVDc/+m2rFboiUyUoIdc4M/V5IpzAwAkKAAZ7bHL+X1hSqjfmbtJ93wYJQSdva/ge8IKBhu9T7xGboAdIF4TkhgLh63OjdO/4IN05NlAvz4o09jyphq/McsbLB/4VoyWR6er83kpjeedUUA6s7VSxdFgMqVt/2+hADfgzxjQHPI0jwHXgpWDxRgWRMMnAP/feEmVyJxtjyoYk42IQLqitMFRtfdraPue+LI5I123fBIrqlSad3Uw7gbAn2ThkmVAo7I25UZZ+2jDZEoy2qjfeHbki3p7z/ktimmnvefZpe8GAZ98f79mV9wATKgszkr9/bMqwBR89AFjyD08MMUBACVnKCeMpgMlMjjNZAzeNDDCm8wHvrNCsjal7yAjX1MEQvpi48QjcMCJAA/+MERaRJ3oEuA54An9tyjTpZKw1n5icBjlXOBGkG0JGBBDRz61Ze7+mMVPdZ4ylL/+IsQwWslkYx82tMe4BAqTRAgTIouF5g0TYFI3nGV4CgKoupN+mOLeW8BteMNAS7mILvgYscIhsTELzQ9KEVQBj+V9jgwwIYKGQ+obbvnK8kgVrwtpEXT7Yz6yy9j2Xa2YA+c21x73xPCyNyjBPw4VfbdBXf8YIASJPBQJMyKgkPjktXFcN89MvIdvrFQ6paSit2pploYLHp4YZ0PJE70hN57+vPwtLyrPxRIbGZJ/kKhn3+/ocq/t9ni3On+ftuuEBVpQJQaqmHAPwVzAAACKAcm9r2B7wgoGG7U/v0RqgB7AzcHdj4UPa+8E/xUrDkuJ26WA/8wTAYF63LVsZ+SU1komYNNAWOPSDlZZN8INfignv1HSauUWlxkFAkOiigb4WGuBcPDFrgOugv4hLj1mdoGP7rNGgv2JMAKama6zPZ0z8lDgm9v3qnChLKavPcVrrdxg/EDsfmBBs2g9kpjSNTb13Pc6zGJKYqw9+3WIqn+/8vMUyI5oSCHAFcF/wrlw3IsC4F3t3Vd5vV+4BLxio3CPe//dZDzBZYoHAWCdOP2RpnFmi5/T30SWDfM0qIC2QhdndiQiLGUVBdPnb9VxuZYhrcnEjrgMZEQsbIAADnMnQU7MGuFn02e9h6VZaGTc+aoyNBVxScov1zvwtuvZrfyvVXFMa2T4bSB78w/AviH1fMcTPRJ0IZ3ny2OL5QcyL0MDxfdcYsMZD1ljjq7Zb971vinkF8VB4W8P2gBcMNGx/eo9Wzx5gUSGOiuX07PfhIo+ftED4AKRm4SHILiyz+GRdSfyov41elaBO76xQz5+iFJlatYuRCW5JRLpZbdd87a8RK+IF2dDTrTdEkF6Zvcn6DI7D3mQP1Hb76HvCBRAqrx/hb6Wca/uO9/PdPcDCDwHzvV+26Kwv1tt4r6jUt3vPff8XZEGUNvECnfn5evMMUITIXSDeGFfg4vAQJtyX59EY17avj+kFA/v6DrTi32eywUpfsSXT3H/3fxtiaYFUOyNtibLD5MhDXjM+QD1XZchGyzdnWjbB6Z+u0w9+yX+Lp+/YsdOqE5KOx0SDyx0PhCdbbQyd1Nxik7sFvHzye3S1RZUacpiRmkk5Z8IFPSaHKrOeug0NeU7N6ViANeSy4Q7gYQlNyrdqmJ50DQDjNdFZVuCq29f+6rtgq3mc9vUCjNph34XRVnQLUO+pHB5PupfunosXDLjbU979GqQHWFzJs6bWOwsKKoEPTAjRXeOCTCCHAjm/h283652iOg0x+QAk0Ano8t5KHfbhKsswABy4PAyABQoZkZ54/7fBGr8mUbGZRTVyERqkM/byIPQNhEgqLULqC0vO28sjuvd1MBl1Dgb8EaMLvvSxTI2MghL3vuzdy3oAb9UUn2QBTknXZJHzFOAJEMACf3FmpO4cE6hPF0Xb87qvQgMVh0x+8Q4rRIbncLpvcqN6wSr+bmv42wsGWsNd9oBrZEGmgh6LMO53Ut8gUnWfGKLX5kRZKGBZVKYR31jk6ukEqPJK+W3/OCcYuGFkgC4f4qs+C6K1dXuhKcRR3viecUEGSCasS7SiK54yMVd5QeVvbkxwKiLeO94pLtQQwKmm36v4WXHZTktdfGpamPE54Fm0RO39itfckH9j0UZvL9SrP27SpYN9Nc032TxgDfkb9TkWegHUFkBpE4D+2eJtBjJdwLk+x2zI7/BcLonIMInx//tx0988fA35W63tWF4w0NrueBNeLw8uaXykvJHqRnoeOcJ3jg0yJbG3f94s2P0UFKqLEFBdLwEwAOcAzwA53mgTsICSkTBnY6rxEq4b7m/kQk+WGK543fTrp4u3Wd4/NQhScoorftwkf0P0/CUkzWLfTMyo0DUlIGmSi2zEHyFc4BebY5U20cNYGpVp1SEb8SerPTTgGw8ZugHPTY8wpU3SeHl2PQ0YIzb2QrksOOPe086v2k728A+8YMDDb1BzOz0eTBZf3KDE+6nrjhuUWDz5yYQEkPNdvTXL+AJNsXhQWpiFCjDw7dpE0x4gXkt52fvGB+mqoX5mmaEj35Aeica6d7hrEWC5aeRGc+WSLbGvGpwPYri4bSF6JmY3PzGdfdV3/G5p2Q5L17x8iJ95q9DLaOoxyO/h1YEjQJVFMndQr9zCuTT1ybhxM/AwDlkaq8M/XGUqpGQAedve94AXDOx9H3qPIFmqEZYOZL+AuByNX5NgFvi5X/qYG/SFGZGmk49uPmS9pmyAgeDEPAMD49Yk2N9IGO/39nJR0AhhouaSIod7OS2v2EDVTaM2mmdjX567nU9uif41NlC3jw403XjAoLe53wMIXGHpUl2TrJemVtcjm4EMkaenheukT9bq6+VxBuqa9il1v79MXTQiXYd8sFIT1yWZKJn73/buWV0PeMFAdT3jfd/tHiArgPK2kPBYZCkSRE4yVfOGLYsz8h5Wt3EB9sEMQ6405LqD3l+pkSvjzapAXviAd5YLsDI7IKXZsJIhVQ5ZFmtlhYcvj7N+d/tGNdKOWI94Kq4c6qcXZ0RaOloj/VSLPCyPBN6de8YHGxn0r6iMJrtOng34Ho9NCtWZX6w3qenMWoS8muzkqvkhxhvaB//8aoP+OzvSCnNVs6v37Tr0gBcM1KGzvLvu7gGM+7ziMiPmkQFAHJ7FgHSzN+ZFafbGVJMQxlOAaM++ZCIz4YWn5BsYwHrFDYp+Qc95UZbedcs3gZY90BQhi909WPe/sBiXbc7UGZ+tM+4FPAhPOWdUG/stihYEzY9/j/Zaa3W8vdzbMasSjANCsa2kJgi34FGioudjk0Ot9gZeifS8kn36rLrbbQhrPf9DhM05hAC9be97wAsG9r4PW9URSAuMSi2wUsAQAIm9o3pHrJFUM4iCaJhjwXpKDjDMd/gLcAaO7b3GyvvCZeA9wgYoHLKAma6Ah97Nsp07FZSYayCA88USr08p5sa8PEIxL8yMMJ2GqRuSPeb+N+Y1N+Sxt2wvUK/fttrCjEetYSoBVn2GxNkR+AII3DM+SN+sim8UCeuqf33v36VeCaHI4/qs0e/h6WZw7P1RW/cRvGCgdd9/t66eRR3WLnFFrAcUyfAEQAqkcAipglTLgw/gabXa8UgkZBVZuIKqhYQHZvinKC3XKWkclpRv13D+gA2aH7LdpJDd6pQm3gl1RmK5FE1Cnx2CpqeRu+BmzAlMVfeJobbIwB3xNvd7AC8PGQXPTI8wDxskW7xaDdkYM3A6AALdJ4XqwQkh9kw3tyqKXAPpwsf0Xi3CZV7i6t6PEi8Y2Ps+bJFHwBLF8qRS2MKw7Rq8NNaY6wjcAASoYz5pfZKx9Elz8xQvQMWbwTnFZhQaQfCaYf6iamGvX7faNbn2I9TBBEztAnKrN8TmNPgE7Pqt+r7iQp4XmGaCSA9+F2Kgy1PCA5WvKTm7WEOXxlmmA1kkpB82MV+08ik1q//h1kzbkGyZN4j+sEg31L3mPnA/FoSmm8bH3eODNG5NYrMspwyoIZPl8sG+pllCuqG37V0PeMHA3vVfi/o2NogrLRCX709BqSZx+8C3wZYLjRWB5O2iiAwjrkEc9NSGRwAVQVIJbxu9UZcO8rVCRcPMitgzJx82NxoIEJJIWfIkK4nrCIjLNWEmUjORaPb0xsQMkRRuBqTSpmbHe3r/1HZ+hAs+WRitU/ut1RSfJMvQ2dsnDSDA4rkgbLuVAL5+RICB+aR9oE9R2/W7+3l+yQ4rCX37mEAtjsjwOE+Zu9fhKft5wYCn3Il9eB5MFKQFMllASvtuXaKem+7MNyZ//IkpYTYpISEMGdDTG9dD/J+QBulakAaRLj3w3RUmNJSQtScYYMElBvngd8G27yz/FANFnnCdcC++WLLNLMUPf93SLPofYhra+/T9TaMCTLimod3dnnBvGusc8AQEJeaJGh3UnFhB8am9eO7A7Iwj+DwIfp3df70RfNPzSxvrEprkuISlJvkkiRDfZJ+kfSbY1CQX2wQ/4gUDTdDJnvwTLIRYxsgEv/PzZl022NfS1roNDzAvwIbYbFMHxOW+t9ZJU/UDAiqUP0bIBV4DsVfCBaQWUpIY0ZKq2h+RGSKcgEoioMgT2rzAVFsUqD1QXbVFTzjPyucAsERi9+D3V+qThds8yttS+Vw98X/CV4xHUnQJyVHpsL6toLjM9CgQqUJoa1FEumUC1fd4nvI9QpkoJOLR67Mw2jyBnnJuzfE8vGCgOd61BjhnUsFIyRm7OkEPfxdi2gBUUENWlgJCgQm55ikgbABgaA6NswTYfL44RlcP8zdZ1eWbs8xNDQBgYSINsjowwASMtO8NIzeaqh7H2pcN7XqqAlI3YaZ/isdVtqupbwCPFN8hD5zsh9kBqR5LzqzpOvbVZ3i3sObxBl080FejVibUq3ZBXlGZWc13jAnU7WM2ijochG2aySNda/cXleyw7JVnp4cbwbnWL3h3qLYHvGCg2q5peR/gqiU/9+fgNJMIhgyItfDIxFB9sXibTRTUCcCqIx2vOTUWHzIEqLCGa/V/szdZhgNeAiY+2MaAga/+rJkTAFfCqrWNDdIP/in7pHIhPY8L9OOF0RYeIHuAOvLNrZn2flyOXQOghkJU3Cdvc68HAOHhyXlG9qOo17ygtDqRW6n3QfodBYcemRhi0uAAjJbUeLbf+XmLpUdO90tpSZfW5NfiBQNN3uVN+4NMvsQGKeFLad7Xy9MCYaW/MnuTxdAXR6RbBTUshubiBajYi8RYqUDYf8k2EyH534+bLEPAlYfP8gOHADDAwgqxsLqGJ2RWQKplTPx7SpgiUurvnq3uN2p7n0WUe3L1MD9xLetjspvlIkq/cy14n/A6kcmxL/qztv725M8Z2/BdIMmRxutO+Aq8lVNYZhoaAAGKIM0KSGmxQlBkX9w8aqM92zy/3la/HvCCgfr1m0d/C7SMe5C0QBYVBExQNSN+bmmB86KMZe8Tk2MThCdnBdTW0Xg7WGCw+K8Y4mfpgeghVC6nm5oLGFglKrHFZlQPBvg9wggcD/Y+JVzzS5rOrcr1bEotsDx9JrifgtM8TlyotntS8XMAAV4ZFrJ/jQ3SmNUJ3nBBxQ5y42/G7ke/bdWdYwJt/Gbkl1T7LcA/GhQT1yeZVgGAlsqcEGRbaiPcydjCG4jWibfVrwe8YKB+/eaR32IhwcWPq59QAAvZv6eEGqsbC4G8b+RHCRW0hEpfBgSS863CGpYn14rlVBXz2sDAB6usYiLXX1MDTAGUXpoZqcuG+GrllswmEVPid6nx8M3KeJ308VrTdvCkNMea+qy2z/6KyhTeKMIFZBp4wwW19dien6+LzhZxcRY90jWr6j/eQ2ALSxlpcMKAZBCgLdCSG4YPpN/uE0O0JLLp6jq0tD71goFmfkdx67P4GQhIzDPy3yuzIs0te+lgXz06OdRS7JAIptoXC05LaEx8eD4APFcN8zdX6KaU/ConSa6XGgmHfrDK9t9WCxhgf/qKnGyyK+BU8FsNJf5SXf8TpsGTc8VQP907PkibUqu/nuqO4anvA9wocYy3g/GZmL1neqennrennBfSxD/4pVi44JFJoYrPLNpDzAlmPX06ZUOyZdGgtEkdCxbK1tBIv0VWmTHmbfXrAS8YqF+/7fNvsaYDBDILSrQ2Okuf/r7N3OTH9lmjywb76YNft9hkUJNLcZ9fxF6cABPfe/O3WFrRsz+EC6GWmhpg4IgPV+vTRdvcdiVipQ9fHm/VDalhkJLbuAsYYj0slKd/ulbrtmVX6eGo6Ro9/TNIkIzLSwb7CvGn5shP2Zd9jPsfJdCzvlhv2hPwMVwNY4AxeuFAXxMIo6pfa4qfEwoBQCN21dQl0l33oLm/esFAM7yDPOTEyb9bl6Qnp4Xp4kG+tlEsCIlgFpW03H1fLbAxuhYQhCv0tTmbDPz0/GmzhUVqK+rCZHnkR6vV7/doS3lz59zwBBC/v3t8sK4a6mcqZ401wabklpg2Avfys0XbWlT6l6uv8eagZ/H09+HmzYHUisfA29zrAfrPLy5Hr8yOtHLDK7Zk2jghBIZyJqEy0oQhnDJOW1PPkgXEuCIUFZtZcxjQvd5ufXt5wUAV95xFgBxzWOdYnJvT8oVrGevSHrKdO5s85YxzQjqUmFjfhdGWboTCG3EyUtBIO6IKHyAAPkBLCQdUvD0s+BCE0EJAHIgKb/5x7llAgIGje6+26oRb60Ayyi9GTS/TwBa/S3GUhm7cW9je944PtoqKVIVsifePfiO17Qe/ZHUb7gztJGQXCxe3t7nXA2TILAxPN04Azz7pmoDHW0ZtNF0N/ifE1doaaZTMBzeVk24B19E2dxfYHJ6QXSS0VfBGNWfCdGPeVy8YKO9dHiDiwsSJRyyPVa+fw/XipPV6auwK257/bq3emh2kr/6ItslsY3yOAQbQemM1Zxig1LTpsfhxgZFvzKIBuQ1rgCJCLB7OfPrGO5fGukZ3j4tLFPSPRwByVO8F0fKLy7XUNXeOARg4ts9qA1KkIbrbuL3EXfssiDb365BlsUbyc/f77uwHwEDbAJLn7I0pjc5NcOecGmsf1v2t2wssDazrZ+v1zaoEYdl6m3s9QP9hFAxfEafTP12nBycE64aRAZYthGJha6wDwTPKGOqzYKuQT79//Ea9MWOjnh2/Wk+OWaGnx63U/6ZuUJ9fIjRmVbyV/4Zz4TSaWu6c6d6I2r1XqwYDDAPEXWDfT/NJ0Nsz/HTnpz/qnOeH6NgHPlCXG1/SAdc8rQOufkqdr39eR971lk5/sr+ueXeS/jN+pYYvjdbKzRnanlfcoHEqCIEw3mFdD18Rb7nmFAmCHUze+ejVCVoTnW1lhbEqW3oDqOFShiNAdUHizmi318VlDxhA2pVFvTZ+QVX9ye9B3MIac4q/NIz1RZU6eAykjVEECs9OS29MwhRfYkzj3VoSkf63VNCW3gd7c30U6CF99oS+a9T5vRWi3gBjsrUBAYAR3tolERkatHiTbvtyoQ59cqQOuq+vDr/zDR3Y7Vmbuztd+7QOufW/Ov6hj3TByyN0d/+f1WtOkGb5JykqNb9JMoX25n431XdbLRhgEWXi/WtTht78wU8XvTVZB931ntqcf48cx54nx0HHyrH/QXJ0OMC57ddZjs5HynFkVznOuF7tr3tZJz07XD1GLtXUtTGKSs1TYUn9mbu4wFkYwlPyLf1vwJ8xempauBXOQR/g3Z+3WK14rFqs5JYPAZyPAEDAJyZbH/6yRVcM8dWb86K0eXtBnWPNgIETP16j3r/tWcLY3QcNLw3FUJB1RWIXZbi9bbjHSf3imJRP5jpbS8Pd/Utwms4f4KOe8zYbz6UxvWwtpV9RBo1KKzB+yVmfrxeEYUSFKMPdWvqPuQ+DCd7U+FUxumfgQp3w1CB1vOY5OU6/Vo7DT5XjwCPk6Higc+7u2EmOAw6R45AT5DjhQrW96EF1ube3Ln9/hvr+FKTlUelm0LX28EGrBAM8NJDQpvvEq1v/JTrg3r5ynH6NHJ0Ok6NNOzkcjpq3Nm3kaL+/AYO23V7RuW9N18fzQxUYD3EHgRr3lmoWGAY1oCQ4IVdUy3tjXpS5/Uhpe3hiiAkGYRW71PRayqTmznVg+XPtkAQRFOr5U5S5A+sTY96eX2IFmIgrEg6qT0vPK3HGJUc61c6oZVDfxr1H3OiRSSEGBqg9UFLWMN6G+p5TU36PJ4Twywe/bNElA301Ynm8ebqa8hya229BtiQkSBEu6j08PiXM8uupwwFvICm7ZjGt5na9VZ0v4wYPiF9MlnrOCtJxr0xS+8v/7TTSMNxqm7v5vE1bOQ48XI6zbtUh3fvrweFLNds/wenhdXPururcmvt7rQ4MsFAn5xRp/OpYndRznhyXPOocGAwQdwZS5X067C9H1xt0xBND9eL3QYpMyVXZDgh81QMCPgKQIAayISZbg/6K0W2jN+qkT9bqvAE+em1ulJGEaZccdgAAIABJREFUUnKKWw3ar/wgEf2AI/D8DxG6aKCv3v9li2kpVN7P3f8BA9SHR3iJCbW+bX1MjrGWrxvuLC1b/V2u+RfgeKByeObn6zV0WazJJdf8jZb3Kc8BKaJ3jQ0yQDQnMLXVjvfa7i59tTW9wESz8Ag8NjnUQomEE6loefM3G63MeEv3DgCY12/L0hMTNqjtg4PkOP4COZiDK8/L7v5/6Elqd93LuvKT3zRxfbwKiktt7q5p/q7tXjXXz1sVGOAGp+cV65sVsTqr5wy1u/B+OXAh1RcIMODKvQRtT7lCx/Tor2enBSk2M09lO6r2EDCYkcOdGZBiqJ6ca0pwPjYp1DTcUdDDpU0oAOuxtTbypFEUxOr5fLGzBO7e9AdyrKd9us5ABemC9W14ctCKv2lUgB6dFGLlnetK2yD0QVnlMz5brxdmRFhGxN5cW32vxRO+x+L1U1CascBRkSMt1tv+3gOEBj74datpiEA2hfdCqJP++y10u5GKu08Kcat2wd+P3jzeYf7muXnq2/U68IHP5DjsZDnad3TOwe4u/pX3a9tOjoOO0f5XPqHLP/5NU3wSVFZWqh21GHTNo8fqdpatCgyU7tihGf7JuuHjuep4eQ85Oh1af0RZeVB1PFDtT79Gpz43TB/9FqXcwsJdgICHFrYrOdYsbGQDUFnv3m+Dze3848ZUKyeMqEhryw+uPFyNXBafa+5zyGWUHG4I9T/AQNfP9h4MAM9Ib/zqzxiLd8PqJq3J3caiD98AFy+laX8P95LnuDf9FkWblj4Ez6w69Ke7/d6c9yM2TqiM54FXyoszp7gaXCNCB6g78nnLDCmiOJqv9+YE66geA+Q45hw52rVvmPkbQHDICep87VO6YdAKBcRlqKC4RDt3tp6wHWOp1YABUGVAfI6e+XatDr7jTSeZpPKCvrf/H3CI9jv/Tl3Qa75+D0tSQla+ghNyNM03WW//vNkEMXCJPjc9wlzEaIxDGCRc0NLde66Jq6ZXXOewpJFQvn5EgFVUjEzN32Piq+n7NX3GgoNLnowEjrk3jQwUFAKfmhYmJJ+xVtxlclNr4OvlcTrrcx9LDUXlsBU7gOw2cP2kV6K+ePvoQJPdba2ekorjkj4IS843HtGt32zUe79s0YYqhJroP7JdmGMQHprqm9wgz0zFc9mXf+/UThWWlumblbG68I0JanPWLXK069gwQMA157dtrzZH/UOH3f+RXpwRopiMHJWWOUMG+/Lam/K3Ww0YwCsw8M8Ynf3iCDlOuXLvQgOuAVT5lZDBIcer062vq8dEf326aJNenROuhycGGxCgqtaIFfFasSXLYqVYwd7m7AFEnkilhCOAnDKWjssV2hB9RBlnZFzf+Xlzg5TRzSgoteyOs/uv1xtzo+yYtREbIRxShRA9AapH4vHwKvA57y5hMTxk9MsjE0MUlpzXqsNkeAgRESPTAo8A6bQbYqpXbKT/FoSl66GJIVbMiHTpljK/AAYCE3L0yKjlOuC6550cr8pzb0P837GT2p12pY55/UfND4pVZn6BdlQT7m2IOcnTjtEqwACDKTajQPeNWqsDrn7SmWZSxeBp27atOnToYFsbFvYq9mnXrp32228/sW9Vnzva76e2x1+gQ16dpwsHLNddY33Vc16kFRAKTyan1QsAKj8EuIUXR2To5ZmRJvs78M9YJWY1LHkSMAAD++2fNps3pvI51PV/rDFK88KGJz3uu3WJNdYuwMojMwJyKCEi0uq8QGDPXifDB6/JVcP8TByKe9YaPQToCKCsiRfrkkFO8uzGhNxax0tyTrGVJr9gwAb1XrBVeKFaQv8Rvx++IlbnvjxCjpMvr3rerTRXM3937NhR+++//66Nebt9+1pCC2SU3fyW/m/6BkUkZ6q0rEQ7dpLKvTsss+eobTn/tQ4wsHOnZgck6/w3Jstx6tXVDqbDDjtM5513nv75z3/qkEMO+dt+nTt3VteuXXXppZfqiCOOUHWAwbH/wXLc85luGbZUczbGKTUnX2VlVRMKW85Qqt+VEBoACEAegyxILJ6Uswoh0foduNK3WFhQJ3sLMJC8d2EC16FZzFHTw3LDoqXiYHXWGOIoaEcQ/uj169Y6CSa5fq81vBIPx4OGF4f+bJnx7+rvJMYC9QfInvnH5+tNX4TsF3fCiABU9kU2+9R+64yYifxzc24swjlFxeo+IUBdrv+PHJ2P+Nu8XJVRhlF30UUX6aqrrtq1XXjhhTruuONq/n77/eQ46WKd9cHP+iMiQYUlBdqxs8wLBprzIHKdO4MJZv/rcyN17D095Tj8lGoHw+23364pU6Zo3rx5euCBB/6235VXXqkRI0bo999/1z333GMehKoGoqW6nHe3/jVkkdZEJ6ukFDJh64o/ufq/pldIUOj+o6eAxPCwZXGiFkBjNEhWWExoFRCHbaiG5TXdL9nSH7HkqkpbZB/S5qhF/+ikUFM9a6jfb2nHgY8BbwRyJcp6ZJVUJMu1tOuteD2lZTvkF5uj1+duKgcCm414XBfrnv4LSsjVuV/6CLEyKpq6AyQqnocn/V22ExnybF3y8QJL4XY4qvbYVpyHMdIw1n755RctXrzYXpnTR48erYceeuhv83rF79rx23VQ2x6j9d3qCG3Py1ZZGWRCr2fAk8ZFvc4FF09JWbHuGBOgzpc/XG2IgAHx2GOPac6cOfLx8dGkSZP2WOxxMb3yyivasGGDgYGnn37a3FB7DqRysSJYrkefpa7vzNbCsBgVlTKhtY4B5e5N4uHC8kN976aRAZZWiRXTWI8cYAApY+L7oUkNBwa4XgqgvDpnkxXfoeRxZZlkuA//nhpmi9usAG8ufU1jhPtPau2UDck66qPV+mzxNrerTNZ0XE//jOeBaoOkmhIa6LMwut4iOHjbvvdNNkDRd2H9Rbb2dZ/RJyVlpZrln6gz/ztWjhMvrmUhd86/gIFjjjlGISEheuutt3Tttdfq/PPP1z/+8Q8DCVXO2RXDDISIb++lPnPXKSIlVcWlha3CO9DiwwSlZWXKKsjXeZ+vUruu3WpMR+nRo4ehx7lz52rBggXmZsLdxOAhfPDxxx8bEJg8ebKeeeaZ6sEAg2m/zur07Hea7hul3KJMlZQRv2sdsafaJpGCkjItDEvXbd8EGpmOeDvx94YODVQ8D8AA5YEp9hSatPdSwhWPjdHARI6aICVUSRd0NcIGpMsRHvhiSYxXZc/VMTW8YsnGZRZa6IjS0XheIJi21Mait2pLlihBTnog6cfR6SxA9YPGfA9A9dKsSFMznbAusVnWfiC1r6ikWF8s2awTH+kjx1Fd3QYDxx57rMLDw/Xkk0+KvzHm4BDA+aoVDAAMrnhKz4xZpLXRCSoqzXd6dhvNVPGMkd2iwQAPWXFpqeIysnR6r8VynHRJjQMBMDBkyBANHTpU48aN04cffih4AiBNFv8vvvhC/fv319ixY2sGAwymNm3V5tFRGr8qVOl521Vc2rqYqdUN74z8EmPU3/pNoO4ZF2R6/8jy1nfiq+53Kr8PGCAN8LU5UVaYqvLne/s/qYXj1yTq7nFB+u/sTVb+Gvc2gjDdhgfo/36Mkk9MTqNf595eh6d8H3EuXNwsjk9OC9dfm1qm9j7AZ8XmTKtDQhgJXsmm1Py9HifACFJe0TT595QwLYpIb1YprMzdEAcLi4vU86dwHXPX63IcelKN87drkWe+doEBwrp4dAEF1113nc3nrv1qfD3/Xj0w6Cf9FRmrwpIcle4gBbh+4MxTnqnazqNFgwEs8aLSEm3dnqFTP1ggx4kX1TiYAAODBg3S22+/rZdffll//PGHTj75ZBtYX375pT766CMLJbgFBgAED3+t0csDlZqbouJSVAlbL2+Axyglt1izN6ZaGWYm+akbki3FsjE9Aq4HgFTAy4f4mTuftKvGaKQKIndMTXVY8UzqVDok9j03MK1ZWmeN0U/uHJPxQriFqp2Mlb2VkXbnN5t6HwDkyi1ZenJqmG4fE2gCWwgMNRQwhow4amW8jb83523WlnrW5GjqfuH3XFyv/OIC/d+cMB11x3/d1oapCAamTZumfv366f333zce2MEHH1zjGrALIJx7p+4eMEeLw6NVUJy1y7O7L/qiqX6zRYMB3EzFpcWKz8zQ6R8tkeOkS1UTAcUFBp599lldc8018vX11V133aUHH3xQw4cPFzyBG264wW3PgOPRURr6Z4Ci0+OVU5ht3IXWpmrlfLBl2vtIMCModOOojZq2IVkU/mkqsA0YgKQI05qaB43RsPLQSqCKHOlxlCT+x2frTTMhNrPlF5FpjD5Fe5+y3WgzjFmd0GIAFWGPZVGZenpauK4Z5q/BS51Kmw0FBFz3gmwXMmgAGwCD/L2orOo6ZlO8usBAXjHqi2FOz8BhdfcM9O3bV3fffbe6deums88+29IMdy34FXkClf++4D49MHie/ojYqvyiDOMNmMR8Cw4VtHgwAHkwMz9T538BZ+A6Odo5OQBVDQgXGOD1pJNO0oQJEyxkQIYBg4qUQkBCrZ4B4wx0UdsnJ+iVmWv1g1+o/toUp8D4DG3dnm8LI7n15BOTntZUC2JTPMSVfwMLj/jlD34p6j4xxKw8FBmbWnYZcuLVw/zMhY9aW2M1fmfi+iSd8PEaHdV7tYUNghJzVZsgUWOdT0s47pLIDMs4gY+xcktmg1nO+6JveB4AApROR4n03P4++npZnOIbSRMA1zb912MKHqpAU85sDvMNXl0UAPOK8/TFkkid9GhfOY76h1tWfUXPAHM5KeNVzfc1vnflM3p27AKt3gIYIGWY9M6WnWLY4sEAsZ6CkizdOcZPna/oXmM9gopg4KCDDrI0lMDAQEVFRek///mPcDEBBsaMGVMzZwDAccw56vLyFHX99Fdd9NVCXT1she4e56f/mx1hVermBaZZTA9XMnULyKfGrUdqELFmLAQmjubeUN2D2UzWwC3fbBSlevdFqhOLNGI/r8yOVFBC44EB7hsKkzeMCFCnd1do4F+xQnLY2+rfAwDH0asTjIQJ2z6joKTZPhs8439EOr1HpP+NWhFvtRga81mHsDvJJ0lXDfPXs9PDy4trNeYv1v9eu77pAgP5xXma6b9VZ/6PbIKaOV+uxd0FBsLCwvTcc8/plFNOsbm7S5cuRiR07VftK8bcnb310ZwVCk2MVl4RnC9IhJQs9+x+c/VffV5bDRh4fW6wjr33LTkOP7ValEhq4cCBA40XAOsUgQrSDH/99Vddf/31RiS8+uqrLeOgxtRC6mpfcJ9uHPCzRiz318T1weq7MERPTA1Ut+F+OudLH5308VqrWnfZED/dPyHYCoyMXZ1gFgNsd8oXm/XcHGB8NSOvtGynJq9PMr10yIJzA1PtmqrZvVHfBgxcNzzAVA4RtmmsBi8CvsBhH67SiR+vMSEllAf3BQBqrGvcF8fdllFo6XYXfLXBwgXNsT855wVh2y3j5PIhvpZOy0Ld2I84y1f09gJ9tijaynhP9knyeDEnAwM7SlVYkqeAuHhd/MlvcvzjphrDvK7FHTBAamFwcLCWLl2qWbNmaerUqeblJeTr2q/q1zZW96Dt42M1fqW/ErNilWeeAScYaBkmWtVPcKsAA7BBZ/pv1nk9J8tx2jXVDoZTTz1Vl112mU477TTbh1QUhIjwBiBiweA56qijBCA444wzqpckPuAQOe77Un1+Xim/2E2Kz4xXTPp2RaVmm8b2X1GZIt+cOgUojRFjpkALliu6/LzeMz7Ico77LdpmhY4gGkWmFojKhqSrNfYEUvVwce9dzo3c+2/XJppr/t+Tw/RzUJpYkPdV47ex1l+aGdloZXIBP+jrwwrHEzJpfZJO67dOH/22VXtTNnlf9Zkn/S7hNDwuT04LEwspRccAy82lMTbmBaXpgQkhunNMkGWeoErZVHYmHkeyM6j7cMEAH/nEZIty3J7aWHSpC1BUkq/tual6ZIKPDrrxBTm6HF3t/F1xcUeG+P7779ejjz6q7t276+GHH9a//vUvnXvuuTV/v8P+cpxyhc7pNVcLQ0OVkR/n5Qx46iCpy3k50WWJikpytTk1Qfd9s0Kdrn1aDvSnKxNGHA5zIR144IG7XEkgTFxLnTp12pWfiu4A6YbkrVZ1DNQH2510sY556yfND9qopKxo5RZiEeeZ8BAFk3AVsjihxQ57mAcTAR7yqRGtgXiGiA0pQZQ5hjxFyhoxU9ykyNmOXBlvcqPkt0MSYmLhgd/XIIHfRyN93JoEXTXU34DO/OA04w001cRX1Rihv28auVEvzoxotJrveABenhWp20YHmuJgYnaxSeteN9zfPCT7EgxV1SfN7T3SQwkzkSL6/IyIvcrFb6prZ8wDZACJ93/rLFgGSObZb+rnITO/VIQnT/9snV6bs8lkuRuasNhQ/WpgYGeZEfewzL9eFq7z/jtCjlOvqnrerTSfM3cjKY8Rd+SRR9oGd4D5vcp5277fxlkE6bb39X/TlykgLlLZBQnebIKGuqn78jgMKNL5iPdkF6ZqwB8hOvuV4U7vQBs3xScqDbLqB5JTW8Bx6Ik68M639NSUVQpKCFdmfqzyiTmV1SxcAU8A5TDczCjWkZOOMA9KbFTw6/XbVmPCE/MD3aOF/9jkUIsBwpDvvSDa0rBm+KdYTjaMeQqVEF+tTi+/oe8NEwvsb8IdN47cqO4TQy3PnvLB+7qxEN8yaqMtIgHxDR8mgCT52aJtZvV9/Hu0uGbcwmujs81L8PT34ZZp0Bzd2/v63rl+H6C5Lb1Q/RZF64xP12n8mgQDnq7PPe2V86U8OR6Be8YH68EJIVbQiueyqYEAfcPzCUAlTROVQ55TT+azYMyVlBYpvzhLG2K26ZFRS9Tpxpfk6HJUDQt6uQpsXeZt1777dVb7M67VcT1/1Gw/P8VmbFFOYbIKi7NVWlZsonGeNsYa8nxadJgAsgdFJpCTzC9O1/pt0Xp6wlIdetfbchxGjYLada5rXPxdg8j1euBh2u/Ce/TPPvP0U1CA4jKjypElCoT1k7TEvQj7GGEeyrr+FZVhhDxSkdDCp+Qvevd4DdAif3hiiP4zPcLSiT5dtM08CFhTkJZ843KsbC6We04h/YIiYsM0JhpU00j/wk2OFYTQSY6HKMcxKVMTnoJIVIRryMYCDx8C7w33g5rzroZ4zvDlcUaepAwtXhxvq38PMGYp7XvH6EDrb9QeIal6WkM7g5AelvgdY5xhI2L1KG3uy4aXIjIlX3eNDbLsHkSx8FR6YiMNu7QUAniO0vOSNGJ5iC7qOV5tz71Tjvb7NywgaNdBbY45W4c91FcvzVyr0MQwpefFKLcoTUUleVa90Cs65ImjpA7nZAOqjAGVraz8JE3dEKYb+83Uflc/5XYFLLcAwX5d1P7MG3T6i8PU69f1issMU3p+tHKLUpwKVmUNq2CFJ4EFDmKVf1yOfg3dbnnE787fIqxQFqYbRgZYnBy3NZ4E8rXReh+7JkFzAtO0fHOmFTXBEwFA4HhMDBy7LuEGgEBsZqEBD9KXAAKADxZCT2lcG7nWz00Pt6pwDXVe9JPVHpgSpnvGBVsKZeXrpm/IYqBvxq9N9NjJt6H6pLGPwxhlkUVe+u2fNwtCKGPQU5oLCAAQ7xsfpMuG+OoH/xQL5XnCObKofb8h2Yi9aBDgRfSg7qvQRTtVVlZqvAEY/SGJ0eo5e40O//cAOY6/oMY0cbfmbJcR17a92hx2srpc/5xuGPKH1mwNVGJ2lLIK4pVfjMZAeVqhZ3ZShf7auz9buGfApWRVavrSDKjYjBh9vWyjznl3utpf+qgc+3WRo+1ehAxIQ+lwgNriXnpygJ6ZtlqhScFKy9ukrMKKg6lp1AfJZ8cljgW6LjpbswNS9cWSbRZOgKTIBHr2Fz46f8AGmwxYuN+YF6WRK+LNnYmEKZaDCxxgdUHUAiAw4Vaecnk+sICoOIj+PqADMRVPQ9GAAZQACbNQIrYhGtcOCYv+vWiQrynIkQVSVcOChTz2wIRgBcTleOjkW9WZe957jEEAFwuZq9olfAJPaIwJnj8IwnjILh/sq/khaVaW2xPOz3UOiA/RfzyzpL96aqloV6igoDhbmQWJ+t4vWN0GLlD7+z+X48gznB4C5mDXwl7X17bt5TjkeB1w7TO64tOf9d06P6XmhiujoNyQK86xEIGnzWeu+9iQry0eDNBZNqDwDhRnK6cwSVvStmj0Sn+d+u5cOa58To6DjpGDQVHXgcT+HQ+U4+zbddQzw/XC9yvlF4f8cIQy8qOVU7jbK4DOdlMOKCYlLBTAAQs57tW03GIjDbFY47Ls9esWCyvAzj7903U6rs8anfbpOl0+2M8WLbwMCOjgQYDoSFy8otXLpAxYoAAPFQEfnxpm2glNIS9c14cAkSeImHhNIPo1RCss3aENMdnq+tk6vTgj0sIPlcGS63cADZA+rx7mb8JHzYkJ77oGT3vdur1Q908IMU7GjxtTmvT5qq4vSBWc4pOkG0cGWE2KBWHpHuW1qHjeeAQIMeI5BLB4YqvI+4pKTdDHC9fqggHzdXqf+Wr/2Ag5Tr5Mjo6d6jd3EyY+4gy1v/l1XfXZTxq/ZoMSsqgls1lZhQnlWQStwyvAvW8VYIBF2EUkRE0qMz9ekcmbNGmdr2786jcd+PDnanPmTU5iijugoE1bJwg49ly1u/l1XfDeVH3083Kt2hqgxCxiTVuVVcBgynTKWJY1jVegtoeZ2DYZB2iiYylDVoTwx6RAuuPsgBSLb+N6fWxSqJUWvmKIny78ytcWMbQCXpwZqc+XbNMP/skGEnov2GpAABY9qV+eGn8EDFC05alpYXvE9Gvrs+o+py+pRfDAd8GijxaGba8xdg04C0/Jt1RSvDM/+CWruKw66FDdr3rfr9gDxL9nBaToX2MDzePT0NUoK/6WO3/zXBGCQ1zr/9k7CzC5qqQNdxKcwGKL2+K+uIfFF1h8IWxwgsOPBSdAjCTElYS4QNxdID7JuLu7uzv1P2/1dDIMI90z3TPdPffk6acnLbfvPefcU9+p+uorODzrQp27HgWAFDVQQDLpzZAznbGxmUvILZZvNoTIvVN2yHvLd8vKgED5dMU+OeeDBXL4Hf3FdMaV5jXZmg0dnmA2gFc/Jic9P0b+O3WT/OrjI7E5oZJbGiOFFWgL5Ha70vPdAgwwwdmZwwitqinRgS4oT5H43GjZFBYsHy/dKTd8OVdOeHKg9Lz+WbPSFRWySEE86jjz4+gTxXT8mWI6/UrpcfmDcsR9H8k/3pos/aZtkJkenuKbEiRpRRGSB6qsSFPVKgvxpLO9Arbe0HgOWMhwtUJUxAvgm1wivzWkO6KHQLojWQtkMOD+JFuA8rLnDfFUgR1eG70jWTaE5enOGzIhx2PBdgaTBxiAYEmeOpkaHW2khhEaOWewp+pFaKpYGxeKdwBS5dNzQ9VgEI4BnBmt/T1AOAseDOTQQZtRi+t8MiFAj9+d5pEuVONkjpFBQD0MZ29kNuDZQ5Br6NZEc3qyE500fZtUUCFfro+W+3/ykgFrAmRffJykFsSLb3K4/LTHWx4ft1rO6z9Ojrz7HTFdep+YTr3UrEdw9PHmMPBRx5v5YQjOnX+L9Lypn5z4zBC57dtf5NvVO2VTmJ/EKBCIloLyJCmtzFKOWU091VTdW4K48VB3GzCAd6C+HuNUKZU1xVJWlaNpf9klseKZFCZzPP1kwNId8sjIRXLVu+PkzL4D5YQH35fe97whve9+XY6//x057cnP5eL+I6XPN7Ok/5xNMm7HAdka6S/ROSGSVRLZAARSFWxU1pRqWgzCGZ0ZHmg8uB35m5uQTAayAYiDx+aS7lisxv77zYly1Y++csLXHmpgUVCEewBfALfjy79GyjsrouXbTYmqxke6467YQi0dDNjAK6EkxY6coI3fBQwQr2cH1FEwQAoooIcdINkbGHVAjzUN4zXHM0OuGOmjxkvTzKz7qjWH73afYZ4ynu+viNFqkauCcjr1fsNDBGdmuke61t0gDLU2JFdTS11hMDh/r6RiDV1RMAm9E8JfztC4p/BWfLMpXu6ZGiCfromUfXGZUliRJyWVGeqBjcuJlPWhQTJy6355afo6uf3LGXLBKz/I3x//VI679y059l+vy3H3vCEnPfKhnPO/7+XaDybJY6OXylerd8kCbx/xSwmS1IJw9QgABEglrKjGo1shdX/Uko/m1hLEjce5W4EBMgsIF1gAQWlVjhRVpEpeWbykF5FyFiqrggNk/C4f+XKth7y5YLu8PGuTvDRzk/Sft1U+Xr5bhm/zkvnevuIRHyCJecGSWRIuOaXRkl+eIMXqESAVpURLXrpbyWJuTkIK5HlTle+1xVG6eLDbpQrhuJ0p8tX6eHlzabQWRgEcABQo40vKHYSloVsPpTtSQAUyH2x8QhaQmKw1qo0nsTV/k57J+cBr8O6AZwASJZwDRFsgr22JzLdJyQ0OB2qE762IkX+O9tXSxoYYkTUj2PJnKqrrNLWTMBBjzHxy1DxqfBYYUsAcIkKohuI12xiWpx6xxp9z9r+57/BkIMpFeDA6x3pw66hrg+NE3ZZh2xLllgn+8vHqGPFMKJCyqkoVcKuoLlD+V0FZkuSUxkhsDsXggnRTN3Srl3y4dLe8OnuLvDhjk7w8a7O8++vv8s16D5m8x0fWhvhJaEawpBWFSo5u4mKlsDy5AQgUSXVNuaYSEp5w51oETceu24ABLhyHNUiv/o8GQFBNyCBPtQBAhbmlscokzSwOl6T8UJ0wAalB4p8aJMHpQRKbEyxphXgBwiQbEFASpd6AAp1ImaplUFVr9ghohSu2LW7S2Mmjc4BL9p6fAjVGS743r1saNzChgYT8StU0YIeEoqIl3RHhFWrTI/6DXC/ljDGqw0l33J+uKm2QG0kVIx6f2STd0fI77XkGDCCC1G9hhHgnFbfnEPodzgn2dZ/JASozzDUf6gHrDgvRa84kAAAgAElEQVSvwjOpWDM7AFTszDrDeFl3dq75KTxOzLWrR/nIyN+TNRum0dS0+0UBBODbAARQmCRThXRa9DtcsQFqxu9K0ZopZBYhTtRVyxf3FKFKwo5UdURCHKGwqpo6lSgm3IuQXGV1oZRWZquHlw1dbmm0ZJdESFpRmMTkhEhQWpDu/FnDwzODJSk/RLKKQ3X9BgSQ8WXmd6UKG8OK6iKprquQuroaDSt3JyDAnO1WYMBykwII1ENQC4egTN1CTCpi/YAC88SKkdzSKM0MINXk0CNa8spi9TOgUr6jE6mGiQSirJa6OtcMDVj6p+kzCx+7LVQQ2QEhiQwwsLaRgUAmQmxOhWYbQJ7Du/Dq4kgFBdRjYBFHFY36ARjtz9fFyzQPc7qjR0KRZkEg2IKyH2564u8YUGvzywEDhDDYvWF829P4PWRl2YFyjvG57RcQonw1nIOrfvTRRU/DBe05KeM72gMYLgiEeKAoArY9qkDniSO6hzkHR4RKitwP/54epKRU5qSrNq6JUCDZGcg9d5WYE5sLPGc//p4sV//oIy/9EqkbAzNYRv+EcC/rd43U1FZIpW7ocqW4IkNBQX5ZouSVxiowMK/fjdbuEtbzGMkti5WCskQprEhVb0BZNd49NnGVahc4fncDAszbbgkGuPCDk6oOuWJ4BCVSpq6nHCmuzFQjX1SRIuz6eRRWWB4p+l5JVaaUVuZq+olOpLoq80SCcNJVkNoBKxG7XuoefLAqVq7+0Vc+WBmj7ruO/hTHhZOQW1ojkQ3KinO8MlVEBnYzjHvIead9u1/OH2pOd4Sh/e2meFVgpHAT4AIXO2ClrVZcWSf/WxChgACJ4PY0FkuyEfBurAjKac8hDn6HKVJSVSt954dprjdhlsZeloMfNP6wugdgxxPCgdTKXGE36YhbsaC8RlAAZY4i7hWiokdWn6bTfhCuAP130Q9e8voS++lx2HLBKQWVMmhLonJq4B7BV/rr/W0GBXhfkSs2b+iK1MtbUpUlxZXpukazZpvX7yTd5CENX1SRJsWVGepRQCaedHP4AbX1NZqCbqY7t72e2HJNrvLZbgsGGCCMtoKCP+qkth7XU4UiRLSwUZ4qq85TOUokKUk14f+gSAgmkBCZhACJWnUrmUGAc3Dn7TP9ME7sgHDTsfBRfQ/OgD1d2tzopNjhOmf3DvDA5cvvQDpEvGXC7lT5eHWsLvC4ZNE0uGaUr9ZnJ/TwzrJoGfV7su7aITkiuKQkxUakPsDACwsjpO+8cK0XYGsPYWhIo0SkhTgmBqGjjd3YjpgCeWB6sLzya2S7PRYdPQ93+T6GH3CI6/6S4d4qBkVWiz1bblm1jv+dkwLk1UWRKuyFW9sdGv1HVtHo31PUS8c9xf3fWY2xooorWhwQQqOzqOfSsmHWoK+u3eifVJm5BDXFUl5TqCHbsmpSOxvW7qpcKa/G+BdIRU2R8rpY72vw5NbXNgICnXW1zvc73RoMWIajgUkgIE0MOxMLIw+RBINveRCn0gkEAKglHFCrMSyIJu4EAugXUt7Cs8oUCNww1lfd+sTyO4tpDOCwpDuyIFG+GbIhxnOpf7ZKL1MQ6L0V0aqxDgcBdj98BEiLuIsBL9RKQPiFUAMZD7yHyqKtjZxx5J1ZpNg9WRueaOt3AEC4RBF+IQxDOMVo7e8BjAcZG3Ax8OAs9M20S7gAm5RdWqO7VgAh0t574zA6rskRaKmHAQSIOZF1Q/0CPFadAXYAAoQGITFCNEZi3ZpNhxkQwANjQwcXrFoJ4sT+q2vLFCBQtZa/CePW1AEAqnSdPwgCHOE+aqmDnfh1Aww0Ghyzl4CJZZ5cTBbAwcFHPZXoGgBAg6KgO4UELF1B7JNiO5+sidVd+OAtibpT7ywgYDmPps/sEVggMKAs+LCNKeEMox/xFDwI7N4/Wh2ru7Zn55nlf5+dH64ZDbg/Sen7fF2clsJFWTEiq1x3PxwTT0jTfQivUVuAjAi4AoQH7F0YJySjVI3Lwz8Hawiktd1Q0z4x/v/XHmAMd8YUai0Idu+7Ygo6BN6Yc5AFuQ/wTH24OlZ2xxXafR789Uq65hXmH+CX+U7/HWhnWM2as+f+In3wyw3xmhrKvQnB11YAwp17aP2GaEj40LJ2Vx8y/vVmEqJu4FRevekdb81Zu+dnDDDwl3HVaWXOPICsosDAAhDMksJMOsvjL1938ReU6Z5YrAYTVyhuO4yuM4vjAOxZPCAXYriD0kuVQPaLb5bWC+AaqEkAGDhr0AFd0CESvrE0SgasidVFHqlg9BDM6Y6lujsi3TGlsEqPce1oX2VbYxTs3TA2q4Nz5Zm5YRrGgJxpbFY61svM4wm7UoV6HFT3ZLfbnsa8QkcCYZ6bxvmpZwgvk7t5BJr2DeEWwgRkSQzcmKDgu+lnOvp/Qm/07febEzQ08Nna9gGBP59Hw/p9MATcfdbuP/eD7f8zwEAbfdYIGrTxSdd/G48A5DotYDI5UL5YH6e7ZlfdqWJQWXDgIYSkl6noEAv6u8uj1UCQzYAqIQaDMANkMHgF8BOQXEZRbtKeNLlshLeyxqlCZxFNwtjYs1+oK092AfFS1B7xVLQSLnX9ydYJV0B6KqmreFxm7k8X6gbY0gACADNS3Mh0sVS8dOWsAVuun7Dg/62KkfunBTdU47TfLpr7MiKzTHkdl4/0UXXToLQSu286LOu3LdfdXT9rgIHuOvJNrpudP3E6YvAokX29IV5zjZt8zGX/i7AKngCM/974QgUJKMdFZZULmQkLfbM0HoxbFGBw41g/uWCol5z67X7p/eU+rfA4YG2sTG9Id+Q7kVnlCg4AG+SXAxDY5beXTxCYViLvLY/R3Gp3jEd39uTBe0eKHCqRZKjA9bDW48I4kuuOBgZAgBg64ILXu0sD7FLAiHABcuNcvz0AsKVvqfZ55Y8+GoqIdQKho+4yri1dpwEGWuqZbvQ6CySGDdc5TH00yjGU7tQAA28ti5InZgEGWiYQshsknYk4MyqBAAEWwwenBcl1Y/zk3CGeWt3x4uFe6i3otyBcIDJCavRoSHckXIG2AgsnwID+tcaEAMjIoECZEC8Fi6/hHejYLGQXT3YBxaT6L4lS70BbgID3Ec4CEKN/QYgpvRid+o6diyt+m3DBrAMZctkIH8GNT5ZOR7pB+zavQqW4rxjprX1LNVV7gAxX7F9nOmcDDDjTaHTBuYDSyfOHaX/reH+ZsCtF4+7I5rpTAwxQWfGxWSGyN65lMMBV48KkGh6scSo1whNIL6xSURuIY8sCszXPnMJN7DhvmxCgtRrY5SCdqumOy6P1MxCx2JEmFVRqnYf6ViwKvw0QQY3xlIEeWtehM1O73Gm8LdfCNAZUEXq5fIS3zPfObJP4h5jUh6ti5dYJAfLxmljlzHRXYwWYhWRLyPDcwQdkY1iuzmNL/9r6jHgZiqRIeROC4P/t9aTZ+tvG51vvAQMMtN4/bv0uJCg4ArjOCQ0gQ8rNCcPX3RqqhYRA2HGTRdBao2IjwAE1xM3heQIwwqgAnBqnOyJ6hGsfGVrIhz/tS9NQA7oMFEWigh117e8l3XF2qIYpyHaYdSBdqxeGZpSqtj1AxWJs+A2MF9kLVJKjIJK7k9VaGwt7vAe4I6yDAiWcEca3ubg/Rgmy7LsrYnTsSfWEa8KYdOdWUW3uP8Ax6Yb+Kdal/TXtM+Y1fCTuCcqkw0lwx7Wm6XW7yv8NMOAqI2Xn80SEByNGLPSm8f5qyGBcowrojg0wwE6e2Ce7+5Ya4RHixJAK2U3iJm2t0VsYG6oiQgKkyAuFkIhVL/LP0t09KWmQEuEjUEgH8MUzYRmAA2ztSXtSVWCJEAaLJKmShGwAJRzPzRw1rXWpQ94jdIOA1eUjfDT1lHFqvCNlDMMyy5RcCghEBQ8FQ2fOonFIRzVzUOZ4flmNelXoP+YzQNjahsFnbSHMgPYD2T2kLnd3kGVt/3XW5www0Fk97US/Q9xvS0S+7lTZfZKfD0venVE6YADXL8xy4vLNNa5/RWCO7uKJE0OobG/DeKPLgIgQedSBqaXqDSDdESlb4tEoJyK5ihfAAg5eXxKlxop860uHe+vjm40J6sFBmAWyIp6CxoasvefYnb6HsyutsEq+3pgg1472k1meGVoIiz4orzbL8ALY4BYM2pyoEsMGEDg0Q/BcUbzorWXRcs/UIFngk2lVmWZAFkRM+p1UZUIElJw2+vZQ3zrLXwYYcJaR6KTzIGUNRT4U+ripKTsMOHB34wIYYLEnU6AlMMCi9dKvEbpzX+zvmFoBGCVc1GgYUOsAQReEjABkLJQo56GSiAeDmDVFd/AQABqQQSabAcCyM7ZQwQrHwCOBZ4Ljuvs4duQ2QfaaMcbrQ4YB9wHgisJVX6yLF7QkAF4x2RQcc08PWUf6D7B8ILFIlT5Jy0XYqbXdPUCA4lHM26tG+Sj/wuxtMfq2I+PgqO8aYMBRPeuEx0U5b1tkvubSI61LXntJZetucCe8jHadEmAAgSEMAYa0cWMXT1og5ZmpQoc8MMa6M5vlHCiRTP41pZznemVqYSgqGx735T4FBlSU6zMpQEENCzIcBCSXES0iHZHvQnhEOheAcCjdsTOvxnl/ix0umR94AAasidNwzIC1cZopggoeu18Lf8N5r6LrzgywSUgLjyLufrxezTWAF0CAewpiLeEw+BgGyGqut5zjNQMMOMc4OPwsWOB2xRaoEblzUqBM90i3i2a7w0/cTj8AGCBm+cC0IK1v0Piw7GAgUpJGRvqhXwfCA42Pa4+/0S8gdZF0QwSRyPuevDdV5YvxHpDu+I+hXnLeYE8thwzJ67VFkaqYR0YEdRgoCUvMl7AFizQ7PAspsjvu0Spr6zQUg34AFQ4Zd+pYFFfVGtwMKyYtoS+Eu5hrKHfWaMnfQ1/E+wWn4PvN5uqD6HvkGOmDhzrISf8ywICTDow9TwtjtzOmQPpMDlACjyXe151IaXhFPl8fpy5Oih1ZGjud1MIqTRHEK7AxPE9305b3u/qZMSI18a2lUbqb5fy4Fgthkd0XhEiyGUbtSJa3lkar9+Omcf6qnEh++M3jzemOFNdhV7cpPE/JcVx3WZV7ldy2ZrwAQIhM0S+ISkHSJKWzO90P1vRTS5/hnmHOwXUhtRZ55saN0BXZAszBD1bFqKfKCF817iHn/NsAA845LnY7K4wG6WmQdyDPLfbL0hhzd7s5MaBfrY9XMEQWhaURbydeT80CUgPJ63c2o8C5s8uH70CsmzK6eHrYgUHE0nTHilp1cZO+RW0GwB/s+Wn70nSHBjGRtMr7fgrUuaAaCrNChdcJNczxylCPCYx6BHb4TY7vbo1+0wqWc0LVk4JnAI4GWhtGs74HCC/OPJCu1TbfWBqtnifuG7xQn6yO1dRMSLCAVXcmJlvfY87/SQMMOP8YtfsMcc2tCMqWR2aGaM47sVKMX3cDAnQgxg1yGCVSLWCA0MHmiDzlCTy/MEIXrtYIUe0eCDt8EdEiyJ64tCfsTpGC8pYVIhlfQgKkRRIDpxgM1R3hiyz2y5bJe9I0bRJC5cuLIuWpOWGqsogWArn4lnRHPge5cX9ikSAXS6VImPeuOn8ATfAq2NECrIhnf7ImTu6dGqjpcvAr3BD/2GH2NX8IOACkYCK0NWVvmqZmMqcoI/7NxngtOe6s91PzV9S9XzXAgJuOP0YfRnzf+WHqNl7sn61pbu6427NmCAEDiMiQQUFlQnaIiKegPQApb3tUQZvKdNb8jqM+w6LK+ZJVQKwb/gdgxpaGEUdABgY9aYr+qWY9BNIdxzekOyLBjB4CoKBxuiMFf4gBAxCW+GcroIIZDlmRGDKG1JlBAhkzv0XnS78FEQJ5lutgF0s2B+ETSJkITBFSM5p1PYBXCgGvF9AqGeen8t0QC0mbJbSFJLfRXKcHDDDgOmNl9Zmyg2OBZ0GHZIaADbsiZ3N/W31BdvggYAB3OO5xDD+6ChjA2ycFmHeF1ZSntsMPOfAQlpDPJT94KQEOlz6gpqMNI878IJMBLwJqfcsCsjV8Qvnf/ouj5Om5eA9CNNTw9JxQeWVRpFC4id014ZVlgTkaZsAIaLpjiTndEeNKwaCubHhR8IqgHQHwAwjAl+C6mRdIRlN7ghLSXL+RA2/9aBFWIyvpiE/3yPFf7VOvkgEErO8/Z/qkAQacaTTscC6wxn/1zVLhHKRDF/llCcV3untj0celedeUQFkflqfub9zixOAT8yucHghYxo9dPYqFV470kZkHMhyaAmkBCQAngMf2qHyVUibcAhgAaFJymdoMd08N0lADzHEU6mYcSJdVwTlaIZLv4okApLJDt6Q7dgZGQFcDgS0yLCAMTtmTpmI5jX8bg8br8Acm7Ep1St6IZfyd6RmgF5pRpvfVyd94yDGf71VgSGjKaK7XAwYYcL0xa/aM2XtV1tQpEMBVB8t3ZVBOq6IgzR7ITV9k54u8MBkV7GQwWmik00eu1PAEwHyn3gFjDOehswlauqOuqpOUwioJSC2VTWF5Mn5XqrLyH54RLNeP9ZMLf/CSC4Z5yfVj/OTBacG6Yxy7M0X7+0BCsbro88prdGeOWBJhEK4NR4e9/AgYK4SFnp0XrkCAdNoaPBVNBhxgAPHyfwsitJgRUtLMF6O13AOMFQJOeNsuH+mtPAwd6+nBGkIyuAIt952zvmOAAWcdGRvPq7ymThZ4Z6qK2tNzQ80pcsaCdrAXWdyHbUuS2yb6y20T/KXPZLP+vK1x94MH7MI/MJirg3M01fCj1bES0QVMeAwqoACjwMKPQacv2f3DzCeWTLojYQS8CICXa0b5KkC46AcvuWm8n4YcOH8yHnDjs8tkVwn5saON6pC4/x+ZYS4WNcczQ9MoWzou54/89OUjfTQG7pNc/BfQ0NJ3u+Pr1Hag6BDqmMh8Iz60PjRXMzQQ98IbZDTX6gEDDLjWeP3lbNnVkDVAJTzkVF9YGK67RZjkjV2hf/liN3sBMDB8e7JcPNxbywOTWw4BzlX7iDg4ZWVJFSTLAL0AZ2gABEu6I3MQImtCfqUWX9oVU6jpjnAMBm6Kl1cWRcjDP4coj+O2iQGqakf5Z6SyCTWgh4ESI2AHkFFRY50mAgBlVVCOZgxQFIqyxRSgam2seQ8wAysegiYghtCG0f7aA3gEPloVq+OGhDb/xztFCOiLdXE6jnjf2iry9dcjG690ZQ8YYKAre7+Dv80CllJQqWqC6Aj0WxCuOywMRVNXaAd/yuW/bgYDSXLWIE+Nb5OD78quYMbeO6lYq05SLnljWF6XE/VamyQYaLgCGAhi9BD12H3DQyDTBSNMGAdPAZU0H58VKo/OCtHnZ+eFyZtLo5QrMWVvqnpFuHZc+xh5dvX0Bw+qcRL6eWh6sGZDLPTJlAwrtSPwuJAd0X9JlPIhABGuPEdaG4/2vAfQY9zwBNw/LUizc4LS/lyGGO8K1TjJRFkTkqtKl+35LeM7nd8DBhjo/D63yy+y8FEWdOreNBUTInf6t6gCXQwNIPDnLqavKGELm/z07/brri+loOrPH3LB/2Fc53pnqsFERjkxz/qyss5yuco/qK5Tox6fV6EpacTsyYZBTwGy5AcrY3TsyI4hBIaxYSxJC/1uc6KqKpLuiLjWPK9M1ZK4Z0qgzPXK0KwRxt/axmchHD4+25wxQbjDlu9b+zuu9jn4F4R/PlkTq6mZpOn6p5b+hZMEWXmBT5bg4aHCIaJDRnONHjDAgGuM05/OklSthLwKmbwnVdO9WCRJlzOyBv7UTQf/g/t3R3SBXPGjj5zx/X4t6oMRcocGICRL4u4pgcKuWVP53ODCGJ+Sqlrd1UdklSsHAYNP+WcKCpHuCADGK4LhIbOBuhPwQY78bI8CZMIRaEpY0h0hXpJdwH3S2vAzX/gdFDtR0SMNsTs3PC8hGWUqJHTjWD8tUIRHoCWSINknzEmIoxT9KnGSEFZ3HkNrrt0AA9b0khN9hkWMxQkJXVTUCA2w4LmLcbN3VxPLhMz0yq8R8rev9sk5gzxVm9/ev9NVx2M+sHt96ZcIzZQITHXvWvGEGwAJhMdC0stkc3i+DN2aKHdMDNA898tGeCuxkqwRXNnoI8APGbItSVMxCSHQXyHppYInAm0FQheEAzBuFoiIOxw1PYiPVI/srkAbcBmcXqocjitG+qhiI33TWgYLmxUKZCF1TcYOtUAYN6M5dw8YYMC5x+dPZ8f9hLt7zI4Uze0mtmp2Yxo32p86qtF/ILCRUnbSNx7KZr9wmJdmWjT6iMv/yU6W2gVUNoR8R4y8O4BDZj2kNYiGAGO8I9TewBNASefRFG5aFi0PzQiWG8b5ySU/eMvlI3xUPvexWSEafgBUk5nhEV+kRDjIuIg7WcSInpgVqmEHXOTdzaBh8HHzf7sxQfvt/1bE6Nyyph8AT5A4SXMGkBlVC51/mTHAgPOPkZ4hO0BcnKTHkf705tJoOZBY1CpCd5FLc9hpstODWIfULDLE6KVfO8ZPY8sO+9EuODBGkdSuH7YlyQlf7xNqUBSU13bBmXTuT7JrpVgO5Fk0F6jGiAQuQAhDRrlmeBWQDCMbQg2L/LNk0JYE5R0wL/AknDvYU8tAI6kLSCBlbtaBDFkbkivfbUqQS4Z76/1GOenWwgude/WO/zWyBAasiVMQDbGTfrQFZEIUpUrm2YMO6HN+N5iTjh8Vx/2CAQYc17d2OzI3YEphpQzZkqgIHTYvQMBgOrfexb7JJeoivnWCv3oDSMG7boyfKhC2/k3Xe5d0PlIlcY3jmqUyn7tqw2OQMfJT96ZqaARtfEo7U0mvucb9AzCgyBK7frgDFH4KySiVXbGFsiIwR5XzvtoQLxSsItaNsiIphmgiILN7+ncHlDxHdgJyzbjKc0tr3DZ8EJFZJh+sjNWdPf1C5oY1HoHG/Q8gI8QA2RPQRbgAj4vRnLMHDDDgnONy8Ky4AaOyyjXtCoEP8ns9E4tsLlJz8IDd5A8W/JG/J2vMd+i2JJXthWCnYCA0zy17gbQ6XN5X/egj1BRgQXe3hmFHkhnyLB4BiIQAgYKK5oFAa9ePsUK7AM6AVnfMKdcQA1k5kBUhIEKEQzQJDY9zh3gKwPLfDWmLqFgizUxGD14EwCc8BAo34bVwxQbQisgs1+JNAEuyNRCDoq/a0yAP0p9Xj/LVlM2AtFKbQUV7ftf4ju09YIAB2/uszW9w27Ars+RUk7vMA7cZ7lveO0RVavlw3ICQpIZuTdLc+HdXROtiZXgEWu4z3iE8sCwwW0vzspDTh+wkUbojrr7OTcEAhpLaFLh08Q4gRIVhcpcGMIY4iJEma4CxRW7Y3iGR2ro/FGxnl1brjhgvHLyT84eaJZYh7ZLW+NriKC0GRkYDGT2cDxUQv92UcDDdcWdMoYRllCnpl/NsK5OhK8eKc0PgCc8jxEmAAN6m9gIBrgVwwZwctSNFPS1IUrMWNm3MXbgv9Dky13wGojRcAwAb7xvNsT1ggAE79S9zFSNN7BZS3/KATJm6M06GrQuRgSsC9DF0bYhM2REnywIyZXdcgaYH4jZrbqJzA1pYvOxELIp5LaXz2Oky3OIw7GRwTaI+xw6PvgQM/OyRrvHPtaG5bnGdzV0EGzjEfB6dGSIv/Rqhoj4dWcyb+42ueA0gwK4bIADQocDU79HoatjuEbD1/Lk/iZd/siZOrh3jq166nTEFGmJAMIk0RFzpeAr6LTQL7gAQEEtCwAgOAoJKeBCQaGanDMkR1zvGD4+OZjJ0ob3j/mC9IZXylvH+go4A/wcYdbQxdhh3ABP6DQB1DD/XTL9SSntDWK7M8UiSUZsj5LtVgTJwhb98vypQRm+JkAVeqaqqyn1NPQt3mM8d7VNHfN8AA3boVZBrfG6FbA7LluEbwuTRMVvkyo/myxkvjpXejw2UIx/8VB+9Hx0op784Ri7/aL78Z/QWGbouRDaGZklsbvmfYmncPLh42WHc91OQ1gkPSi+1w5m69yFYtlhkhm5LVAb4iN+SdGfBVZMrDdns6lE+4s5ggGtl/mA02d19ti7O5WV1uR4kjVEp5H4A5B1ILFaA11kzGgMEs/6hGSFq1CArWkIBnB9ZDWwEUOCDtEr/AxBeXRSp5EYADONB1gMgAQ8CZOAZ+9NVMRHZZXL3AQhkwHA86o3wux03x633EvcGHgAtOjTCWwGBRWK49W/a9i61C+gDNjYoT3omFsqsvYny6sx9cvM3y+T8N6bKiU8PkaMe+kKOeOBTOfrhL+SkZ4bJBW9Plzu+WyX/t9BLFnomi39q8V8qT9p2Jsanm+sBAww01ytWvmY2PrXilVgoX64Kk6u+Wi1HPzFUTNc8KabTLxfT8aeL6cjeYjrsCPPjyGPNr512qZiufkKOenywXPHFKhmwPEQ84guUAMXNz6LCbgKE/uGqGKPoh5XjwU5jV0yBpo69vcwcUrF8lQVvtmeGxtORSXX3Bmfig1UxuvhO80g7aLhc7brxdJAqye6b4lJPzQkTn+QSrW7YFdcy3ydT7pgUoKEYSIStGWoLSMCjgXwyO2IAKumfgIIbx/nJpcO9NXR156RAlfCFvQ/oYY7uSzATFQEHcCIAuhRxYp43501sT39wLMJocB8uH+Gt14VoEOdu7wZ4wuNw2wQ/uXuSj9w/Zqec+PI0Md3xppjOu0lMJ50npmNOFNPhR5vXS56POUlMJ58vpgv7SK+7P5DT35otT//kIUt805UI2hlgyd794KzHM8BAO0eGW4UYGznOd43ZJ8c+MVh6/ON2MR11vJh69BCTiYephUcP82eOOl56nH+rHPPYt3Lbj7tl5v40SSuqVB12FomvNyQoa9n+t2U7L9qJv8biCLHsoZ9DlFi2PpQ0s0M9BxhAnhbhlNXdAAwwVDDl2YUSZmLH6oqNHTIEUMoi91sYodfRleFjCkIB1BE5GvlbslUgi1nIOWNfmaesG8TR2X3viy/UNQRjjJ7/zeP85URD6VQAACAASURBVIKhXnLat/s15ZGMBgAQhNB53pkaggSE8H17GGzUHT9eE6v3BVLD9Le9gEbT+YYY0fKgHLlzvI/06Pez9Li+r5iOP0NMPXq2sWY2rJeHHSmmUy6Uw259Wc75eKV8uDpaEvPL3TZrpmn/Ofr/BhhoRw8zqYsqagQyzNVfrpRjbntBepzyDzOiZWK3CAKagAM+e/hR0uPk8+Tom/vKuR8ukQenB8rFwz1l2PZEdUuSEmW0tnuA2OPYXSly3hBPJQpC1mzcc+yo5ntnqEYDgjTdoZVW1WpoBBc14jvwU7rSkNrS5xhOBLYGboxXD9n7K2LEK6nYKuNry+/Y+lnOi3g/7n+KIQE6bW3MSwUFDToI8B6YvxDnUMvcHVcoK4LMxZsAHgC6e6cGKVC4brSvZjTACcHDMHx7kiwLyNZUY0IM9FltvXWZDMTg6VeyMgAjeCQdCQS2R+fLI5M95LhHvxbTOTeYN049e1m/XrLB6nW4mI49RQ678A455X+j5Lk5geKfUiRVNUbKoq3zsOnnDTDQtEfa+D83MuVUp+xOkis+XyFHXvu4mP52hnmSWgsCmn6u52FiOv406XnlQ3LcGwvljvFesjMmTypqHE+OauNyXeJt3KfbIvO1tjqpZuioN/YKcBGAAbw45Duv6iZgAMPPLpJYMDvrBd6ZnRpnb+/kwfWbVlglX2+IV8OH6xx5W2fJouE8FvllKXfhhYURysmwB8hibeHaOT5hgfTiaoluSHeELAn5EC4C8stkM/SdHyaPzAxRzw9hBzwIAAQM+zSPdBXXgpxHKWYqmZLFZGkAgXdXxKguxfebE5WjZA9Pg+X4jZ8JD+ABeWzqfjn54Y+lx5lXiumIY2wAAc1soo7sLT3OvFpOfmaYvDrXW0O1NXUGIGjc77b+bYABG3ussKJG1gVnyvXfb5TDrn1STL3/LqYetqDbJhPbAgzwEhxzkvS46j9ywYCVssgnRfJKK+WPPw7dwDaearf4OAtYQGqpkpLQYYCpDTho2gADVMIj/II+fXdpXDfMd8vuEpKahfjmjH2AJwz3OQaKojgD1sYpWdDZxGpgx1OEh1318O3JasDtAQhaGhMMOQqIbETwAJAxQnXHRX7ZMnFPmny/JVFrKQCGGesn54RqISdqVry7PFqrP07ckyooMEJwfHNZtNw83l9DHugj1DYCCi2dQ3te57xjc8qk37xgOenRL6THGVeICXe/Zd1r93ODl+Dsa+W0F8bKwFVBEplVaqyX7Rmkhu8YYMCGzsP95p1UJC/O8JBe93xkJrvYEhZoa+JzrCN7S69/vS/P/bRL9sblSnVtjVPXqbeh+xzyUUvRJha2H7YnacyzuUUZA8hu7pLhXt0KDNDpuKAtXhG8BGZ3sEOGo0MHJZaOVweWPeTZ9xp0NUh7c7YGCPVOLpZ3GowqVTG7wnOBBww9E+4Ddvuo/DHPLemOhIfwXgAQCC0QMnpwerCc9t1+oU4H2iW/+GYqu5/wB1UwSXcEUHPsxqE2W8eAcGpGcZVM3BkvJ7zys/Q8+xoNi3YcCDTaUBFmuPR+uXbAfJm5L1EKy6sMQGDrQDV83gADVnYct0V2aZVM2hkrJ788RUx/v8hMfGnLwNv8fg8lyZz4/DgZtSVCMorKpL6eWG9HbksrL9LFPoaRYJf/5OxQ+e+8MEkuaJkFDRhAcwB52RXdyDPAkDJ1AADEh68Z5aPXb2+hno5OHeSUAQKQBWHr4+7GQwBAcNaGwSTFEFVCZIzDMyGzOcd9ij4A/IGEfLMXgblPSt/p3+2XswYdUJlheAioDFLX4X8LwlVsaMT2JPm5Id0RAioph7GN0h255wBCbV0l61VVbZ3sic2TG4ZslR5X/secWWXzetjI8Lf03SOPk8Puekv+99NO8UzMl/o/6qwSdXPWedVV52WAASt7Hnf93rgCeXbSdjHd8rId3FxtTPIb+8mTYzfKb1FZUltXbQCCJuOEgUMUhQWOanVtpQsCBpYHZOtuaHlg9wkTWLqN62fnCDudnSK1C4hPO0PjPCgkNHBjghpWdrNJ+RUOI7PZ85opgTxxd6qc+u1+TQkkLc/ZcDuACqOO7gFFziAlotNAjQW8CAAwwgsPzwiRm8b7yzWjfZSsCFgAJHyxPl65CmuCczX2z1hxnahbEroAIACCGpMPAQPpRZUyYXu09PzveDNHQLOs2lj3WjL4bb1+znVyyevjZfTv8VJVWy1/iPOCSHvOP3seywADVvQmE7u2vk5+2pci5/SfIiZ0AtqanA3v92jvDfD3i+XMl8fK6B1xUllbIXV1tYZ3oNFYsQAN3pKoBWUQZ2prB4kxhKFN2lZ3BAN0HbtvhJcgUWIAcC07QyP+DiHun6N8tawwRblcpWH4yVx5bGaI1r0gHs9cc6aGHDIS1Yw7QACPRlMcSGwf4x6ZXa7ZDGhyfLY2Th6fFarEXCo7nvyNh1wwzEuBQt95YVrRER4OwDI2p1zgUwHsAAV19fWyJy5fHh27VUzXPmOTF5U1s+mjzfX28GPksDtfl76zfSW9qETq6o310tY5aIABK3oMMJBZUiEDlgfJYQ98ajUB5sQTT5Q+ffrIxRdfrJO7zQndGGAcdoQcds//ydu/eEtqQYHU1lUZ3oFGY0V4ABcnErAsdm3txligVwXnyD+GeWkqVqNDdZs/6SMWfKSaUfJDdwGA0FUNo4Eb+/UlUSoUBagj+8FZPBbW9gtzC1EhRIToWwqJsWY4Q8N79u7yGDNo3pigALApEOA8Odu6P/7QHT6aHOz4mSt4AFBe3BNbqCE5vCAfrY4R5Jb7TA5QeWYKY8HZIdyA2Neo35NlZWCmDNkaL2e8PUdMJ53bhu7KIW/BySefLHfddZf0799fXn/9dX3u16+fnH766a2voQCIyx6QOwcukc3hGVKDN9UgX9s0BQ0w0EZ3ER1jUvklF0i/ydvFdNPzVnsFrrzySpk4caL07dtXeva0QX/AAgque1aeHLtB9sdnSDXeAQPtqtFH0Q2dcxYkys+yeLXVWLAJJbCzIUXLSdbqtk7b7u9jCCieg0b8i79EyN74Qrv/hjUHxJMTmWWuIUG54GHbkzTHvivBiTXn3dxnmEsV1fWqO3LX5ACtQ4C3o6sbmSMYZ0AzXjSAlq3pg1wbIQDIkebqjlUSm1MhVB+ErIiqIgqXeJpIVUQ46aGfg+TeqX5y+bA9cvhTI81qgpY1rY3n66+/XoYPHy7Lly+X7777Th+ffPKJnHvuua2DAY579rVyxeujZdKeuEPrZZvshq4eJef5fQMMtDEWIPy6+jpZF5op93/3q5gue8BqMHDjjTfKypUr5a233mofGLjkHunz5RxZFpAoVTUUDanp1miXhQm9dqo4ktKF6BP56NY0jM+6UDMYoLhMfXPbI2sO5AafQeRm/K5UeWRGiCrbEffuzIbhhLn+9vJozRpAOAc+gysCgcb9hqscL8djs0JULdAakNr4+/b6G+MdkmHm0zwwLVjvF/rXnh4X7kXuKeYS8weSITLRpDv+6pshAzfEyG0jfhPTvQOsXi/xnOJJnTJlisyYMUNuuukmfVx77bVy3HHHtQ0GTjpfznpigHyyJlwqa0iXNHsH2qY72qvnXfs4BhhoY/zMfIEame+dIrd8PE1M599i9eTuMBg490a57r0JMt0jRiqqi6SGUEE3dn2xO0F8BZfkeytitH58Y9JSa0PJwrUhLE8JhJCmbN0htXZsV3wPpTviyEgVL/TNtKuhaK0/0AtAQOjj1bHqVh/SsGN1FhZ+a+fe1nvMRYrxPD03TL0uXGdnBwvg0rBrh4NBLQeqJYam2xcItNYPrJcV1TWyJzZHXvjpNzHd1t/q9RIwQIhg3LhxMnToUDnyyCP1cfjhh7cNBPAM9P67nHTv6/LSr0FSUV2o62WdkVnQ2nD96T0DDPypO/76H4wvRnjWgSS5/v1JYjrneqsnd4fBwFnXytVvjpZJuyOlvDpfauoqRSc3sLybNYwFLGaY8LiVN4XnNysu1FK3AAZIAyO3GtKTPUqztvRbrvA6u0TA0TNzw1RJjzr2xIwd2QACKNGhgX/bRHOZXDw79tyxOvL8rTm2xetCLj8EPHL2O6uVN3hcqFRJHB8hoqgs20MDHTlfsye1VryT8uTVaVvFdPOLVq+XFjAwdepUmT9/vtx///36wEOAZ6BNztUxJ8rf+rwkz80PkPKqfHOowAADVg+nAQba6CpyVjHCc7wS5aYPp5ira7UR97JM2g6DgXOul3++M1am7I2QsioEiLixYcm2HSNv47Jc6m1MVEZxtUz3SFexlAm7UrTMqy0XgQt6S0SeXPSDtyz0zfqTNKstx3Gnz0IQQ7YWqWLIe8SEHRU9wWV+ILFIhYTIy+f3kMh11O915TgBrAasNQOexf5ZCnYcC7NEMxiQHqagEemDpBEmF1Z2ugesvr5eamtrxDspV16dvk1Mt7zSthFvtJ7iGQAIBAYG6vO8efPk+++/V86AZV1t8fnYk+WEf70qzy8I+PN62en+ma6cfe3/bQMMtNF3CP7U1FbK0oBkueurOWK6+G6rJ3eHwcCFfeSWT36SeV6RUlqVI1U1ZVJXhyJh9wID7OqJRRIeePjnYEkpIFzSxsA1eRuZW44BGECNj2MaTZQp/uHqWDlnsKfsji10iIoeYwVH4PmF4XLDOD9VGKQ6nrs2wgXbowrksVmh6sVKLXCs94P+JWvAkj745YY4Kap0HLBrOm7cipwDnqXq2jopq6ySfXFZ8sqMXWK66/+sXi8x8oCBSZMmKW/g8ssvl8suu0zOO+88DRe0CAIsYOKEs+W0h9+Xt5cHSomul2aeFd4Ko7XdAwYYaKOPLGBgT1y6PD12nZiue9bqyd1hMPDPJ+XhkctkW1S0lFZlS1VtmdTVdz8wYCGb/XO0rxxIKNKiQ20M21/eBgz8FmUGA5SCdbZc8L+ccCe9wI59b1yh3DzOTwmF4YQLbEVarZwrh0JH/4nZ5lS0CbtT1atjx59o5de77i28LL/6ZekuHX4LNQUcZZIQFHpneYymZyI3DaGvs/qX+4hrC0kvk83h+TJ2R5K8uTRM7v3pgJz73TYxPTrMJo0BC2dgyJAhcthhh+mjV69e1nEGzrxKLn5pqAzfHiolldlKujZvnhzV8103vxzxywYYaKNXLWAgLjdH3lm4X3rc/YGYqDJoQaOtPAMG1qxZI4MGDRLSDEG5F1xwgTC52/x+z17S48635KXZOyQ8E6GQ7ukZYGEbtSNZ7pxsTj+DRNgeoA8YQD/+4h+8Za5XplXpiG1MDbd4m76kdsEczww5f4in9rW90uIgs0Gig11/37QgVbFDFtmeYMNZBwHvACl4hEPOHnxAyGAhLGPvFpBaokWH6F/IghQxspZUa8u5AC649xCqAnyQmTN+V4p6I7QI1k+BKnF839RAeXpOoLy3IlD+O8dbTnx1mpiOP91qnQHAwNixY3XNbHONbLr2XvwvufHz2bLEP1JKK1kvDc+ALWNsgIE2euuPBs5AQXm+jNweKqe9MEpMJ/+jbWNuMqnxnzVrlixatEhzZ4cNGyYfffSR9O7du+1Uw5POk1OfGybfbvCVzOJEjYGpZ0CVCLuHixvSIJoA6AmQEx+RVd7GaLX8Nsciv/7i4d5q+CqM+ucHOwsCH2VuX/o1QpCgRdCppJnKjwe/YMUfuKlxlVNWl2Oid5/QTYCApXsAQxQzuntqoIYM9sQV2s0jBQE2MLVU3lwaJf/+OViLdCEOZA+gxTEI4wAK/VNKZH1onkzbl67ABpGvvvPDtSoi3h70PqiK+N2mBMHrs8g3U7ZGZIt3YqbM946Vu4auEtMVD1ntHUBn4NNPP5V3333XqjX2IGA44mg5/NYX5fEp2yUoLU7KLJsnOFYO88lYRto9ng0w0MY4Ep+vrauU8ppCWRsSL/cPWyamfz4lJitkhlEgfOSRR+S1116TV155RV5++WV58skn5aijjmrd7cWxr35M/jXoF1nsFyqF5SlSVp2nBML6biQ8xA6EvG0WnWUB2R1inQMGdscVyiXDvWWWZ4ZDYuNtTCWnfhvPCWmbd00O1MXdM7G43TvM/PJa2RieJy/9GqlFhyB+sqO0h6Fy6k5s5uTILiCVlfLa32xMUI5GezxbjQ8NyIAsiBEGaFCtExVOW/sX5zlufopWYfgRKdoWWaAE2zE7U5SMiBbEC79EaLokHoBXFkXK+ytjZNCWRBUbWh2co3UO4nMr1MNUUQ3Hqkaqa0slPDNDvl65X3o9OlhMRxxr1Zp52mmnCR5VtAUOGvqmHoDm/n/aZXJ2vyHy5To/yS5JkvIq83pZ94cBBhrPndb+NsBAa72jFd8AA9UqYhGZlSbfrfGU454ZIaa/nWE12rVpUpt6qFut91OD5LNluyQwNUqKKtKkvLpAiYxkN5jFQ9s4cRd/m5grqmakaKFOl1vaMRcrYIDYOGBg5oEMIc3NaId6wGIYKB9MmdvhvyWp5v6hT1j3F5Xy1oflqSwvwOKnfWnqHneE69q6M+raT+Fex8tC3j/9iocktwPhAlz1viklmp4JwCA0QMptW0CA/q+srdeMkfSiavWykd2xPixXqEMw8rdkrVuABw7iI9LCPFONEWIiEsNLArI1IwSBIUIezfFuIOvV/1Er1XXlkl+WK2uCouSCz1dKj/NuFtPhR9tm4Jsz+s29dsQxctjN/5N/j1gqq4LCpKg8TSpYLy2p2IZnwKqbwAADbXQTk7u2vkaZ/MUVObIhLEbuGr5eet7Yz1yS0woPgdVggGMdfpT0vKGv3D5khSwLCJLckngpqciUipribqO3zcK1JTJf/jUlUKhgx+LX0QYY8IgvUjDAgkyxFqP9tQeIOb/0S4QWqGHxt0UVkF0wsWS0IBg7ZGrZxXZ0J/zXs3S9V4jtP9pQKnhzBJohtpPa6EtU/tARuHyEt0AWZEffFAhw/2ComeMAj5RC6guUy964Ii3SNXVvmmog9J0fpjUqbpsQILdNDJCHfg6WVxdHydBtiVrum8qGCXkVGjKwFsyZ5dvN6djl1YUSnpEiHy/3lGP+O1J6nHKB1Xwr69fMXipDfNZr42XwJm9JyIuTkspMqay2rJdGOWNr7xYDDLTRU2YRjTqprq3U3XlyfqrM3h8sJ76/THqec525NCe7+eYQq02vmYFAjzOulBPe/kUm7/KSmOxIKSxLlrLKXM0kAJS4e/yLRSe/rEZJZ8SacUPaQyCIxZed0KUjvFWvgEIsRmu+B1YF5agyIamAMTnW8TRU4TE0V/4zI0RDDew2m9s5Nv+L7v8q68hsz3ShdsF7K6IlycbaBRh8/9RS+XCVufrgNxvjVaeB13kwvy0AILukWlMNt0UVaKz/g5UxWp6YbBxIolTuBAAQ76dmwbKAHAXcpEBWdRC8mcFAgze1ukQKy7LELylWrhu1V466/SX7elR79BTTsafI4Y9+J6/N3S67Y8PNIdWqXHMatvIFuge/yh53kAEG2uhFCxigClZldYmUVGRLeGaCfLXOW45/fY70+MctDYDgUOWtdgGDw4+WHudeJ0e/Mks+WbFP/JJDJbc0XooriG8XHgwRuDsYIDwwakeSFhSaui/NZnGhloaTxdIrqVjBADtWdrFGa74H6BvcxndMDNA4d1veAe6RtSG56g1gd4moU3ElOzKjNe4BXOtfrY/Xan8jfkuySfgKjsBby6JUwnnQ5kTJK61WAEAmSERmmWyLzJfJe9O0WNAD04Pl6lG+eg9d9aOvjgvk0OHbk9UzQIYHMX5AN+EywgfcHwBxe4wZR0EcDZG08qoCySpOlZVBYXLl9xvkiFtfNAMCmzZKzaytPXopEDA98IXcN2ajrAoKlMwivAIZUlmDdHtlt5ZubzzvrP3bAANW9JQCgrpaqa6pUMOcX5YuganRMmDlATnrjZ+k59WPium4U61On/kzWOihmto9r3xITn11svzf0j1yICFIMoqiG6HcUg1VcB7u3HBrUgntouFe8vayKN3d2EuqFu8CLtbLRvgIIMOdRW86OkeIcweklsoHq2KVAIhscVNXtOU3SqpqBU8COvhkDizxz1YimZtPVcvl2/SMsaW8MYx8Skhvici36vu+ySXSf0mU3DDWT/otDNfwC8x9xKKemRcud08NUuDG8+OzQrVSIWADPQ1CEoTZiPOj4gnYJtzAfeWoMfqTd6CmRHP+UwsTZfb+QLll0HI56p53xXTaZe0PGRxxtJjOukYOf/grBQJL/fwlPrfRenlQj8W910urJo8NHzLAgBWdhRFGbwAiIbmrSAPnlaWId1KkfLvOQ274Yo4ce9+7ZqniY060ijWr2QhHnyCmc2+Qnne+Iae8PlUen75ZPBKCJL0oUvLLEqWkMksqlSuA4p57x74wNqioUQ/+6lE+si0qv8PpbY2HlsUP8SLAwJS9abooNn7f+PvPPcCOkZLPxLmfnhOmsenGwAxDklNarfnzEAVJ/1wemG0W1zHW4D93ZqP/QSZc5J+t/Qo5L73oz1kW3Ad8huyLoPRSWRGUIy8ujJCzB3vKyQM95Loxfg3kvhB5Zl6YvLM8WlP+Ju5OlcV+2fJbdIGGExLyKpV0yzg2HrdGp+LQPy3egZq6CqmoKZTiygyJy4mTWfv95b6RK+SYJ74V0xUPi+lvZ4qpF7otVoRaISCecqEcdu2TcuZLo+R/0zfL8gB/icthvUzS9VK5VbWVul67++bJ3gNogAEre/QQIKhScgoKVwVlyRKQEilTdvvKs5PXyiWvj5Jj73pNTBf9S0ynXWoW28DgH3mc+cHfx50mplMvEdNFd8mxfV6Ri14bKXcMXSr3TN4oT8/dIMHpwZJT0hAeqCpoVJfbvWNfkJxY0Ihrjt6RrMQne+5cWBAhcV020kcm70nVeKuVQ99tP2YZE4rejNuVosYfO8+4YMQo+PTYzBDlF6wIzFHjY88xc9eOR9MBIS12+pThjsouVyCMLgN9SlofJMGXf41UFz+ufmL8FJUiK8GS1rcqOFdFneB1wBPA8FtL9HN036p3QOpVMbWqtlxTo8mKCkqLkreW7pILBi6Xi96fJic/8pH0uOoRMZ31TzGdeI6Yjj1JTEexXvYW01HHi+nYk8V00nm6aTri+qfk9Ke+kD7fzpUvVu2VLRGBklIQKXmlCQ3h1Ib1skGLxQADto2yAQZs6C8mlzkWVqklhdm5F5YnSXJ+tGyJCJEhm7zkv1M3y3Wf/CznPfeNnHz/G3Lcrc/KsTc8ro/jbnlGTr6vv5zb9yu59uNp8tSUDfL9xv0y29NLhm7bIf+aslrG7TogyfnJUlqZpySY2jqKudS7NXGQRWxVcI48PitE/js3THdF9t7NcDzyqCniMnFPqpACZ7TWe4Bdakh6qRolihltj8pXrgVAYL53puaewxFYHZxr5ggYHoFmO5RugdxHaIq+C80oU1c/HrArfvSRL9bFy4A1cZrDj4eFEMKlw73liE/3yEU/eClpcL5PpqbGYvjhCbgCOfNguKDW7FEtqcyVTeHh8sLC7fLU7C0yaPMBeX3hLrlj0CK55NVhcvp/3pe/3fm8HHvjk3LMDY9J75uelBP6vCBnPP6RXPbmaLl/+FJ5f8kumePpK8FpIZJTEiV5ZQCBdK1SSO0WXS/ryWAxJmOzk7GVFw0w0ErnNPcWIkTUB6iuNbu/ShUQJEteWZyiVM/EYJnt6SdfrPeWFxbsk/9M3ib3j9mgj0cmb5Xn5++Rz9Z5ycwDvuKRECCJ+SGSVRwue+KC5LXFO+TGcVvl9+hEKSgr1rAEVcDceWKb49MlDfXXAzQ1rbl+7+hrgAHCEIAB4q2OkIbt6Dk64/fhcSBGhIwzYjOoOCJdjBDUIzMAAjkt8gmc8XocfU7szMmssKT1kfpHvQfUB1F2JK2PioII+Fwzykf+/u1+OfqzPUoMJMf/83VxB+8FmP+w/RPzKxxeXtpx/dIQYq2tkrTCfPlotY88Put3mbrXS1ILIiUiM1RWB/vL8O3e8taS/fLk9N/lgXEb5b4x6+Xf4zfJ0zN2yrvLD8joHT6yKcxfIrOCdb3MLY2W/PIkKYJgXZVv3jjVVou7r5eOGycRAwy0o3cVENQ1AILqIi0ihAuMOH9uaYxkl0RIZnGYJOWHSFhmsPinBol/SqCEpgdKYl6wZBYDAEL1czqpy+IlozhJNkfEyIXDfpPXFwdKSHqh1Ki7C6KP+6Lc4opaVVDrMzlAY59tMdfbMVz6FcBAWGaZXDHSRzXVOypi1N7zcMXvsaNF3IZd6hOzQ+TOSQEat0awph40100btyXeE9QbIeUR688orpKQjFL1oqB0ibsf3sVN4/zlkh+8dcdPCWfi/Z+sidU0w5O/8VDXf0RmuXgnFcsHq2Lk8pHe8v3mRGX8u3oXq0e1rk6WBqRKn0ke8tlafwnLSJTCCvMmKrskUrJKwiStMESisoIkMDVQ/FICJTAtUGJygiW9KESySlgvwyWnFG9AvH6XjRhibFU15VJrAIEO34UGGGhHFzK5cd3X1dVqyl9VTYmiU3PYgHg0qT+xklMara4s82SPlOziSOFvXgc05DOpy1OkpCJDSitzFTmP3REr5w7eK1P2pkhGUZVbAwG6fkVgtjwwLUhd0dbmtLdjyHTRRngFMECcFler0azrAQwe7m1CBUd/vle9Apsj8mwSJLLul1znU4BLmPnR2eWyK7ZQlQWJ5xM2Ia3v/KGeCp7Mhj9cjT0iTprWl1chhRU1KomdXVotj880AyxEhMgagCQI+AKEuToQYETxluSVVcuD06jR4C/rw1I1K4v6Abj4C8qT1LPKxkjXyuJIySqOkKwS1ssoBQCH1stkXS/LqvKkqrZEICgaoQH73DcGGOhAP+IhsGQZVNeUS0V1sZRV5ktpZbYSWooqUqWwPFl5BXALzI9kKaxIlaKKdGW/MqkrqovUzVVZUynJu8sx5AAAIABJREFU+eXy1JwQNZDEYl0hNtjeLozJqZD/LQiXJ2eHCgQ0R3kFOD8MGrKtxGghaLEIG63tHmD3C79iwq4UuWCopxz52R4Vq9kXX9T2l93gE1w/bn/mCzt3eBPTPNJlwNo4dfXfPSVQd/13TDIr+FFLAwU/KmNuCs/TDBaY/ZmN0vrI6bc4+wAVO2MK5LYJ/nLOYE8lDJIWmFLARsANOlBE+STIGV/5o7f8tC9VMorKVQeAzCxkg9kIoRqId7WwIuWv62V5ir7HZ8jkqqgpMouw1ZGJUWuEBuw0TQww0MGOPOglqMdLUCWAgsqaEp2wxLIw9kzgg4/qPCmvzpfKmkL9HJUIa+qqzOhWKyTWy+bwPLlnapDmC3slFnfwDJ3v66xxKJ0hnsJiSvYAOdCObICB6JxyufJHH2VyU4PdaK33ADu6lIJKzfKA+f76kkg1gNSL+PH3ZLfTauBeRvufuQjJDyEf6liwY6c6IDoKuPzR7cfNj1Q2JYo1rc8/S36PIq2vROLzKiS7tEZ5Axj+1hrzEk7G9WP85LABe1QnYHdsodNkBbR27ta8R/iEolfXjPKVN5ZEaRXEmjqyHkh5rJbqugqprCnTFGrE1cqq86WsOlfKDz7M62VFNetlsVTrelmpfKq6esqZuzenypo+ttdnDDBgp55sDAqY5LX1VVJTW6FEQ5S4mMTmZ1Axri3LhMYVyM1hTh2EgYsCHAVj/k2Rnm2J6qK102k6xWFQPNsakS+3TwxQshSiKo5OiWLRRXgFMIAhY6dmtJZ7gP6iTgGGjjoDkNsQhPotqkBeXRSpoQLqELiqG5sdOfdZWgO7H4P8i2+meo0+Xxevxh8dALJbIPuhf/Hhqhgl9OEZIPsF7whpgQBLCIP0mS2NMtq+ycUaGiCD4JrRviobPM8r06FeMlvOsSOfxbPBHII3QYGwdSG5B/U9LJkGGHTc/Lpe1lU2WS8ta2aFehJYVyFv443VDCsUE93FfdKRjrbTdw0wYKeO5DBMcAsoMBt4FggetY0edQ2TudGEbkYENCS97GD53sX+thWMseMl2f1Q7JTgBrDAsgCuD83VhdTuP9TkgCzU7NjI2UZq19GeiCY/71L/pa8Yowm7UuWh6cEaytkXX6i7ZsJWyA0/PjtEDSR96swNWwHBD8PPmEdml2vcHiAz60CGjGio1vfaYnb+oQpynp4bJsj3Uq0P4Mj1wguwGH52ux0Fr2VVdapGSIlgigQxJ9FywONA6AyBLFdvlEZeGpCt5ZsHrInVTU1j2936eglAqFFeloYCEF1TL4DhCXDUvDDAgAN6Vid5AzAAHFgAguVvfTZDhxZ/HZY2cXRSuJAghQnv6o2FgAWZsrZnDzqgu052Zp3RMHCJDWCAmCyEOKP9tQfoJyrVwat4cFqw9FsQrgWeeN3SCB38sD1JPTukaQIQGi/yls919jMGGt6JJa2PYkBhGaT1FamS30/70tWtj5gPBZUoKYzX4+EZIfLq4kgZuCle5nhlHjT8ZJzAF7B3Q1cDWeKPtOiQjwzfniQIEVFhcNKeVA2dsZsuKK9xin5tz/UzXwgPwKG4Zby/hGaUttiXLa2Xf979M/8OzcH2nJPxndZ7wAADrfdPl74Lm3j8rlTdOXy5IV53Zs6w6La3U8pr6jUOS/wZ0iAuxI7usKw9F34nOb9Srhrlq4ass0CItefnDJ/D3mcWV2n/UKToxV8ixTu5+R0qCz1GlQwDhIk6m+jKfYCrn9/FuMLsB+ChJYGS3zzvDPla8/nDtb7C1T/6qBQ1RD08AF+sj1ft/r3xRToPudcA6Y5unC88IDIP0LwYujVRQYAFa4Vnlsmna+M0xo4cNF4IV2wQLsnagQvBc2Mw6YrX0x3O2QADTjzKLE3sbD5eE6t5xxQd6exF157dE5hWqrFY8tV9koulshMXOsBAamGlpn3Bx0D73WiHegA7iCud0rgo4729LFrJcBYjdeiT5r8qqus0xAMHA7c2hrgTbKn+OL9TWlWrlfeI28/1ypBP1sTJIzNC1Iie8f1+OW+Ip6boPTknVEV+Fvpkyf6EYv0O14kHAQPFvOB4jocByDj/oToCry+O0vPEuwKQadxvluwC+EI3jfeXhNyKLqkt0HS8bfk/10nxKkSpCLngYemM/rXlHI3P/rUHDDDw1z5xqlcwmLCaH/45WN2asTmQaVzv1sosqdaY6I3j/DRO23QRdHSns+hjsMgBZzeWUljp6J90meNjFBHLgThHbQh2pgrWWnGRY8BQ1yMT5JSBHjLHK8Mh2g1Um0Qtkng9KXiw+1Hpg3OCUBVeJtzQhDRe+iVCvt+cIHO9zWl9/ilmZj8EP3b+7LIbp/V15gBhIA8kFKnkMBk0PypvpXkAxfUu9s8SFAiRKqafXemOZ416b0WMPDAtWEOdhlegM2da+3/LAAPt77tO+yaLGXnL7KhJcyJm23g30Wkn0s4fYgGGSER5VRjahAc6+/wBA7jASXFC4pUF1mgiGFuEc5DIBQh8tT5eSz2TYtdWI55OiAChHYSjkComU6Q9DWOHsWau4yqH3T/bM0ONOyV/ce3zOw//HKI8GmLR326Ml0lU6yOtL7pAC1HF51YoKEENsKbOObgMAAHEhgircP6jd6Soh4I52VzDeELMBPRQJOpXvyyXkc/G40IGCp4NQpsUUDKaa/SAAQZcYJxwHZIWhzY8O6FlAdkuVWgHZjR52uRn4z7sip0CCy8LE+lbVH2DXNbdGws3xZvIlWd3jUeA3XR5tfUGHVb8muAc5Q5gvEIyytoEeow/JD/IpBFZZbrjx+BBWuQYGPp+CyMUAMCuh9wHs3/w1kQV/EHjf29ckYpI4dHA7Y/hd8aGZw+J4VcWRSqYGbPDXKWwJSBguQa+x31zz0+BKvIE0HIEmdHye/Z69koq1nHDS4MnpwW8Y6+fM45jxx4wwIAdO9ORh2LXBGkLpTMWFohPpEw5e0O9bui2JA1z4J7vqgJBxL5zS6t19/vdZoq/dG8wABBAIAdPE25rCG3syG3lpNCvxO+pugc7f9q+tIPhAmYnQLaksk51HXD1s0PWtD7PDCUqAkCQ4MXos/vH/f/yIrPxJ91ugU+m7vrJpsHwAyLaMqTOck9wrlxv/8VR0mcy4lopKnxl7fnjZcE7Aulx4MYEicgqd1rjitEvqapVYiZeomkeaW4nSuUs88pR52GAAUf1rAOOy0I9ZW+ayp+iXa7udgf8jr0OyQ4QHQFchqi1dWXuNEYrv6xGwQA74YRuDAYAkXgEvtmYIHdPDVIggDS0tUaqufkRkFqiBL7/zQ9XQR7AFl4CqvWRIktaH8CDXT/pshiMe38K0u8gYvTNpgSZeSBdMwHwFhAuYL676s7SAgTw5pE1MGpHsgJQW/qYay+oqJH3Nf4epCm5BRW1zXV/l7/GWBGquXm8vxKeyeowmmv1gAEGXGi8WBwKy2tV7AXBHkRTrIntdsUlsuhB2INNTKwXg8AusauaZWH952g/3WWRS98dG2PADv3j1bFy20R/fSbObkujLzkOO1eMHt4fMjXY5ZPCx3iTlfDCLxGax0/hHWLfiOs8PSdMvQgz9qcfzOfn+3AX3KXh4ocsiBGnMBa6Fjml1e0GNoQZAFB4T0ib7IowW2tjU9dwrz8zN1z6TArQmgx4nozmWj1ggAHXGi89WwRLWHCRSiV26owNkIKYysU/eKmQSleXDMaAUS752jF+uiO21QA6Yx/bek5gMfQVXl4UocYZg20rkRIyHDwBvkfYapFflny5Pl5FfC4d7i29v9grPT7ZrRkGD0wP0jK95PzvjS9UUlxJJfLb7mP4m44B/YOOAPLFAIGRvyV12MNBf806kK7ACs8KdQ+cqaE0COfjhK/2KaGTTYDRXK8HDDDgemMmaJqj4nf/tCAlFTobY5e0QdzD1G9/b3mMoC/Q1bsZ7A+GCDAAcx5CZndqZHRwzc8vDJfrxyLJnKSSw615a3iPlDzCUcS+53lnKkP8uQXhcteUQA25sOu/a3KAEB74emOClt5F0Q8xoiX+WcofgOBnSetzdyCAbDNZA/QPHAHuTXtgn/Tiag2zwBlCIrmr7yfLvcMcob4CaZ5sUMgucScvj+U6u8OzAQZcdJRJPcKoUd1w8p5Up1kcWKQgosEGv2mcv2okkObV1Y0FGZACGGAnSy50d2m4rckSgHhKNgqKcJRztrhy2afDxs8prVGCGzr8GH5SMN9cGq0uaoAn1QofmxWihYq+Jq1vT6os9suSndEFCviYk2RpEPvn8xDnABNdGB3qtCHGIwAQgEVP+iB9DG/CHkCAi8Do7kso0qwcCJ+7Ygq6NOxm6ViAIvyli3/wVq5IUaVzchos52s8t9wDBhhouW+c+h0Whx0xhbowQ9AjRslrXd1SCqu0wM2lI7w13xgimL0WxI5cGz2DR4WdLOI6lDPuDg0ARObJO8uj5aZxfkJdeciDiC4BCHbHFaqrn7Q+Yv4U7HlufrjG9p+ZG6bzCwVMFvzpVOsLylGvD4APdzCLvwr5NOpMihyRBnj9GF8VI4JX4M4N8tyBxCIFAqggUnAIsGlvLwjACm8L5EuqSHKvdeU9z7iS5nzv1CBBC4J73Vk8Fu483xx1bQYYcFTPdsJxIV6ResVOgcWexbkrb0YWB/TUWRAhO0HSw1A4Q+MsWLSvG+unJVUh0bl7wyND2WEyOeBu/GdGsEzdm6a5+kjhYvyJQT87L1zT+gABeA8+WR2nVfTwDkBYC80oU64BKYLWGB88DsgEMwcIIaBmSJjAHRtz3kOVBSPUSwcQAAzZGwhY+o5iW4QJyFAgVNgRYqLlmO15BuAzrpAkKfa0K9Y5PBXtuRbjO+YeMMCAi8+E2JxyGbQ5UeuF/+KbpczurjC/LH6+KSXywapY1ULYFJHnNEDAMsS4wollD1gbp4x6y+uu/szCDOgqra5THQdN60svk9XBuWrcT/tuv1aJ/O/cUFWBJLZrdvmH6vuEm9j1b43MV8OfUVSlWSodcTShJ7HEP1suGOolAzcltKq456r9DxAA9LyzLFquGeVzMDTgKCBAPwHGSNtDj+HWCf7yW1SBZnR0dh+yEcGbRHooKaOuIIjU2X3kar9ngAFXG7Em58viEJhaorn8d04MUKIXMeLObpRfRSTmzskBujg4oyIcXhPAAEVtcJG7YsPwM+ak9bFTJ0sDZr+5Wl++AAhRWOw7P1wJfucM9pSLfvCW2yYECEV7UPJjR7ktqkC5HVSXs3AH7NkfnCeeKkt1PuSoCyuciwXfkeulUBNA4N3l0XLFjz4yZkeyusnhDji6AULI6SdOT/8S9ulMjyBgB+BINhOgxB3Kqzt6zFzh+AYYcIVRauMcWRy2RuTL6d/tl0+7wNCx/C0PzNHdJhXsnFXdj4UaAh059uFZZW30qnO8Td9iX1iAAQGkbGL8cdFiYCnMQ2yf6zpvsKem9P3tq31y+IA9cuEwL83pRxY2Jrtc4/udYKsOdhzny1wAgD09N1S5Bp1hLA+egIP+YCzIrkAsifRBJIYra+o6tZgQXBAUPQn/QCAmXNBZjXLRgCAUJ0l5dIcx7ay+c+bfMcCAM4+OlefGAp9fXitfb0hQ7f2f96d3quwvhW5eWBghj84MEXTjMQLO2jCa7I4hwDlzY4FF3pUYMeRQ8ri/25Sg5D6kbTFClBq+faK/PD0nVHkQsPuHbU2UcwcfkGtH+6rrn1LNeIoII3T2sDAL8DrM985UsKLhAhcXe2JcSJuFwHfnpAAZtzPFHJrr5CkPIMkoqlaiJwRiiHydldKHRDKphF+sj5dUQ1PAmZcRm87NAAM2dZfzfhg3IaQ4KgM+OTtU9d87wyhjaJD3hVEMsQm3szM3GPUfroqVsAznAQMYamKwMNA94ovU1W9O64vS8aRv750aqMRMVP1IjcTwE5OHIIibmMdiv2y5fWKAAoS5XhkCEOhM93Fz446NhGX+7opo9RyhPOiqZEKAwO7YAq28SUnxCbtSNCujM70tjfuYsd0YnqchQoigFAlyZAOAkEpIwbF+C8I1VNAZa4wjr8k49qEeMMDAob5w+b+4MSnnCjmMWCJiP45s/N760DwtwvLBqhglELJgOHOjOh/nCkO+sxvGBHcyLl1qARBzXhKQrcSzz9aR1hepMVhi+wC6V36N1JDG0K1JMt0jTfO42ZUSo0VJEHctGRKQ9daH5SlP4M5JgQIQSHMCIGDpX6YEefFkF1DCmgp8rtYgyO2NK1QP2H9mhMiE3eYyxIxpV7aC8hqVO4YU+v3mRIeVDOYqUZ4csjVJiYtT96UpyOvKazd+2749YIAB+/Znlx+NnTkVzti5sFNnx+mIxm42Pq9S09JIJSSlkDimszcY2ICBkHTHggFAEfF9hHxQ/kO6V6v1HUhXmWZIjOzmIPpBxIJr0X9JpBZ5Qct+rlem8kBUE6CgSsV7miNlAgTIGnjp10ihXsXMAxlKKqzv7JhAGwMPr2Xy3lT1bpDN4UqStZasAUIDiCkBBBhTZwG+Qeml6nnhPkQeusYBY19eU69eK8Js8AWoeOks19/G1DPetrIHDDBgZUe50sdUG31RpDw2M0R3jPZ2FbMZwvU7cXeqoEc/cU+quqRdoY9wo+M1sWdVNTwkACEMM4Q5jr07tlBWBGULOyhc/iygz84PVxcrizbhnFcXR6qKJOx+3L14cnDtUxLYmh0nPJFVwTkav8YbBFeE8+jizWqL04AMDrQNSEeDRwCgdPaGhDXeGIDbjWP9FAgk5jsPEKD/mH9rQnK0KBjAEq+XPecA6wfqkoDof47ylQ1heZrJ4uxjZ5yfbT1ggAHb+sslPs0Okh0Csqj9FkQo+9yeiwMGh9Sma0b5Sr+F4Vpn3VV2CWi7I5TCjtvWRh+y8MKTQG+fgjGa1pdWqvnev/pmycjfk+Xt5dFq9CGYsZPiGbc/iynAaVN4ni7YmcXVUlXTvjK9CArhjaEK4IPTgmSWZ4aU1zi3Z4YN65YIc0oapDfEeehPZ23Mc0IDby+LlitH+sj4XSmSWVxlFVDr7GsCiCIoRRgM3QiUIe3VtYSjVgRmy3lDPNXrSIjKaO7XAwYYcL8x1SuiQAr66JSOpXogseWWGssxho7Fgwd/t7RE8x6G9I0lUXLeUE+VYXUlQhhMfMCANXwKc5+YU/pgxWOALWl9yPIO/y1ZY+B4Gy76wUvOHeypynC4699cGiWT9qTJ71EFEpFZrl4De+yEGRcMKJ6EuyYHamgAbQGkll2hYaRQNiQbYsCaWCksr7HrLtZefUAfw+kgfdAMBFKlTD029voF+x+HDJkBa+LkH0M9ZXtUfqthu+bu+ebOCJBPlVTSV/852ldJrp2VtdDc+RivOa4HDDDguL7t0iNzEweklsh7K6LlshHeurA1Z7T5HCls1KNHPpgHCnTESXFV869xYzc7YXeqOb96Z7I5d73xB5z8b6RT31sRIwGpLXsGuG7i/ej3o6q4IihHtfmp+EdKFcaB8AiZCVToIzth2r503fHT5ykFlSqww84SEIZhsdcuDYME9wCPA0Q2UjnRrAe4uELjPMl6+Wp9vJw16ID2GeJJztQYf4o1QXa8baK/hsMof+3sfcxcow4FcxzxL4imTT0v3M/c83CJqG2A+5/0VTwekFvZBjS+5/ECUM8C8DYH75ML8IKcaS650rkYYMCVRsvGc8Wgb4nM13Qz3NQswiwOuLjZ3S/0yRJq2r+8IEgen7RXHhq7Qx9PTvWQ138JUSU7shPQEWARgFGNuBAx777zwnWXbG8+go2XaPPH754SdJAAxZc5f4xpQl6lpmaRrvfDtiTd2T8+O1QzJdiBPzA9SEl+n62NUzBkSeujZCvfJWRQXGk2/o7qE9QGF/tnKxB4Ynaohgl4zdmNVNNBApSSQonBQpsCYOYsu02AAOmaEDph6JPCCdnRFfoYPEi4gBAhXipSfuMbiI5kHXgnFyuv5NN1cfLCHH95bOIeeWjs7/LwuJ3y9LQD8vaScKFmxbrQHEnIr9ANAbwXTSVcGKGAASBhNPfsAQMMuOe46lVx32YUVyuJ7R9DvRTh/+qbKcM2x8ozk3fK9R/NlPP++7WcdE9/6X3T03LMdY/JMdc9Lsfd8qz8/f635B/PfSc3Dpgrz//sIaN/S5A5Xuny+pJI+ff0IFkbmit1LrYwwKVg10RBHsrsAmzG70pVwR5q0EO+wsiS2gdzHHGioduSZFqjtD7IWZD8CipqlTvQWV2AQYJ0B1GQxRnvAEDAXh6HzrwNLEaLjAm8VhggjFZXN+YHKZDk0D86K0SBQGKe/coQd8b1AUQJZb2/MkZum+AvU/amKTj4Zm2kPDZ2q1z9zmQ564lP5cS7XpHeNz6l9/yx1z8ux9/2nJz64Lty0fND5PavF0v/eT4yZEuc9J0fJg9yv4fkGtkDnTGAXfgbBhjows7vjJ8mTs3OnsqGt433kdsHr5cLX/5Rjrn9RTFdcLuYTrlATL1PEdORx4npiGPNj6OOF9Nxp4np7xeL6cI75di7+sulb0yQmwZvlpvGeMkHK6Mlt8x5xYUwkOw+qZeASApiLOtDc2WWZ7oWdLryRx95bFaI7v4saX2wxQesjVUC4FzvTNkcka/pUyys7KowFJ1l+BvPCwwn4QpU356aE6pgBSCAd6crzqfxuXXkb4wWAAdtBTgWi/2y1EPTkWN25Lt40cgaAAhAbkTiFxe6K/Yx4QJKKlNCus94L7n9u5Vydt/BcuRNfcV07o1iOvFcMR17csM9f4z5nj/6b2I6/nQxnXaZmC69X/52/7ty/htT5ezPN8pjM4MlLKO0IYBgeAY6Ms+c+bsGGHDm0bHDuUEs80sulkem+shxL00X062viOnMq8V01HFiMvUQk8nU9uPoE8R07g1i6vOOnPn2PHlnUaBEZJVK3R/1f4ov2uF0bT4ERoUQBu5RZfanl2q8l10/KXuDtybqLglvAKmWpwz0UM1+wiawrsl9x8tBrD+poFI5EE3jrDaflJ2+wLKLeBBeDLIGnpoTJquDczQlzx2WZPqZFMx7pgbJW0ujtRSwo0IsrQ0JwGp3XKFWcESHgtAAKaKuCAQ4Z+4HsiBuGLZDjuo7XkzX9xXTqZeI6Yhj2r7XWQ969DRvEC7qI0c88KncNHCVTN+TJGlFFVJb3/X3fGtjabzX/h4wwED7+87pv0kKXFBasXyyLFiOe36y9Lj4X2LCsFsLApoChd5/lx7XPC4XvDNDvl4bLkkFcBA6Z3HA+GEoLGl96BxAdiQr4LfoAiGtj4IxZApg6O+eGqjkL7IHcPu/tzxasysgQgEMtkTkqaIaMWJnbJwVSoXI9yIg9fTcMHXVOkts3V59BiAY8VuyZkagx5BR3Llpa3gEAAJvLI1SktzkPWkaWnPSadFmt0Na9UoslGd+9pbjnxoipvNuFtORva0DAU3vd0DBiefI4Tc/L5d+skSm7mF8KqWmk+75Ni/W+IBde8AAA3btTuc5GESf8MxS+WxlqBzVb4qYTr1UTL2OaN+i0HiROPxo6XHhnXL6W3Nk4MYYySmtlLr6ltMW29sjnD+GgpQ+XP7kOlvS+taF5GrJ2P6Lo1Szn/RJ0qkuH+EjEARx+ZNWuTGMfP5SFUiqrTOf48MzguWtZdEO13Fv73XzPQwRizoSxOSNI+MLEbQrds0duQ5rvwsHgxS+B6YFy0LfrE67TgixeCZeIX3wRx8BCJA+6pzwsO3eJCQYkFos/53hI70eGyqmk88TU8/DOn7PH32C9LryITn94zUy1zNFckqrpN4JvIJt94jxCVt6wAADtvSWy3z2D91VTtiZKKf0nyk9zrzSPouCgoIeGmPsdcFtcupHa2SZX6rkl5kXB3t0DwsxAIB4cmBqqawJzpUR25NUbpe0vkuGe6vhv2a0rzwwLUjeWR6tqV+bwnM1xk8qFG5fAER13R9qWBqT7MiEQAMAeWBnbFw/wGfKnjS5fKS3EhkpQVzZik6EM16HLecE8EPV7rFZoUrijOiEipJ4hOhXsgZuHu+v/V3qxOqN1vQnIk7frgmTI58dJ6a/nSGmXnYAAtzzPXqoR7HXVQ/Lxd9uk9+jcqS8usbgEFgzKC70GQMMuNBgWXuq7CCXB2ZLn+9XSa/rnhbTYUd2fHfQ2DvA4nDsyXLYjc/JnaN2iWdinlTVmhcHa8+Rz7Ego3HAjt83uVhz5kf+lqzxYwwDRXcQ9EG+FqIf7H40Dpb4Z+lCTlpfUn6l6v+zo8Ngcu2t7exIZcMlfMAJwQBGEb0HlO5g2SPsxM6Va3P3Rt77uF0pSnT9fF28grnWxrEj/UE/I8pDuAiyIIx7wk6O+r2OnKu130UHYe6BVLnow1/EdP6t9gMClvuekMGxJ8kRD34mr8w+IH4phVL/h1mLxNpzND7n3D1ggAHnHh+bzw4Di3b6R0sC5PhHvxLT8WfYFwhYFoeeh0mPE86SY/uOlVFbQiUxv1Tq61teHHBhFpSb8/l9kkvU8GP0qNZHWh9xfQw1IACJYwz/sG1JmhcNaQ4xFUtaH4aDnX973OYcHyO7P6HI5r515BcwUBS/GbMzRUsQ4zaHBIaXozs0vDdoX5DRAQCk5oI9FBub9h2hJzgmFIhiLiDhCxh1VY6A5fq8Eovklem75PB/vdt+joDl3m7puWcvMZ1+uZz11myZ5REvBeUVUg9/wNU7z9KJ3fzZAANuNgG4MVcGZctdA5eI6YqHzMzglm7ujr6OG/KaJ+SBUZtkR0y21NRWS12dWXgHdj+7dgw/LmC08xHz+Xh1rBDrZ1f29NxQrZ3wxtJoLWCDV4Dcc7T7/VJKhBxvjgNp0F7rDToCcAo8nAgMAAQis8tl9I5k3akSw+b8YIV3p8b1WsIFjBPgyJ6AALLgrphCeW5BuApn4RFAMMpec6urxqq6tk6m70uRy96ZJqazr3cM+LesFb0Ol553/9//t3cd4FFfImiYAAAgAElEQVRUXXRCSEjoSFdAqgXpqAFFBEUBFUSK2FCwIfIrVZCiotI7UqUjHUF6F0INJCEhvffedpPtNZz/u2+yMQkh2fTd7Jt882XbzLx3XzvvlnPx5fZr8IyVwGA0L6lWVcmGP9d8CXAwYL6srOKXOqMRs06GocXIeRAaty12YqhZsyZat26Nhg0bgl5TqGH9+vXxxBNPsP9Fhh6SuaDhE2g8fiOWXgzCnag0XAlNZyYKmmjJO/y7o+GM1pU8/GmCH7MrgMWWU1gfhXBR+l33WDkL5SLNQUV7y5MG4vODIYye2RIalFINEzMkJTgifwbKZEjsfKXRelhCfcpaBvIVoUyPZCYhJ1Civy7rYk3qf8qJQMyCRDFMESb0DAKrZb13Wetb1usJ/MdL1Zi83wu1Bk0RuQNMC3cx/2mcd+rUCS+88AL69OmDrl27olmzZqhRo0bR80a7vugxfSf+8oiDzqBlGsGy1oNfX/US4GCg6tug3EpAE0OqXIMRm91R44UPIdg7FD2ocxb+b775Bi+//DIaNGiAevXqoX///vjkk0/YRFEkGKDJhgDBoFl4bcVlfHnQB+/v9sHrm+7n0vhSbPykv0MZ+yHx6BPXP6llaZdGO+LKPihEj8AAmR2q+qD6086UzCGDNolREGS+sGW1q0lL8um+IJYY50KwhPWVsrQVmVoICBDBEUWeEP8EMXNWQfcrSzUKvZbU9FfDMvD24hNMS1fseM0BCE2bNsXgwYMxbdo0LFq0CEuXLsW8efPwwQcfoHbtYvgIajdE3fd+xa/ng6HQKmDIJkrsyh/LhQqEf1hqCXAwUGrRWd6FNDHciZbi1d9OQnj2zWKBAE0cLVu2xJUrVzBlyhQ8+eSTDBSsXr0aGzduRKtWrcy6h/D8h3hs0l94cfVNfLbfB4suR7GYeIoGoJ0eU/NbiLhG7wrEhAMhuB5RtWCAdv7EI/DTuSg8v+oeS5NLTpR8UhXZIylTXoff7zJnTyKEKi1wpL5HUQOf7g9iQICopVliJwvpj2UtBvnp7HJPwAvfbxIdB4vRBtCYt7e3x4QJE3D8+HE2zsePH49Ro0Zh5syZOHjwIBo3blz8uH/1O0zefxexUgn0Rh3zHShrXfj1VSsBDgaqVv7l9nTyoSd7/X7PBPT8bjOEJ12KH9AFwMCAAQOwatUqrF+/Hj179oQd7frNmFyETgPwwqxd2Hk3AhKljIUdEX0vTeCWtmEgxzHaIRLRTFUdJJdUhQ6U9KjTwruYdjyckSfZqmmgsHYgzdGKq7EsOyRFkJC3f0kPkvO/zFkwgCV3It6G8vQ/KWl5yvv3BByN2QYsvBSJ9h/9CqFpx2LHq4ODA9q3bw83Nze2+NNr+oxMhE5OTmxzQGCh2HHf+wO8v/YM3KKToDOo2dzDgWx5t3Dl3o+DgcqVd4U9jYGBbAM23YxB5y9WQHiie/EDOgcMXL16Fb/99ht27tyJ5cuXY9CgQWxiKHZCMAGFNr3Ra9qf2OMeAbVOBgPtFB6UPxFReQiPHBfJLk8paqviIG/2sDQ1AwLEmTD3dCQDAtWZR6A0cqaFPCFLw3xMiCiKQmUJYJp70PVkYjAl2tl4K4EldqpOymzSBNJYm3UqFC1HzILQ4PFixzz5CXzxxRe4dOkSXnvtNTg6/kdERuDfLCBA477rcLyz+DAuBcdCoydTAXckNLdvWurvOBiw1JYpYblMYGD9jWg8O2GpmH/AtFgX8Z/MBAQGzp07h1u3buHbb79FkyZNip1U8gGFVj3Qc8pm7HYPh1qXCYOx/EiISiiGYn9OiWjIW/9qFYAB8own+uTZpyLRa+U9zDkdxcLpKEySHw9LgDQllJSJuAAmHg5l/iYP/+rhT0xAgJxVh2/zYz4CxHJoaVqqh0tesk8IcBsMWsw8EYLmw2aKiYaKGOs0ZskEQP4B+/btQ/fu3eHs7IxXXnkFP/74I/MZoP8EGPKN78Lu2eUdvPX7AZwLjLb4DUDJpGq7v+ZgoJq0vagy1OPP29Ho8vUqCK17Fj+g82gGaHJwdXXF/PnzzXMczDtBtHXBizO2Yp9nGFQ6KfRGjcVqBj7+K0gEA2HSSm15YkP0iJUxIEB5E4hfITBZBcowx49HS0CiMuDXCzEYusWPOVpSqGlRB9E4k2mAgABlpiSNgLUmHSqqnvQdgQG9QYM5p0PxxMg5EBq2LnbME9BfuXIl9u7di27duqFWrVpwcXHB1KlTsWTJEnh7e6N58+bF3kfo/h6GLz2CyyEEBrKgt+ANQHFy5N+LEuBgoJr0BJPK8JhvPJ6fsRNC+5eLH9B5wMDcuXOxePFibNmyBV9++aV5TkQmQNB5CN74dR+O+4VDpZOINsRsy4yR/2RvECM5Iu/yyjqIXpn4FmadimS54aefiEBwigrG6rZVrSCBEucEcUMQKdVxv/RCwy5Z+KDakAMEAvHaBh9supXIMlFWRzGLmkAjG2vLr4Tj6fGLIbToXOyYpxBicha+ePEiixoiMwF91rFjRwwfPhyJiYl4/PHizQ2Cy2f4aOM5eMYSGLDsDUAFdctqd1sOBqpJkxIY0Bu08IpLwWtLzkLo8rYY9mdasB/x32QmoAmib9++WLBgAbZu3Yq3336b7RqKVRfSfftOwKebTuNmRCRU2gyLBgPEdjhuXzBbNCqj6Yk3gUwDU4+HswWKNALEK8AP8yVA5pWDXqkMDHy8N+ihnT4DAhoRCFBIYtdlHthyK5FFslRHIECSMzkMk/Pe/nvReOmHbRA69i8WDJCT4EsvvYSbN2/iu+++YyCgbt26zDRAIcUJCQnFgwH7mrAfNAPfH3JDjDQWKr0IBh5YqJ+Q+T3Ntn/JwUA1aX8TGEhXSDFmuwccXhoPwcG52MmBwMD58+cxefJkRjREBCQUUUCAoF27dsVeT1nR7N/+GXOP3UBISjSUFg4GiOZ33N4gXA6pWM0ALVC0iIWnqVmWREqGM+9sFCLT1dWkx1VuNZLlOpaimnwtll+JE3MX5HgDEnMhUQyP2xeELss8sM0tkSV7qtwSVu7TTGBAb1DjZmQi3lt1Gna9xxbLOEpOgmQaWLZsGY4ePcoiCl599VX069cPEydOREREBIsoKHITUL8FGo1dgoUXfZCpToBan8nMBBwMVG4fKO+ncTBQ3hKtovuRz4AhWwe1XoafzgWhzce/m6U2fOyxx1gEwYgRI5jjIIUYDRw4EL/88gtGjx5dNBig5CVNOqD5xB3Y7uaLdEVsLhh48MAyzQTEMUCmgoshkgptKYoaIHKl93cFsPC4xZdjRJV1hT61+t6c1n0yFxBhFEVhEIcF+VuQqeVSiBSjdwagxwpPBgQoXXUOTqi2AiEwQImCyD8nVZ6BaUfvw+mtORCcGxQ9ZnM0hOQ7QIv/gQMHWGTBhQsXcPr0aeY3QORjRYKBZwej77w92O8ZCJkqkTkNc58B6+9qHAxYfxvm1IBijvXQ6uU4HxSNwYuPQeg5ptidAoUSEQUpMQ+awoqIgYwmi2K9ionhsO/nGLX+DK6EBiFLnZDrQGipuwSyPZOq+WJwxYEBWqS8E+SMA7/zEneWYjminHn2q023LUFFyDmQ8lb0XnmP5bag3AWUy2D0rgDG4Pjn7URIVUU7GJbgcRb/U5M2UKnNxM47Yeg1YweI86PIhTwHDNBYJ18B0v6RI2GPHj2Y4zAxExZJR2zvALsh8zDlwFV4x4dBpk6GRi8TiYe4mcDi+0xRBeRgoCjpWNF3okORATqDEnHSZMw57ommYxdCaP6MWZODORNIvt/UdIRd86fR4PNt2OB6F+Fp4ZCpk3LDjCwVDFD6YooooBj0ijgoTPBGRBbjMqCdKuVfICBA0QT8KJsEyP6fkKVlKZ7bLLiDb/8Ow5ubfTF8uz/Lbpkoq37hg0VJjGkDjTrI1Fk45B2G11aeh92bP7L04oJgHmEYLfxEOkSOhKbNQL5xntfXqEZNCJ1exdMz/sLuO95IlkVDoU2FVq9g5EecdKio1rL87zgYsPw2MquETG2YbQTZEBWaDJwNDMd7a06hZv9vclSH5k0Oj5wI8k4KdvYsQZHjm9PxwbYruB0VgHRFNBSaNJGAxGi5XOVfHw5lyWrOB5U/GDDZrikm/tX19xmDXqxUW66Z98zqDNX4R6R1oVTH3ZZ5ot1vd1m6YwJcLA1xNa53YVUjPoUYiRL7PKPx5cG76LPqMp6cshdCj1EQataCuYDArDFPGoHGbVF79FLMPOIKz7ggZKrjoNJlQG9QFZm+vLCy888sTwIcDFhem5SqRKINUSQhIbVdfGYitt70RffZ+1Cj6zsQnOoXazIwa1KgnOYNHoeTy1j0/PUkjt33Qpw0LNdEYOnUpBOPhOLDvwJxrpzBAKmwyXZNQIB2q5SOOVlG5EtcI1CqDl3IRSRJyitAbdd9uScaz73FCInOBWXYlJzJTyJTbWCZN4mKePQuL4ze6Ybpx+9i6pFbaDVxK+w69INQq65ZEUXFjnt7RwYEnAZMxJtrL+JisA+SsiIg05AmMIuRjJEmkGsGCum0VvQRBwNW1FjFFZUGo9GoZ6YClTYd/onRWHjOHR2m7Ib9s4Mg1GsG8v4vdvDn1QLkfU0+Ag1bwfnFMej+4z4sv+KJaEkQpCpRXajRy0Uq4mzLnRgmHQkDsRCS7bm8DrXeyJLhUKTCG5t8sfTf2FJx6ZdXearjfQgI0AJ4KUSCj/4KZAyOlPK53zpvZopJV1R/XwHClQQ6Q9NUOOidyqIn+v/hhc8P+uOgVxTC0+LhFReBbw+5ocWEdajZ8WUItR+DQAA+7zguyWsHJ9g164i6/cejz+Kz2O95D1EZwchUxRTQBHLyLGsfdxwMWHsL5ik/gQHKYkaevaQdkGuSEZgcgQVnPdB66kHU6j0Sdo+1geDgVDItAUUNODjDrmlH1O4/AT3nHsDiSx6IkwYgXRkOmSaBxRrrjGoYs40WvUOYfDQMH+wJxJmAsoMBmpxJbU0Z9kbtDGBpm9e4xrNshHmahb8sBwlQ4iLSvJC/B/EI7LibhFtRWXh3uz+T/ZnADFAER3U9qG7Evkj+KHPPRLLIiZfWeuOP6/EITZVDrVNBrZdCokqAb2IovjzkjlZfbYBj1yGwa9ASQk3HkmkJCEDUqosaT3RF/cHfoc+Ss/jLwwvxmYGQKCOZf5BKlwmdQQPjAyPjPaiusreVenEwUM1ammkHssmRUM3YACkOOFYShg03vNFt4UU4vTMPQru+ZocgMbujc0PmpVx7zFIMXHUJW297IlbijzR5KDLVFE6YxpyIWIIiC9YKUFP/72gY8/InL/SyHgQEfBMVDAT0WHEP2+4kQWJD3uxllZ+511OOAor+GLkzAF2XeWLn3eTcpEV7PJKZf8ZXh0OYc6G597S235FPBPlG9F3rhfa/38V3x8IRlKKE1mBk6YMNRookUrDdukQZi6iMEMw/64ln5p2Aw+tTxFwlDrXN1xDUbQah67to9OkfGL7lGv7x9UaKPAAZSjIJxkOpy4BWrwI911KTkllbG1d1eTkYqOoWKOfni9oBymZGk4MSCm06pMp4xGSE4nzgfUzc54pnftgP53d/gdBjJISWz4nZzsinwLG2eDo3EnnOW/WE0Ot9OI9eiq7zjmDWMVdcDLqHqHR/pMpDmXlArklhEQTEfkhaCXq+JR9TjoWzsLRTAellKibtVF3DpQwIEKHQvnspIGIc7iNQJrE+dDHtiE8HpOO9Hf54baMPtt9JQpbGkMsjkKbQMTInctgk84whu/qoq2kkyTQGHPFOZeGTz6+8x6i0T/ilMzMURaiIw400giIDKWUNVWhSIVHFIDwtGIfueWHcjsto+91uOAz9EULnoRCaPw2hfnMITvUgODpDcKwjmhMaPwmhTW8IfT5Hw49X46WF/+DXszdwK9IbsdJApCvCkamKY3MKmQRJA2npmsCHOhT/4JES4GDgkaKx5i9yzAUGMhfI2W6BBnGCNAzu0QHY5+6B2X9fxpClR/DM93+ixSdLUW/YXDgPmQnnoT+gwYj5eOKz5eg6fRveXvE3Fpy8iiNe7vCMvY9YMg0oQiFVRkMEApnQ6SmfuXWkMJ36Tzje3x3IsuGVtoXJdn0qIAPDtvmjzxovHPBKRZJMVyhnfmmfwa8Dk+cp/3SM3OmPd7f5Y6tb0kO+GKQ1IHPBlwdD8MYmH+a7Ye2yIxBAYPNOtAzTjodjwPr7jFRp7bV4RrxE/a8g5s6rESSnPhqbmapYtgm4GemHHbfvYsr+i3j1twPoOHkTmn64CPWGzWFjvvZbs9Bw5M9o/flqdJ+5E2P+OIHF567hhK8nfBN8kZAViAxlDhDQpDHwz8wDVgD+rb0vVGb5ORioTGlX4rPEyYFCDTXMf0CpSUOWKh4ZikjESILhGeuHk37e2HrbHYvP32DgYNqBC5h+8ALmHruMZRdvYMddd5wK8ML9eB/ESvyQIg9ik4JUFcvIRoiGVGdQMadF2plYulaAxE+TK2W0o91VaQ4yAxy5n8ZMDW9s9sVfnilIU+g5ECiNMB9xDS2G5JRJfh0jd/gzrcBWt0SwNMSFXEO7572eKRiy2RcTDgQjXWm97UE8Ff5JSmy4kcAAwJubfPHDyUgGXslUQBTXhR009lhKYyIeYybCTKYhyFLFIU0RjqiMINyJ9sXR+17Ycssdv5+5htlHLrHxPuPQRcw/fgWr/72FPe6euBDsBb9EH8RnBiBNEYIMZSQzDSi0adDoZGxOMWYbuHmgsIaw4s84GLDixiuu6KbdgoE5FMoZVTARA0lVMchQhCNNHozErACEpfnBN9EX3vE+7PRP8kF4Gu0I/JEiD0SaPIhpAySqKDYpyDWpEJ2HLB8I0NRJyYJkGiNT41Po39tb/ZgDWqpCx3ZgtLs055Ao9Tjkncp4CiiD3o47SZBrjDDzcnMeYfO/oZagnS+RQr233R9v/ekLAgJxmZpc00BhQqIcEL9fjGEhh9vvJrF7mNeqhd2t8j8jc0icVMtA6swTEazeBFrX30hAQJISxGFR3JEXEJDPEDMZaNNZ2K9EGY10RRhS5cFIyApASKovfBPE8U5gPyDJB5HpvkjKGfOpCgJV4WyukGkSodSmMy0jbS5MQIDCmflRfSTAwUD1actCa2ICBGTfIx8CtS6TsYbJ1AnIVEUjQxmBNGUo2wGkKYLZZEETBu0I0hShTBMggoA4Fp1AJCNkeqDJhjkPWahGgNIG0449IFmJf0MkOOAej7WXgtF/+XV0WXAZ47a7Y/2/oTjkGQ/XMClLKUy7/kftvKRqA47cT2W5BoZt82O2awIC/Cg/CdDSQnTCBATG7g5kJhjyEUjM0ha77BDgc4+RscgCMt24RWcx7UL5la5i7kTqfvKB8IyTY821eGbCovDU6cfDcSMik4USFjQJFFUSE98ILdikytfoFVBpJcxsQI5/ZN6jMU+mvjR5yH/jnca8PIR9nqGIgEQVzUAEMQxSlILWoGB8AuQjQBoImlf4Ub0kwMFA9WrPQmsjAgIjU+dTYhPyOqYc5DTQiTgkUx3P7IukMfjvjGUMY5RvgOyPlJpYo88SzQLZZB83MKclS5sUyIGPFm6feBl23Y7Blzvd0XPucbT6aitqv7cQNYbMhfDGbNgPmYe6o5eizcTteOHnU5i4xxMHPOIRkKRgu0qTtoB2/WS/Pe6XjsFbfNiOjVTSFO/Nj/KTAC0tpO4/HyxhPBDdl3lij3syi84wd9khQiIy/7T8+TZmn4pEWJrKYh06aS2laJSkLC0zAXy2Pxgua7wYCDrglcLCCEsrXZGNNBtGo5HxfpApj0KNlVoJMx2wMa+JB5n7/hvvMSwyiAADaQ9F7Z9E1AawkGG9GEL4gJwWzW2R0taAX1cVEuBgoCqkXgXPpAFMiJ6QPYUAkrqP0L5an8WSC9FEQemHSR0onhnsc9IkUPIjmlBE72ExlIjuZ2mTAgEB2t1vvZ2AQWtuodH4PyG89CWE1j0ZfTLzmibOBCJdYXHU9SA0ag2hzfMQ+k9Goy924a31d7DfMxmpctEhkIAAURd3W+7JkuH845tmFTvOKuhiZXokaXJIziN3BDBV/18eKdAZSh4ZkK7QMb+QDr/fxf57KYyxsEwFq4CLaS0ltT+Fpc46FclCBV1We2HNtTiW4ro8xpVpfIpj3sB29QwU6OR5xvx/413Bxj6NeQn7XhzzapYJNVcbUKx+pgKExW9ZaRLgYKDSRF31D6IdA00S5OxHYYCU5VCfrYXOqGGLPcUN5z3JFECaBEqNLGoCKHSQ0sNa3s6Adll+SQqM3xeEJ7/dDacXx6JG0w4iJau9o7j42xXIz0DvCRTQ90Sw0qwjnPpNwFNT9mHasWBcCZPg8P1UPL3YHUP/9GM0uLT75Buj8u3LpIWhqIER2wMwcIMPdrsnQ6mlvlby55C5IEaiZtwDI7b743Ko1KJ8OqiukRlqbLyZwMpI6Zh/OBmB21FZDMiWN3FS7phnGwECBTo25vVGtTjmDSpoc07TeCfQTybAXN8ACwT+Je8Z/IriJMDBQHESqobfm3YNtLBTTnQ6aeCz02hgYYKmxV/8nmyElmsnJJX9jQgp3t7ogWbvzUPN9n0g1G0CgeiTS0K9Sr+v2wwOT7+K1h8tQp/lN9HvDy8M/dOXkd5IVeRBXQ07RBVWiRY/0raM2OHP2AR33k0C7e5Le1Dz0D3JlENUxbTzDklVlfZ25XpdmpIiUVJZxEP/P+7jk71BzCGVslqSpqA04MfcAuYFBfnGvJEAgniKGgDRJ8DkF1AeWgpzy8h/V7US4GCgauVvAU+n6ZNNFaLWIGfRFycB8TsLKOQji0AhaNfCJRiz8RbqvTUbdi2eFYmTCmoBzAYFdhBq1UONti/CcegctJzzL1ZejWUUw5xQ6JHNUOIvqGdpDNnMXk5AgNgFKTqDnAXL46AkUcQpQUCOduFk7il40C6dPieTEKVGpjNFrmNaCZPPSMFrSvqeFniNPptxIfx0LoqlWx69MwCLL8WwREMUOVH5ADNnzOeYDvMv/PQdP2xRAhwM2GKrF1Fna9oJUFnvJ8jx/T5P1H9vAYTmz5QtEVNewEBsjK17o8HoRZh8JBixUsq7UHIbdhGittmvaIEkcwsli6LcAhSdQUCAeATK83ANz2QOeRSZ8C8zFzxgfghxmVpcj8jEQa8UrLsahQUn/DHn7/uY87c3fjnhhz+uRuGQVwpbrGOk5JFfunYnzoDQVBVI20EOgpRY6du/w3DQKxXREgrRq/qFl8aQNY358uwf/F75JcDBQH558HdWJAGiol11OQIdvt4Eoa1LyUwCeRf+R712rAP79n3RfPIhHPCMR7qSQtyqfgK3oiZ6qKgEBMjJ81wgEQoFgNTlu9yTkCQrXyBAD6bFePOtRAzd4otvjoTCM1aGM/5pWHQ6EKNWnUev6bvQZtwKPPbuXNQbOgP1hkxHo+Fz0ObTFeg1bRfGrLmAhaf8cdo/lUUmkF+KOQsnhacmyrS4HCoBaQNe23Af72zzw4qrcfBJIKfd0oGLh4TJP+ASKEcJcDBQjsLkt6o8CdCifCE4A28tOwu7Fz4uuX/AowBAwc+Jv93lMwxdcx3uMVLoiYKVA4JSNTTBKFKLExCg3Xr3Ffew1yO5TGF0xRWEwgun/BOOTr+7YexWD3T78RgLMbXrNYZpfoRGbURe/lr1RGfT2o3ECJPWvWDX+33UG/k7es89hh+P+sEjOpMBmUft6AnokNkhMFmJP28nMhrl3ivv4atDoYwzgEIn+cElYKkS4GDAUluGl+uREqDdGWVrm38mAs3H/Aqhcbvy1wqYQAGFIjo3hNP4Hdhzl2KxNZx05ZEtU/QXpG4nimFKOtR9uSf2e6VUaJgmLc7kjLjscjSaTT8LYdhiCE+6sPYU7OyL7zPU9rUfg9ChHxxHLMHLy2/gqDeFnWof4i8gfxJa7IkwiUwCnZd4YMgWXxzySmU+CBZgESi6cfi3Ni8BDgZsvgtYnwAoNNI3QYZ3111Djec/LD8/ARMAKPjfzg52/Sfhi+3X4RkrYVEX5qiLrU+yFVdiCvkj4iZK7tR//X3s8xSBAC3YFXUQm+HKK7HoPPMwariMg1C/pahBKolzKQGCmrVgV78lHF78CB1mHsPG6zGMLIj6AJ1kFqCIhZknI9BzhScLGVx+JQ7BqSrmJFmRdawo2fH72p4EOBiwvTa36hqTip5CoPZ4JKL3lD8htHup+B1egcW9W7du6NKlC+rVq2f+tW374PnZB/CPbyKL1baWxEyW0NgEBI76pDFnweHb/BmPQIZSX6FFI3X9sn9j0GPGXtTqPQpC3aYip0SBvmB26CnxUdR+DA49RqDrjP1Y6xqFOKkakekqbLmdyAipXl7nzTgDLgRJkJilA6UY5geXgLVIgIMBa2kpXk4mAREMGDD/bDjajpkHoWlH8xd0QYCdnR2mTZuG77//Hu3alcC8ULcZGn+6HltuRUGjs56UzVXZbWgpJKc74hGgqIHRuwKw624yKOyvIg/arR/0TsFLPx2F84tjIdRrDqEk2oCiAEOdJnB8YSz6zT+Mqf+E4H9/hzAHwQ/3BGKbWxJ8E5UseRXXBlRkC/N7V4QEOBioCKnye1aYBCgm2pCtx7h9AWgw4AvRplvU5F3gOwIDa9euxcqVK/Hcc8+ZDyTsHVBz2K/4/aw/0hUylueBmwoe3cy0GFL44KmADJA2gNgFd7knlxuPwKOerDdmIzxNheEb76LBa1+DOQiWFxAw9aUGT6Du65PRdtZp9P/DEz+eDse/oRLmCPko58JHlZd/ziVgKRLgYMBSWoKXo1gJkFaA2NOILnXIlvtw6D1apBI2TdJm/C81GKB7vz4DMw/fQVRGBuN6J1ZGfjwsAQICZAYgZ0ECAq9v9MEej+QKCR/M+3QCZ+QnsMo1Fs0/XQe7x7tUkD+JHYTWvVBn5CK8tcULYWkyZrriUSZ5WzBCihoAABlNSURBVIO/tjYJcDBgbS1mw+U1+QtQwpXXNnrBrttwCKbEQ2YAAbIPlwkMvPodpuy7gdDUVOgNapbfwYabo9CqExAg2uYzgRkYvSsQPVfcw757ZcvCV+iDCnxIfcNgzEZIigK9l91Bre5vQ3BuYL7mx8z+k+tj4FgHDr3ew4AVrghPy2TaKtJa8YNLwFolwMGAtbacDZZbBAMGaPVKDNrkBfseI0q88ysTGBg4BVP3ExhIYcldKH8D3w3m74iUJ+J0QDrLNUBAgLj4KyPdM7WDVKXDUe8E2H++H0LDVsUCxRo1asDBwQE1a9bMBxroPX1O3+cu/oWBhVY90P6r9dh0MxpaA4Wccg6K/L2Bv7MmCXAwYE2tZeNlfYBsGB/oWUrlUTvvo85L4yA41S96wi4wiZcJDAyZj3nHPZGQSWBAKYYYcgKi3F5JIXbkLPjOVj+WJIhi7CkNcWU40xEYCE9XYNohbwivfidyCRRo+4ILe4sWLeDi4oIePXrk60OdO3dmn7dq1Srf5wWvF+q3QKMBEzB2ty8UGgXXDuT2BP7CGiXAwYA1tprNlvk/MDD1nwA8/u4MCI89WfSEXWBByAsGaNJ/aIIv8Pvc753qo+4Hq7Da1R9Z6lQOBgr0QQICpAUgHgGi3qWsgZmqig0fzFsEUtF7xWdi8OqrEJ55U0xW9ai2zPm8T58++Omnn/C///0vXz/47LPP8Msvv2DgwIH5Ps/tC6b7OjjD8dnX0GP5HUiUUugMlG+Aawfytgt/bT0S4GDAetqKlzSPZuCP66Ho8vUqCG16Fz1h50zc9vb2aN++Pdq2bYs9e/Zg2bJl7P1DE7xpoi/4//GueHrKDvzlGQyFNo2DgZzeSOGDIhBIY0CAwgfJWZCy/1XeQdwTBlwLT0eH2acgNOloFj31gAEDsHr1asybNy9fHyJwQBEnb731Vr7PH+ordjVg16oHWs8+h8CkJCi1OdoBcN+Bymt7/qTykgAHA+UlSX6fCpdAXjPB1bAYvLH4OGqY6TdQq1YtfPjhh5g5cyYOHz6MSZMmoWHDhkVP9nkBwYvjMGrtSfwbGg5lDhgwkM9AZejAK1yypXsAVT1LY2DMgmQaGLUzgBEKJZVTGmJzS0VtYDDqcSE4BfUmHYHg1KBYfwFa2AkMrFu3DosXL0bTpk1zzx9//BEbNmwoHgxQ/2j+DJpNPgDXsGhkqjJZpAv3HTC35fjvLEkCHAxYUmvwshQpgf/AgAIJmcmYfMgTjYb9AKHB48Uu6o6Ojhg+fDhmzZqFyZMno2fPniBtwUO7vbwAgF7n5CZwHrsaS865ITQ1GkpdBiiigTkQ2igYoGpT+OBJ/3QM3eLHePjJNJAsq0yNgNhdyESgN+pwNjAJjl8dZPTB5pAMERjYtm0bjh49ivHjx+eee/fuxe7du80DA806oenXO3E2IAwZSuoXlOqamwqKHMj8S4uUAAcDFtksvFCFSYCcxGg3TguxUpOBXXdD0Wf2LtR4bqhZamFa/Bs0aAAnJycWYlgsECAw4FgHwtOD0GPBSZwNDIBUFQ+1TpobWmitmgEixyH1Pp2GbOLYL0zihX9mAgKn/NNZ0iHKzHfQKxXpFUwxXFhpqE+I3BManAtMRO2Jh8U2MyPklMAAmYxu3brFzAJkGqDz6tWrOHTokHlgoPnTaDZpDy4GhyJdSeYj2waJhbUR/8w6JMDBgHW0Ey9ljgRo16U3aKDSZSIkJQ4zjrqjwehFFcM0Z+8Au6Yd4fTpViw8fwdByeGQq5Oh0RMDoRaUn8BaDuODByxpjlxjZIt2jETNYvKDkxWMsY8ogim9sEpHpE6PBgeEGegepBEYsd0fvVbcYxEECm3VpOclMGB8YITOqMHlkEQ8Pu0fCA1amRVySmCAFv/ffvuNgUQCinSSKWn9+vVmgAE7CI93Qcvpx+EeHQapihxLFTBm623afGQtY4KXM78EOBjILw/+zsIlQAuwwaiDRi+HXJuCc0GheHfdWQgDpkBwdIYg2BWv+i9oCij0vR2LVXd+cyoGbbwJr/hAZChjROdBPTmK6VgqYwsXFyseLe6kvj8fJMHCSzEgHv3+a+6i9yJX9Pr9KlyW3sTQLT6Ydjyc2fz9EhWgxZ0W2oIH3YuSDg390xd913rhmE8aI/t5+JcFr6yY96SZySaAaNTALSoZ/RafZymHBQenYvsBgQGTAyFFmZhOciAkX4JiHQjtHWHf4SU89fsNxEsjIddwMFAxrczvWhkS4GCgMqTMn1FuEqDJn2z1ZCpQaTMQnxmLve4+eHHBMQgvfw2hdiOznMeKNhHYQWjcDrVf+wZ9Fp/BuSAfJGSGIUudCJWOQsjILmz5zoOUJMgnQYFVV2Pxzsa76PD9X2j23jzU7/cJancdDKen+8PpqX5wenYg6j4/Ao0Hf4dW49eh7+8X8P3fQTgdmA6pWp8LCnTGbGYOeHurH+MSoGRAMk3VaARMHSovGPBLTMXnu25C6DvBLP6JvGAgb38wGwzUaYx6fd7HkM13kCKLhELLwYCpXfh/65MABwPW12Y2X2LRYUwLjU4GmToZoakR2HbrHl745SgcBkxiHt7m7AzzLgC5rx2cIbTqgXpDpmLgoqP4y8MLsdJgSHK0AhrSChgtXyuQJNOxEL+xm26i0xdrUf+lj2D35PMM5LB0vkTWRP4QdNaqK4Kohk9AaNEZTt2G4vERs9H/l2P46UwYvOLlUOuMOOCVwkDAmF2BjGK4KnwECnb+vGAgPjMDm6/7o8YHmyDUb1lspsLevXtj+vTp+OKLL/JpEcaOHctMBS+//HK+z3P7iEmT1KIzWn30G34554V0RXRulAk3ExRsJf7eGiTAwYA1tBIvYz4JMEdCY452QCdBpioBoalh2ObmjWGrT6D56J9g/9xgkZCIFnfT5P2o/5TVjn7XuB3suw1D649/w5g/TmLnnXuIygiCRBkFuSYZGh2FjhGxjOVqBci5LypDjcUXItBv7kE0HDQJQpvnIdRpYpYdnXnhEzho2hG1er6LDuNX4ONtd7HGNRZvbvbBmN0BjFCocnkE8jV/vje5YMCgRZY6E7cjo9Hh58tweOoVEeg8qs0FAU2aNEG3bt3wzDPP5OsjHTp0YJ8TQ+Ej+05NJ9g/NwTP/3IMV0IDIFHGQqnN4A6E+VqHv7EmCXAwYE2txcvKJMCcxrKNbIeu1ZN9Ox1SVRzipGE47uuLb/Zfwwszt6Dp29/BoesQ5uQlNGotpjumHXGteqIauW4TETC06o6aXd9C82FT0WfuLkw97IqTfvcRLQlChjISMmYekOSEE+ot1leAogJipRr8fi4cz3y7FQ69RkJo2BpCDTNCKB9aNO2YjOzavgjnobPRad5FPLf4Dv50S0CyXGtRPTGvH0mMJBGTj3qj0Yh5sGvaoZR1Fx4NApic7CA0ewrNRszClwfcEJ8ZygCpNZmQLKoBeWEsQgIcDFhEM/BClFQCou+AmM5YrZdDoUlDlioOGcpweMcHYNOte/hstyv6/HwA7T5bhGZDJqGeyyjU6TEUtbsNRp2eb6HBS++j+dv/Q4cJS9Bnwd/4Yt8N7LjjifvxfkiRBSNDGYEsdQKU2nTkmgcohrwkcXglrVgpf5/94AFj/VvjGoM2k3ahZuc3RdX/Q4t8cQtdge/tHUTTwuC5cFn0Ly4EpUGtL9y5sJRFL/NlrC8YKWeFEhJlGlzDw/DCwvNw6v0ehDqNy9GpNEc2zg1Ry+VDDFx4BIe8fCBRRuZGmegNFGVimX2kzILmN6jWEuBgoFo3b/WtHC0AIiAwsLAytV4GOQECdTzbzafKQxCS4o8zAV5YetkDXx50w5CNrnh15Xn0W3YOA1ZexLDN1zDxiBtWXHXHhWAvhKf7IlkWiHRFKDMNEBAgrYNGp4DeoBPJZCwQCFAry7UGnAtMxeMzTsP+mUEQnOoVs7stsOgXBRpIs1C/JRxHLsOcY74ISVXA+CA717GwqnuZqCkis5GaOXhmqhKx8JIPOn27GfZPDzArT8EjzQEF5VKzFmo8NQCdvlmPBec9kJAZjEwVmQjSGUU1MSGSpsISAWNVtxN/vmVLgIMBy24fXroiJECLgMlkoDNqWbgh2W3J61+qika6Igyp8iAky/yRmOWHiDQfBCR5wzfBm/2PzPBBkowAgB+S5YFIVZA2IByZ6ljItclQ6SRMI0BAwJJ3exTWdy9ejuEbbkPoP1k0gxRcxMrjfds+ePLbndhyKxZKnc5iFjzqA+RUago5VWhSESOJwlcH3dH809UQ2veDYFcaU0khgKmtCxqOW4fvj9yCd7w/MhQRkKkSodZl/ZeoyEIBYxFDiX/FJQAOBngnsGoJmBYCIiOixYBIX9S6TNCCQFoCAgWk7k9ThCJFHozErEAkZgYgKSsAKbIgpCmCka4MZdoEqSoGMg2ZBUgVnsmcwUQ+ActW+2YodfjzRjTqf7pF9KIvlY9AIQtfQQDh4AyH/hPxyaarcIvOQPYDyzEXiKDwP+2AVJUAj5gQfHvgBh6fsBZC56GlB0nEZuhYlzFRNvpsA6YddsXNCB8kZ5GvQCwzUZGJwpAt+pNQWfjBJWBtEuBgwNpajJf3IQnQ5Et/pt0hqYuJlIh29hT7LdMkIVMVB6kqlqn/MxSRzM4rVUaDAECmOo79hn5LVMNavRx6I3EJ0ORu2TzzVO87MVn4eONV2PX9vIIc5vIAhTa98ew36/HH9WjoyD5O5gIL2Anntn+2DuRUSoAuTRGDGxGBmPvPdXSfsQM1Key0RWcxlNIMumKWl4LMLU90Q81XJ+HZ6bsw/8Q1XA+/z8wDBDRlmuQcrYCWMSFSOfjBJWCNEuBgwBpbjZe5UAnQokT2Wgr90xu1zPufFnZS4Sq1BAzSmMZAoUmBeKayRUOllUCtz2JaBQISpGEw0q73AdENW/bkbjRm4y+PJHT8dgeEll1K5CdAuRoogVPNmjXNv865IWoP+g5f7/VEQqaMyZpkbgkH8yF5QG2vgUafxRbqFFk0PGKCsN71LkauO4E2ny5BrX4TYNfxFRY+yTgXKLqEQkvppLDKuk3Zd3ad+sP5lQloN34J3l1zHOuvu8Mj1pcBAXIalGmIhEqMMqGcGQSM+MElYK0S4GDAWluOl7tQCdCCIIICI1uoaGGnxYESyNCOUWuQ5zkVzAOdAACBB1LzEpCwFgcw2oVmqnVYeC4EjsMXlNhRrk2bNnBxcUGnTp3MBwNE99xtBIYsOYlbkckw5ORosJQdMS3IpNHRG4mhUgqZOgkZymiEpwXjdIAPfjpzB6PWn0KvKevQZsyPeOz1L1Gnz/tw6vUunHoNR22XMeyzNmNmo/fU9Rj1xwn8fOY2Tvh5ISrDn5maCAiIUSbEK5BDTc2dBgsdj/xD65EABwPW01a8pGZKgBYm9perKTCybIe0SIgn7fwpOsD0XtzVkSbABCbMfFSV/ozqGJqmwOQ9bhBemVSCBV1U+w8cOBBz5szBiBEjSnZt+5fx4tTN2OsZxRZdpkWxEA0KA4I5gIDs+EqdhJmApMoYpCnCECMNxLUIH2y44YmZJ9wwbtdVDFt7Bm8u/wdvLvsHb685hU92XcWM427YdMsTV8O8EZnuixR5ANLkITlRJokiwVAuG6Vl+5RUaSflD7caCXAwYDVNxQtaGgmYFnfxPy32FBKX58zRJNDCam0H7YJvREowZtVpCD1HlWxBFwQMHToUy5Ytw8cff1yya1t0xlPjfsPiyyHMv4JAlWhSsQwJMkDAElrpmUaIMlzKNSnMb4R29WmKEKTKA5GY5Y+wVF94xd2HW5Q3Oz1ivRGa6oP4TF8ky/3Z78jJlEWZKGMg1yQx0wBzGGS01JbtU2IZLcJLYQ0S4GDAGlqJl5FLoIAECLyQc+O5oFQM/fUQhGcHl2xBLwsYeKwtWo/8AbNPBTCHSzKxWJqjZV5AQGYgtU7GuABoMacIAAIFFHoqAoMgtuinyAORIhNPCkklvgkKHcxUxjAWSqUmjfmfkMmJRw4U6JD8rdVLgIMBq29CXgFblAAtduTfcCYgGUMWHIDwzJuVCAaeRKv3ZuKHk35Q6jKgN6hYWahMlnRQeUhjkZ1tgMGghU6vZGGnRBBEuSayVPGQKgkYRDP1v0QViQxlFHvNokxUccznQAQB0hzOCQ2MRuvxK7Gk9uBlsWwJcDBg2e3DS8clUKgEaKGj3enF4GQMW3QEQpd3Kg8MNO2Itu/PxbwzfixCQ2dQwmi0LFNBXqGRrIg0ispIdMEECijjJTkYEkkVhSEqtCmQ00mRJtpUxjxJESgUiUKOp+SEasgln7KMcMq8deSvuQTKKgEOBsoqQX49l0AVSID8BYgQyT0mFeM2XIDw4rjKAwOte6HLV8uwxjUAck2q6FFPNLwWHFrHAAHTEhAoEDUFeoNGDD81KKChKBN9zmmgqBMlozcmEwj5RJAZxFqiTKqgO/JHVgMJcDBQDRqRV8H2JGACA9EZUsw45A67QTPASHIKsgYW8b7UDoRPD0K/OTvx9/3g/8BADvueJbeEaDYwhZ6S+UAMP6XFnrQsjF/CaIowIQCQE2XCHE7F6yy5frxsXAJlkQAHA2WRHr+WS6CKJGACAzK1DKv+DUGDD1aIZDlFLP4Fk/EQGFi6dGnJognsHWHv8glGrDsLj5iw/8CAhWsG8jZTXlBQ6GtTaGqe/3mv56+5BKqjBDgYqI6tyutU7SUgggFK26vAUZ9ouMw9AOGp10pkKujfvz9mzpyJYcOGmX9dgyfQaMQ8TD3mgWRZlFX4DFT7zsAryCVQDhLgYKAchMhvwSVQ2RKgHS2pt8kZzi8xCTMO3YLd0PkQaphPLdywYUMQC2GTJk3MAwN2dhCeG4qX5+7Cbne/nNS9lhtNUNltwp/HJWDNEuBgwJpbj5fdZiVAPAPGB0aWUClTnYHDXqFoM+0QhLZ9INSsZdbiXqNGDVB+Avpf0IRQ6Pt6zVBr+C/4/tB1+CWGIEuTAJVOyqicqSzWSNxksx2IV5xLoIAEOBgoIBD+lkvAWiQgmgq0LClPUHI85p+4C4f318DusSdLpCEodOHP53tgB8HeAUKf8Xhjyd844n0fKfJIyLXJ0OopWZFlRxJYS3vycnIJVKUEOBioSunzZ3MJlEECTDtApgKDEhJVGm5GhOGtDVdR+40pEJq0FxfwfIt6nlTE5n5OpgHK5Nd5CDpO2Ym1V9wQnBLMTAQqXfp/uQksjHCoDGLll3IJ2KQEOBiwyWbnla4OEhDBgAEUL6/WZSJZloAj9wPx+rLTqD9oEoQWz0JwcDLPBFAYOKhhzyIU7J8bjCe/2Yy5J27AI9Yf6QpK35vEnklZC7mJoDr0Jl4HW5cABwO23gN4/a1aAkSEQ/HxFFWg0KYjVR7LnPsGrziFpsNmwL59Hwh1mpTMbEDaAMc6sGvWCc4u7+OZ77dgxvE7uBfnh2RZGLLUcYznn4h5mIkgO9uqZcgLzyXAJQBwMMB7AZeAFUtA1A4Yc7QDWYxzP1URhcPefvhguyvafbUWzs+PhF2zpyDUfgyCg7NoPqAFP1cbYAeBtADkeOhUD0LDVnDo1A9Nhs1A34XH8esFD4Sm+iNFHgri7CfWQY1exhwHyW+BIhv4wSXAJWDdEuBgwLrbj5fexiVAYIBSMlMyHq1Bzbz7ZeoklmzHKy4Qiy55wGXJeTT6dD0c+46DfdvnUaNxWwi1G0FwrC2Cg1p1YVe/BWq0fBY1uwxB7eHz0WHmYXz21w2c8PNCUlYAKI2vVBkNmToZlBKYMgESQx89nR9cAlwC1i8BDgasvw15DWxeApTOOBt65kyogkorYdn20hVRiJaE4HakL9Zfu4t3N1/Bc/NPoNnEnaj1/ioIwxZCeOc32I9YivqfbUS7GQfx8rLzmHX8Bo77eMA/yQcJWYEsla8IBJIY2MibwtfmRc8FwCVQTSTAwUA1aUheDduWANMPUPIiI7ESKllGPpkmGRJVDJKywhGWGoi70b44G3APe9zcsObydSw+44qFp69i+XlXbL52E0e978I1zAs+CT6IyvBHsiwI6YpwFjlA2fyIU0BnUDEef2Ye4FoB2+50vPbVSgIcDFSr5uSVsWUJ/AcIdGzRpggDhSYVWap4ZjZIV4QhMSsIken+CErxg1+iL3wTfRGQ5IvQVD/ESMhBMACp8mDQbyXKaGSpEqDQpEGtz+JAwJY7F697tZcABwPVvol5BW1JAiZAwKiKDWrm6EdmA7kmGVnqeEhV0chQRrDFPl0RirSck16TFoC+kyhjkKVOANMGaCXQ6OXQGTQw5iQj4n4CttSjeF1tRQIcDNhKS/N62owEyLuf1PjGbAPz+CfVPnn/q3QECtJA5gNa7LNUcXnOeGSpE5mvAWkC6Ld0DV2rN+rYvSiMkUcO2Ew34hW1MQlwMGBjDc6raxsSoEXbBAoM+UCBAmq9jBEGqXUSqLQZzOGQ/AHU+kwGADR6BXRGNQzZRChkYMDCdD/bkB6vJZeA7UmAgwHba3NeYxuTAKn1H5BzYbaBOf8RSZHeqGHhgTq9GuKpgc6oYQCAnBBJq2ByEuRmARvrMLy6NikBDgZsstl5pW1RAiZNAeMleEDcBMb8JyMQIlOAaA7gIMAWewmvs61KgIMBW215Xm8uASYBIg0ynVwkXAJcArYqgf8D+ZWTeC0lt80AAAAASUVORK5CYII=;" parent="1" vertex="1">
          <mxGeometry x="16" y="60" width="787.81" height="618" as="geometry" />
        </mxCell>
        <mxCell id="5rvtZwvqExJEslM-TS6T-2" value="Untitled Layer" parent="0" visible="0" />
        <mxCell id="5rvtZwvqExJEslM-TS6T-13" value="" style="shape=stencil(lVnbbh03DPwavwqrO/mcpv8RIG5ttLUDx739fWfhSLZGewbo2zkkZ1eUyCGpvcufvj98+XZ/l47vry/Pv93//fj19eEu/3SX0uPTw/3L4yt+3eXPd/nTL88v97++PP/59PXt/7cvp+X564/nv84n/POGO8JxnKB0/EuCn9/Mf3980uap/C/zYso8srklZZ7aYh7DIc1LJ/MiXe1s3v22eQxxXUySOxNDNTLvYu2JdyaHlJV5Z/MuzHPIq3kJqStzL2RuwtXCrtaQRRDUkBKZu1gMtHExb6EKc2jrYt5DFOZ9bPO7uYmY6cHXtZuMdwtt3XeXi/GQnMxNReSWTpC0JgFOCYUUUUEctxxB1FcBQGCupxVzOMQOQd02gIlQjiWU9cQgqSKzYh15OgE1ROX0jMcPgB9eXQPa5kMbZHENmDH5AVDVLvXQCgNc+WDhoDd0SSgAFGdAU9tqWyzhnWqXfDs4G5JbAHcGmNglMHolAN4plnRy+gZw9YY4FjBZ/ZAHB6KuK2HgEapsgHu5zERJAgDY6gPe2ZTThaP1LA/qDZWrBx6hwvuk7A2gKD61rVjWYMqHPurXBLSRIbcAvpYFSBRzn9S9ZhwkSe2Sh0wnDbIXCZTRO1UGuHhDns3SLPrHqI3XgBjauq2QqEKeEa1rikLSVaMwI2cCwOfKh8IlDhJFM7lyikKi6n9u4SBAG17dAlC3kxEaIrzzbBEmwEIWRRFqyrjsowe6BvhooGYDNoPlugNDJ1AZoFgDampkShwt5TUAauoJESwKAPXqdMmydTjVhQGKNU41+aBjqWzMV9AbCBI41c4AVXYLgm9lb0iacrptPnQ5tEBNHVmxEJUPxkUREldLcu4EIFGhUY+Q14OregqsKIFrAp0SsaSamCpPichpqC0zQI1fNXO0QqKak1o44yA5RMbVOUN9AHTldB2bOAFVdjO1jU57AmY43gK0DaDmh7pNS6dEA7ozwBTAuNeApKiDMy6KkKgqWrchC5KqAbaedDske0NdNoCpkTVyyYJELQlqcrqlkYPXAJDxGnwtyxkI6hwZoDrjVjj4IJFOFy67rcpeo1UeLVuTvNTmRcEEdEnGUFPZbSa7SqipOWk6lto2NPVj3FdcA3zc60xAHEx1fUFxbPcfSRYUPI/61j5vi64BGxl3cKGgyp64ZPUiqygWUFcS6FWy97mA9Rx6G0XsFoAulXqXYxkWQOMAAC6IDAvI5LTJaMXz6DKn++CRWwBb32CHHPH7NtJYlHfB7wv4AFBjGRZArGFJdmR4XiJAlk7jeVR2rYz4vQZk5larkr1tIzJrkirxPF5Sl/mA56U148zkHZl17ozNw6GWZDwemx4toaabdp8DwvVN5cFL8iiv8qEmpz2N7uMakPiOzLMcy6CmKy8vsjP2bX4AQDUnUPc1NLxKmoGayNibbBKhTsYAlUC+zQ8+eeQa0PkjCSSqAkFNt3BukjWgLo0B6n4JauqMIVGdsftIyAnwcfa3ADTSnBLlg/P8AEmXN+vbl7APoh8Q/Hj/Svf2ge+jjr/oQfT2NTB//g8=);fillColor=none;strokeColor=#0000FF;strokeWidth=5;" parent="5rvtZwvqExJEslM-TS6T-2" vertex="1">
          <mxGeometry x="422.8000226702008" y="109.9714202880859" width="233.5999755859375" height="334.8000030517578" as="geometry" />
        </mxCell>
        <mxCell id="5rvtZwvqExJEslM-TS6T-15" value="" style="shape=stencil(lVjdbpshDH2a3FqADZjrbnuPSs3WaFtTtd3f288oggWXHGl3yYeP8R/HhgPfvT7ePx8PKby+vZy/Hn+dHt4eD/zhkNLp6fH4cnqzXwf+eOC7z+eX45eX84+nh8v/5/su2X99P//sGn5fcIFC6KAU/rgPny7i305PWLy0/xCPxFA8eXFVJM6yiCeKFYmX4MSx7W3VzhT5tngkyU685NviaSgb4kIJiDOF6sS13BYXiqurmSqwPRPrIl5GqLbihfJqTCUBca+ka2SUGBjTfGTasG4f90AS16KxMhIAiCPtExApRgBIowqvAA2ZxNScSVZqIEJRqJYVwJTQDpbP4AEKUhYtZ2sSbE9OAFDH8hWggpKLSsGFNWMflGr1gIJOWBv6rgANhbWNmExAgU53RokeUNEpDqQuShY3ECWjiexMUkrAaSOK5KJkBwSEtVOFY8Xp1S2Ark6bkQUBhMparX1PUHzGL555BfaBzj9rWE2Fgkwbx2RnUqWE8jA5aAJ0qNgDZtQnoFFDpTGXZ0OIo1/tKT5QXZ3mBFnb9MlqEgskMtPnGiZnyiAPzEPfBBTIfAZoax5YR1/cA8QXH1vckNN5MOnshHE0gD2g+OKTBKmSrZbWKImMM7gHqO+HkiFrmIt5dVoqPKISKLtpQUeg9wA7wasPOcAz3WOy7pATrFYRXxp5dr09IPtqzRmeOItJcDvUMR/uATraxwTMFrMfe4LPQwlwNLGYOJopeBLI4meNwuOU7wHFjw4lw4aSrSmurFEqRXCmzeLsAEoKMt0tXmup2siFxsPsSaDatIt2UH9NqLYnCKsZEFZurVZdIHHdALdDhS2rCgXnA+4PZoCfcs1IZFId94MJiHDqro1kzYMaPQOTTF90ACFBgOTHUM1w5jN9blbXQgqKz/S5qVLn7WAPKL5aVfEO1ZOANlje+o69mzViQGT6jr2bdSBgkunjNawtwTNt+nit1sbwAJm+tGa6ySDPPYDHTfkKgEbprs/dyvKYAm8B3KWpFdhFu77sAej2b8uylkarkJds2ZGAfWmAjG3Z3bKajY2gWm05RQ+oyCT1M1/Djb01/0RiX9DoYMtuWO9fgA8xvH+0Cf5RyH78e1C6vEVdr/nHJ/t0ebjij38B);fillColor=none;strokeColor=#0000FF;strokeWidth=5;" parent="5rvtZwvqExJEslM-TS6T-2" vertex="1">
          <mxGeometry x="530.0000348772321" y="125.9714202880859" width="117.19998168945312" height="115.19999694824219" as="geometry" />
        </mxCell>
        <mxCell id="5rvtZwvqExJEslM-TS6T-17" value="" style="shape=stencil(hVnZctw2EPyafUUBGFzz7Dj/4SorkSqJ5JLlHH+fZm0AkU2q87ZadS8xB3oO3uzT98cv3x5uOX5/e3357eGvp69vjzf76Zbz0/Pjw+vTGz7d7PPNPv3y8vrw6+vLj+ev97+/fdmQ26c/Xv7cfuHvOy/FGGLcaDn+c/9qffHznfD70/OO4B66Ez4lia+V8S7xJRG+VIm3TPiq8akTvmt85PO4wo8wjvgUUpH4xngbEl8q4buK12B78zToGt/DqIQ3k/jSCN+zwLfg44A3nQ8tlEz4rs5fw7ADvgRT/q/z8RNftX9KKIXwTcXLQjviYVAX+Mz+7yEr/yCcRzwC3gQ+hdwI7+r3cZ2O5/cwxO8PZ/+nGJq4MCAkugBJemjgBtAT8rTpmoCUHkxwkdMgZCKsKF4TWuhHpyZkncgiEHJlgos0GnU6cRHwjYgbCPF4bxISTwjFKHzRUg9RxcFmIuwIXdlgIR+lKCGUyoY8r/oiuExuEDiXVjpeE1KopF7Id+WlxOXyf/R94PcyE7pwa/fgJNhZBg4EI4KFKIzuKFGZCaqGgJCO9wGiWkR6986iAZVMoir0xqoBwlBeaizb0NWmnlBDIRv69Ns1obBqbMqqnlBCLkxw5VYLlQLnsxm4JizZWrUwzu7nIwKJvSWdGim0E6GL9O5xVo9FyLJfA4HU2yALwkvNZ3+2I6gOrC2NWIQyrbomDBYBq9KG1k9xaNqGzlcUBFV1GwoKPUFrKwh0RW1ZdU2oU+cWwWXJauXUWKGTV0aXWT52hKGMNi67JcneqmW+0yWHqmxIXEWLBVM2RO7GCqwSNlTn9hYEJWQgpGMcSpViXEfIFIcWqrjTFcl3vKIF34jUqI3vQxlyxquV25+ySsw1oXCNKy47ARBoiqlRdgLVuJsBoasnZFa+qgcx/NsTE1xFOnFzgmeqK4oTGx0Js5LQJTixngjKaISJZKauLvCacJoOEfuojgSdK0xQdxqESEdqwdQT6vTJjqBaaVxI2hjghqgJBRrBI9+QF2hTIcpWl2UXOsdxcCn3UFI/qgaUSl2gd61ehDTblUsCqgE16yCokmWnsQzyrGxARaNsRQFQ9wE1sx2FDCXG1JEq72JQ9dSkiEaB3dqk3G+tyGCCqycYpzd6AyWVaKcovdGuqMEPDVsmG1y7NYZ89NLWowkhQ5fKhCR3RPk0P2yNqUi+3Ll16Fr5MC2QGHddpzHANDoShExkK0YkOwYOI0gUbsWYR8qHqUhJ5fvichGGXMVuw3Bmggu3bvM52eBTz68JjZexGGfVdi/VOQwvQpIdWTKeH4Ze5oBAAzgIquymPOO6CCYrUEpz4bYIepmT4uy/dgQVB+fFyaiyg/PZoy5802uQqbs7vNyCsNSPLpcgndcyY0xF+ADPv4/2UPgHpyV7Xbf1cz+yVpSQNNV+Tone4dU+8LQ6cD2XnLpbz7M2foCnlb6bPL/x+OlFKovNDfgO78KfeY78C19lJc+8i/Em9xjwHvmnzw7rAzyVwO2lhrA38sodeLUxiLy42V5aiXidXpnt3qL9R8CH91du97d1+//x6zl8dX+1Z5//BQ==);fillColor=none;strokeColor=#0000FF;strokeWidth=5;" parent="5rvtZwvqExJEslM-TS6T-2" vertex="1">
          <mxGeometry x="421.6000409807477" y="373.17141723632807" width="251.60000610351562" height="253.60000610351562" as="geometry" />
        </mxCell>
        <mxCell id="5rvtZwvqExJEslM-TS6T-18" value="" style="shape=stencil(fVXLctswDPwaXXcIgCTIc5r+R2bi1p62dsZx+vj7QqNQNVQFN4ra5WCBBTDJw+vx6eUwcXq9XS/fDr9Oz7fjJJ8m5tP5eLiebnaa5HGShy+X6+Hr9fJ2fl6+X55m5Hz6cfk5v/B74VFKSGmmcfqzXK0XnxfC99P5jtAbmDZ4bQG+oKvDM0QCPKP79+2B6P2Enh1e0crH+KYozeGJkCKCoHVPyCiBgmYJFE9o6EFKtaB5CSzgGhAIzefIRL9nbZdQFbk4ghBqDwiCzJ5QoEFIpaNUT+hhlkpB8aKzoAZZKoTiRWdF1Y8J828v2p6gQIMFoL7SFiQHGkyiem9bGlJQB6lInmCJToG7xZrFu7VWtEAD9635NEECe3MF+ZCUR8fuE6xMvtLm3xJoYIL4wmnsVuqgjYYOCUSTgn2WGiEHXqIyrLYSBJQDgqD7kFpGC0QTj7quhIrOASENq60EmxrRXNo23DwJo5Ye8a54hkYNuu3Pnofb97sH5JunV3AgmMeYXvE6vL6foG1z2ibKQX5odOKK72Om7eL/24N3q/GdYId/e3RZwff/tjvXrpZ9LY9/AQ==);fillColor=none;strokeColor=#0000FF;strokeWidth=5;" parent="5rvtZwvqExJEslM-TS6T-2" vertex="1">
          <mxGeometry x="527.2000165666852" y="569.1714477539062" width="59.600006103515625" height="34.39996337890625" as="geometry" />
        </mxCell>
        <mxCell id="5rvtZwvqExJEslM-TS6T-20" value="" style="shape=stencil(lZnbcls3DEW/Rq8Y3gk8u+l/ZCZu7Elqexy3Tf4+UFQyJghv67zZEpYOiesmzynffLv7+HR7SuHby/Pjl9v/7j+93J3yH6eU7h/ubp/vX/SvU/5wyjd/PT7ffn5+/Ofh0+X/p49ny/Nffz/+e/6F7xcuBWrxTKXw4/JJoBB+ffDnxf7r/cM79pGP2dd+xD5SOGif2zF7rm/bRxlfD/sEfz8y5WTspQD7Rl0W+0w1AftKqS/2hSJavz6ejT2j9ah/1vVUquD3mUpYzBsledu8UVy93ymAXy9U2ZgzSIZMvPqeqQNfprHUYS5UwdoD9bZmTqASkX1YXRMjJeD63T5RAMv37Dsoxd1eUw2u3+63UEKpRjVbe5T6eYR+2tdRm9clg9ZOBq1qyzW1l/y2fadm1t/Hjlx7oWj8w+OJvn8ilWqBBhJur13tRjACW3M4ty/govMO1z1o1I+1T/1E0LwoVFavpukGH+BRJBPQMgBLyslWvQIdLClrmFYvaSpmEIcy62QCBS6pMAWxQAebromaWVKFtVn7SIQJvNN45xidQKeIqkfnhFgAlXObX0+Ax2zzAaFiliTUwBO6ppqZlWH0BB9IY5ZOIMKS7sX2JM2uAvagAK+pkTVZgFt7HfJnAlohaA87UKkgL+1AG0P6WqBTRkvaN82j8Vzr1tk8rwxc0emFArelhgIMntB49IgJRGpg062NYT8BTQ30BBVmZg+ZEpjnWqKcLSCgCTTt1WZJZcwwv2vwEAgTqLBrKBCSBQTsYe9LpUE96wAqCUEcXKCBODgAQx3mAkgzO4DA1NiBGqB0cAGk9RwgwkbmAAmqq9rG700gw4FSK/VsASQdqsrHVZzUd6boDlQ4HxygQXHiANoqUWrsAMPzsgMI7HyOWwW7dQuc9hE+VKLaqZBudYCE47ADeWiDa4GC47AD2vmQW3egQc3nAse6hioodDWyN2MdYu90b9PuFRC0Bz0ArxJONRoK3D6BdBAnNLI2GaoAY8AMxR7hqVtTra2DXcUEKiBNtdwsAJXA/gR8fnD2UMYR5Fq3Vngrt0daAXRTsjeB3vBA0bO/2XSnjtI7Du0yAXwbozOzrendBcZhP2UxPg6cpcgaaY5QGavY4XXTnKBuVSAUC6DrRQfA938OgHPJBToG7KYrZQToCMwWEATwkOYTaKOk/FwK4zwygQ6l9J58CqA4qBQpxkuMlcA2dlngVebevRVoANhbpQR4+7MfOBRg1Mi2E7tEfHiN9kpQEtSt2lRysQCSDjwPYRPIUKxr5qRmgY5u7cKYyhOYrc0Hsr0IUQBlq7Sh8F4BaOyKdtI1W6XC87SIvSMTfHUaw3b5K/gg5xENKiafqPBdg0fwwWd0/P7DJdDhzCdQx/QIHl332gDyaKLXpggfTUKGFyLnpDaFJBTRkvL4+hWAro2cyhOYtdqzzbsxBdBJZQdeheZ/Qv/4/S708hr19Xf2val+dHnnmj/8BA==);fillColor=none;strokeColor=#0000FF;strokeWidth=5;" parent="5rvtZwvqExJEslM-TS6T-2" vertex="1">
          <mxGeometry x="296.9000211443219" y="134.7714233398437" width="13.099983215332031" height="448.3999938964844" as="geometry" />
        </mxCell>
        <mxCell id="5rvtZwvqExJEslM-TS6T-21" value="" style="shape=stencil(lVZLblsxDDzN2w4kUh9ynab3CBC3NtrageO0ze0jw3huKbsDdCc/c/gbcqRFH163Ty+bRdLr6Xj4tvm1ez5tF/20iOz2281xdxqnRR8XffhyOG6+Hg9v++fL75ens+X59OPw8+zh9wWXkNIZJOl9+vD5Yv59t2fmGdn+w1yglZl3D+aKqv82H7FrMC/IwsxNg3ld8XfNBT16b1DiXeGx1I5KGlkhFswNjTSyocVkHEZyN0iLNHGe8iAqdj7LysV9wCByAhT0TABlre8K6EiNADpKpCs7jTCmp+Q4bEIpGJQ1iYCKSoqWa8ZXgMHYTKSZZc1wUoPqTJwWSrRW9CkCnzs19Bih8I0vea6h8BrKWNoJoLRLpaKVCKgohQA6fAJ0CEmpJrQ4rcXXRt8H6JrAVSsySieAmwUdLpwBHCXqxXDRSUpN0OJ4V64Brc56N1w4aWtzpFh0a1Q1ukAmiTRadB8a0aNI5nUH7wNuNq7ztnZHjkX3hkTuEBvCGEdjxGTKZwKbhJ7rkg3liykZL9raOmpXAL8HzaAxJRvcE+I8QacItl4A9wEyi/FwwVbUCyRGcH6h+Bi1WINz5XNDniLwC8UdNY63c/XO6fa1k2axHIc/T6vLq+zv/+Zn2Ph0ecLp4wc=);fillColor=none;strokeColor=#0000FF;strokeWidth=5;" parent="5rvtZwvqExJEslM-TS6T-2" vertex="1">
          <mxGeometry x="167.60001046316955" y="480.37145996093744" width="43.600006103515625" height="68" as="geometry" />
        </mxCell>
        <mxCell id="5rvtZwvqExJEslM-TS6T-22" value="" style="shape=stencil(fVlJbhwxDHzNXAlJ1HrO8g8DcWIjiR04zvb7VGOg9qimp26zsFoSySqS6pO/+/lw9+P+lMLP15fnr/d/Hj+9Ppz8/Smlx6eH+5fHV3w6+YeTv/v8/HL/5eX519On8/cfd5vl9un78+/tCX/PuGAhbKAU/p1/iGH/6eMZ8O3xSQHGsFKVfSyrfbdRlH1JbB+Hsu/0/GYt3raPlun51Xq+bZ+u9l+si/O6hbraZ2vttn2ep9vt3bJ4frHcVvtoQ+wfp+urfTAX/unm6356l/EdNny1r9r/8WqBLB0ak3VaAT5WK2RLa4r2OIN4DIBP8wJoyOkuAHX+vQOQpOoMzWpcAdWGOgOcvoa5lenoY8CwPBgQxQogTl7d2rK58NLGHDqDWxXMBHUyeSnZEG4Fd2phQBTcAXk6HRrZJcQLbEgrO1uYvxwDELj1DHXI5AMf4qovFXqk9CJwLtVqWcTBk4U1W2uxIFLDnVOjwtFJADJzuiZLakvVfM3WGmZkjgG7TyagDJlLDreuXipgiIh0DlZXEShNpkaGW9fAFSSLiHR25kMpM/bHABQCWiHL0pYLx6G4JVVLmoWVQAUcVIfuFsitcdaXW4CxRroEKfd5zOp3AVD9Bf4ua+DwiCQKHHYcVz5gk0q9AaDkg9+6AiTzzgClSwCQlzIqhvAS4kpyn3WXgcxJkQFRuRVSSStA7pVby9zxDoBqCJkBXYiioJQ8A1qTxABVRcFgKlk5ShGARhAf8t4u3gLUxICkVhgzESYASlXVCuBDYEAQAChpWrfkXdYHANp6aKit6jXqXjMvAC7iAAD13CgAqsbVXYUuAIpAAIy1ZHmZDDkGODdYWxFTABDIGeAa0FeZQV1VjT2qMk0aAKj6AAAfOslRAI1CWYXMo2QcWpHoDFA1rl61P2hXqgJ01qVtQFBb6izGAGS1AqrBuiWMLF0DKFtTl4duV50xukA1AqHppNZhm7oERQEogwFKZrY+mADgg1BvANitWY7d6OXdGZBEcwLAILeCg2pLee74AhDUCoULCiaKqryEmhkYoGYgDGGZvBRnwh8D2iyyF4AoiiIAjQIXtJd2cb8AqMLergYOjIKKogCQl+KQutQDXzm8TafHgMh3JgCoCaXvsrUD9lJ/DEhMIIzk6hak+5xtLwAukq/nqzMUyememQ8AyIuWYm1lXMyydeiVOzIAVHr3xlIZ9eDXO4+WAAQV6c7dfURkVOAGX+/FKO81RuA6vV0gacCgM4Tp6GMAKN8YoDg9Eg9+Y1b6Y3vnAQVdprpRc27Vm5TukXnUbXKsHGUOkfu0LmsJ7AcNunJcGpUnuDJjeGzfZo7tTbec32BPNyYur5VGnzc2b/ZKXGBP3WqSlxmwb1TY5NA9xhXLpLLA3on3sj3fLuRXf4aZULfsaQ4L8z70+KoxXL0D4JEeH95eOJzfVVz+xy8n8NP5xYZ/+A8=);fillColor=none;strokeColor=#0000FF;strokeWidth=5;" parent="5rvtZwvqExJEslM-TS6T-2" vertex="1">
          <mxGeometry x="150.00000435965393" y="168.77143096923822" width="437.20001220703125" height="183.5999984741211" as="geometry" />
        </mxCell>
        <mxCell id="BGpcuFCuqagJxrYyY0Eg-1" value="" style="shape=stencil(pZ3bshy3DUW/Rq9dvF+eHec/XGUlViWxXLZz+/uAUXpmemN60XLejs7hnukmQWBjA6Q+5G9++eG7nz5+SOGXX3/+/JeP//z0/a8/fMh/+JDSpx9/+Pjzp1/tpw/52w/5mz99/vnjn3/+/Pcfv//y75++WyPXT3/7/I/1Cf/6ggtHHAuUwr+//KKNo4X//uaPX8b/9dOPm/F5ft34iJ+fynV8P0am8Tno+IbPU6KO/99vbsbXruNDp/Fd3rcdbdyPj0doOj7B58cjy+fXY8Dzx6N3HZ/T/fjk1qscvdL4VnR8hPfNR0zX8flo8Pz216zjaf7t22U+01Hh+e3too4P5X58dfYWjwrzWY+ZdHwA+2/O3sxiwZ77ka7zU+f5jTfjZ9DxGeZnHPU6n3WcFv52/DxS1fERnn/q/NR+VBgfg3ugjhMao1p0bUcBj2IA2cLVthiYREznDL4AcA+nYwqgHA0WIWa1iprPj3gPKOekvwBoWxpgyCMl9BOxHvW68Ws8Cj1Sc5YacOcYQEy1THQV0SznunBlsO8d5zI9AB2N2wDz+tLl8ZDvAfNc1xcAhb8Vz677oVTcnwaY1/1Qyuky3wPiGd8fALMlAiTd0gZIsA4GGDJL6TSW94B8ZFmHeIyGADWNeCSKauXIMksBac6KC1MBgV66nnNyAvI8Cr101T2dxzHA861QUhRAjsxiSbq+QzbvT9/QNNgaAGepnZbzAkj00vbn68Jl+wiaVmNnTQFoS10DugEi2ZLNydVr5HpypvcA8xpNAZm+wcXQXHilh5q3AQqtg8VwMY3M0zp1i+bHHnxPw8JpzA9AQl6eLexmBSSYJQNMWTjzVARIRy8KIOpmr9hkpQNOq826kFubt04vXc8A9QIIBGhnCHwALJ0iQNd1MPvFWRpqGmvTgvGZ2xJHZgBiAssxXs3bPBWxGQOI8RmAKJw59yazVDAoWrwp1w1kEYMWbkU0B4iwgVbMvPpWi3qF8pKi1mqBeNC01pNOvQAivXRTzreSXXrpptx70RWgP8aOZD8sQgTGZ/xLsqVFueiRHMFapI7WYSoNNdpIZN1IZ4wKoATFAO06rUZ9KSgaDxYJwwABZskAwjWMjVOMW9RcptXMEYzPAJLSGIA8X83qBGLiac1KdA1AOZBlPEFmyaaBHqmocrMyOzCN+hAuHgBOpS1rC9eQNTFM2/is48lR1qrMm9MTGz91PNpROznwOZ6lrdp077TTR92NH1PGUy5TvTZxFHrf7jITzAJsvGZjyDCqeSNhGPy+4zTI5/hE7ztPZerhgFGKtPHCbRMmMTZ+XOczYrbawhkvnuNJql1Kk44n8mLjJaTZL+D5l/LVZXym54+avwQMgDa+ZBl/pRX2w1MH/yKhP/52J5CblxErGx19pzm+INu2nSnGrX4k31CRvS/96Go4g0VX8/aiGg9O4S0AhaspjMiynNOPOlPlWFWY7o/M7U4O6teX7vWkhXdyUBd3yFKzcZMm3xBR+za6JIldN4ujxC6oDNEGamCL8rlyCOpHRiq/qj5gPkcF54LTupygU+TJrS+x5roOjaXFVJzmHzmFr7qBzDUF+oZ2BJF4B+fL7ZzEF9UZyyLdKbYNN9Az73sRkQu9wzxN7UVEzpuc/7oOi+VRqSYcVR7pQTzvUnjJoozaZsrIo2aCNaBoZjm/pL8bTdgAU6TFgUQ2Zw2CBogMEN3C0iSimbmotVoiRpmgAYS9r1QPjC9XzUCeyeQdQFzlSldJVXBivgE2QkcXQEZrXUKiKLbp9LZ3AFVsH3nVrTLiNGFURoaqnQaI9NJTN9ASVyhfDuqX1kNSRh7eKLaVpRSphtnKkLtfkygqW0XWXJKTR1ntNIAsnAGwxJs1/bU9iNOalTqYW6Cwa8YsGyhH1ITXdkkKoAhkGzIJIKBybgDJZhPXF8xHyCytdJMeqSmFSx030PJzAmg7OUgTpEcgvgOImL/KLKQfTd3TSymknDMoWTe6UuEblhx0XThjUER0vRxkHI3qbQYQrrER/qrLHzaJlQHGdR2edco7dUcq3BvhzwDyDnGguzfuIvvB6Htj/ahOBZDXMIBKiw1d5SriX23JchZcuKrpgAFoi66+AknoC2aKxiFVvCynhnAHKF4pBCdQm9ZIdkph1w20Uwq7VriXUkgySXcCbOQd9+gw+61K4TgJ229VCodmWRul0NVUNkrh1OyBm27qVGVu4JRaeiS7rWN4e/YgPcdTlaoFDYcNrc7GC0tvmFI2l2iwEumVoYpaQ4uqBHATho0Xh1rQU6weM0kyzgW/G6+EHvUeG1+EXZyx/W68VqiRa9v4Jr0LZ4/I3XiheAnrFTZe9hcrqc1leQnzndVDKBETldeW1e8mbAZZ41VJpXTKxmv0w9C0xovDwmJLc/pfxEpCc0lwYPvJWkkISDVXz6eOp0pFy5o9BmETv0fZXSqrKxBR3e0tgHKhtwDq2xtNS1AWumhnLYALjiQbGUASwE3dbTRtkluKODgfA2R5JC4FjgcPewFU/gatQyeMvwbw9U/a8EuxLwogjzi64xyZH8npG5GrV8N1fkQWag3QvopdGkBJe0X5bnRtgliqPsS9MZzxNRTMh+teidy8O4Y21EQuao7hCG8/g/MdQDRLA1C2NaZjyMy2DCCNHJY8kc5kAOmfjAP5qwGqy+fIwRtAFJQ4sYBkAN1AE/f0DNovZgCS5GfQam4KuKcNIG5mHe7gbxDTWAVO6mX3jU0Rc9IZnfoQkVjPqMcbEtflDKAqUMSVNoA2mCVMngwgtmQAaiU0gHbVJWyomU6CXB3GDFAlK6FcMV2Nd9P+tQBTAVQamckxzowU1QBCIRcn3wDcI11J5+8hSV4faygVufNb2/H9qz4/ap9RYv06OUGw4TQ6JrtSUTw/JJn36paEeNOUiSduP+taPE0NCy3TObmK+z1GZ5gVhbfFzZwmi+c4stYdVx8Q1eHrm4ZSmtPoOG2qyKWiI18bXTkO5bTPfv/3gPlmlvDQRFDJwQCU4ycvE1dkCcsHulkipmO2retQMG1fD+ABfH5A16FgKXTpTg5A9G713hcFUL/0s8P7FUCFyuB2aMGQnJOmbDtAdkxnAyjOCWwA1XnVDcCVc3eA7vz8BjBUAt0BHAneLFxx7XEb01h9627hqOGteKZTuIyYXEWN90PJejZrs+NK0fO3mz1dqiMA7DUMIFrocgv0SM3RO3Zkqw3dez4uI5avig9vyoh8xKeGs5PmNcZRFSQ6tlZ3Pd+SH23i9Drw6ZkAN1iryFm5yFe1OW1TzvUNyisAbGpFju1RbrEqOQ6ART7XorH4JEmvruMi8QH/Fl0Nu7EY7M41PbvPbtVRV1anxulWHHXYAKrT7zeAdprabwV0p/g31M+aOymS+CThszXzFQDG16MjJ9ze0JOeUNgcterZkcSOdYVetE6zAPQO7pBp4ip5b1rp2wG6Y8YbwHDny7YAzbU3gOmMjwEj6MGDHSC682UbgE/OOwufvqLVz8j9HpBdf1DHvsXhSaIB6B1cP8TzNO8dwL9Dondwuv4CkCzZndrQudTgmgR33+CuCNi9g9OTd7Pk5OHdws0364C2NM+Tia8A1pO1x4k935KHHWD839rTaljT8pke6XDpnnTUzMmXG0ytxBuAaNWz6+4FQLXUNNUgJh/7soRSaJUBKCoYQKrxk0/hZ3eJ0GzcCZ6U3s6K3ihndZAzYwdLLlpgmIkPQjfNfJb6zg3FYhprI9EjTY1sq0BG/ZDuKg5zaHgm2B1TNpeJR3xdI6u5feIwK3u7bszxaK24S8aidB5FTii7tiKMwAnl0A00+GaN1eF/Xbg+0QlYMiYZqFEIasb1uVVnWmW5lfTXGG/Co5nuJgFjZpgqudZA437YBNrU+DqXuC1VklaDnlBltVRJ8sMeMcdd5w9lHQL21q62Ljn4w32pzR2EtrQAjyC6RpjGPc6WKokTaNtUSfZ0465R+zzJcVvlY5dds2h7SGIYNici8T+n4Q4g9bPNJWrNHYRbHXHwSGYI4r0bnzU1gJyyaQGJm9mm3hM20fi6u/luc9NZT5pmVI7T3XVR144ylAHECaxDZPQORZ3x8iP0DUVl2VrRayy35U6dkV7Sq7r7dXUZTWt1169l1N7M9Yqkaf6cdNzuzr3XyNJB00SmckNx76oELIGQASItLwmSpnWom1l3bdB+cHcKWeQmKc2CrLxDaeg1umtCNvZB/RUW92U/FL4GzwCyH4wQkZsZ0R21y0gdRtRapXE0TIqTu68t4rQu/iUvHbD3d7iQZcQU24eyu5RrcNNhcXdsDX7polxjXUvE0oFYa268cNXdT9WwQDvcgcTnmcZbrSEpAPP0rnwp8xnJ1bCXFIBXbToNdHOLl++Oy9xUsnrXugI2SoBs0ZzYWt0dFTkhb7WsTQSW56HgO4AeeYzYmjldWrbOKVMrWnRX+W3buMRV5oCZ4uqZ6gqgAwm+BSrz/YUzuivkAhZC5qOj/QVA6YBvUMqb/rvkHFkQN/N7RKLZ3FnNhNneW0CjN/WAjE2os7l9WVCWNIB3FURhZnMniysGZwPoiQ2u1RlANzK77NlVasidO9xcHpMHZt0GKC6wYU+pu6/MQidVlg2gYYfVwKXMuWhORG+6yyMNQBdJGECCc4ko7k0nmj6PcN8BlFUx55muIGMA6rSYU/WVkjAHMICed+LbAqYr2BuA2gINoNc88C240100tw6J8yNJnCqFPbAT0TeXMEx3oceS+2ilp7uqomKW8SK3vyCum5p8tv2g/w+B/erL/2GQv/0P);fillColor=none;strokeColor=#FF0000;strokeWidth=5;" parent="5rvtZwvqExJEslM-TS6T-2" vertex="1">
          <mxGeometry x="173.6882360121783" y="132.00585219439338" width="512.4706223431756" height="455.52942612591914" as="geometry" />
        </mxCell>
        <mxCell id="BGpcuFCuqagJxrYyY0Eg-2" value="" style="shape=stencil(nVrZctw2EPwavaKIe+bZcf7DVVZiVRLLJcs5/j6NyKDIBrdt5221ml4CmKt7wLv85vOHd5/u79L2+fnp8bf7vx7eP3+4yz/dpfTw8cP908MzPt3lt3f5zS+PT/e/Pj1++fj+5e9P74bl+PTH45/jF/5+wW1h2wYobf+8fBFD9f+++PnF/PeHjyfz6GS+mTJ3O5lvofbb5jH0TOZJ/Hqaz341j2LtKfRO5l/3fmmeQys/YF5Ci7z2etu8htrI/OvjLs1bqPYD596nE7/Pq8ZrTyG22+Ye+kbmJk4mbsHOP59DycI+BjuHQQlbFPaLY0vIYrcRnq1k31VUlrncaV9DUuup8/Re7Zs6nxqsk70L50YEw/k8W8jCXbGHuJF9F7EG+3ZeD34gCXsLqZC9zHJj/5r2r4fSyb6K9YwycPavh03VBcSnkX0X8YlkovNBhGexYeRHoXRE+ipAngF8AKgQHRF/DgkkRRExN0K4MMDVE1qIVIGQxcoL/QJgIkzh1UjHWmQJhZsozwBownF5uwC4eEKOIZ4jFbmaVM9I068HgIrVnC8AJpIzoxbSHtoM92tADVtmQBHplttCCZqsXwC4M6CLhMudaQEAquJlWwA9JOVpn8F8ABSxpAKmUhigimSJwSnjbHrmGpC4ygBQ1BOQLpUBpvZQgqUzwGURKJUbJwAq+AoC4ezpwXLUkvrCLLZZPK8Bxr0N1TaKaC0+e98BUMWm60JhATARfABQeKOeJ+HpGvlYAajqCfj32dNoAJuoGhX9ITOginyoZdl0maTgGlC5zACgSF6tnKKD9agltVl6dwDqkjpWm2eyA3rIimL7jJwdsDOVa5K9hobLnG5x8YPLFG1ppvxOhbfQRWi0zKGBnlQUAC3w7Dj0JMXeWmXRBYApAIr72Q9oYkX4oXWuGqOJqSfYsod9V9cA5zKDrqf6Q99muhwAqtz3yBoAXS+LutTTjM0DQB1rR06f2y7aZFZ7ADtKDFDVu9cZCDvAZCz1xhmHvroJTwPgC6CpJ/RJFHYptsna2o1jCQBTp+STf+2AKMuMgcsvAMWMbSGJZa/ntwC+AFzJcwjcc3iDGyjBYZkVEwCqGFuZtPYAcBFLABD9AftQjrPKogkAxYytTe5yAKjwtr74Yae+twCkuwFIakk2efABoNquOcsyAEyEhm+ccaBciv4AQNUbgCz6tEeWlgCoaPU0U/4AMLWktKRol13U85zyHQBZ+MEXZgyAotJelk3rEYWv4Y1KpfZQmYYCoKSl7/1mB0D/qj00nmoAoHocAHVjgJIDvrB7ANppD/jwOkh+mUHv/7s1YYZqoU7oLjkPALX8IMCWJ6iCCplDS4qbnu7GvY8dHyGyADonL5toapoRZ/08AJSwX6dKbjKoxxj1XCu8y+485pDnAul6EjBGOLSkKkexYL+NlpSl50A1OZjS7HW3hhOR/BDltBGcyM5+MD0OHHziXCvQJxTDQGvt9ARdvladjubYRIEc1e28abRfVwDnIg+AGhJBFJPyGYxAi+KSGKDyAaK4NAYoPlx3FbIDsizBEMUrQI4OKmecaeIGjUsyAwA1NK2dL50syjJTl9IHgMqHVeOaJtDQuLUzICpA5ms5cHDFVodkPYdG3zvALQVKTG/oCHFKqwKFUpE63ecNzwGg+gMEJVFDqK1NC0oSAdBzqtxDHxJF7/lb+pAoCTSpCm+smAgDFqlmPn25lQRAbrovpwS5J0KjL4wbnlE9bsi9xgDlOAQzTWSaydtJ5Fc65wOiS91r2EKgAVC1dci987Ei4F3tIS8XgnqUtso9AFRTBICaYqsylmyJJWS5q2Nd+jQAqlQC0OlYsyyVaLK5M0D6oc+OtgOSLJXo+zSsa3pSDGZBxRjVtqlJgPPVKQBqIuNreG9y5uN7Bk9A1XcCAFCKVpfX4yBsdB2NJqbeffBlPF5NvugBANVW9FUpWTPfhlZ9XeTLgAUANVoGgPRDbZKRrRoXADUDHcS5M0CFt5fFD01ebg4A7aHKW2kAUmbAOR/+j6D0/SbioAFU67wARD0kKXw3MTSAOsvKO7Uur0BfddGB0ssQrfzSiunpli8XMt8gq9B2TOk1M/TGI4zRrlU89PkexoFVdeWHzqIBpEYea+dxWM/yTQvfXz05UBjVdgBIVONdCh+3C4LRVbQae7p1KUABoCE6urks2caX3d9o/+5M6dH+1e0HAOnsuLa/H3cLkJf2r6gkAIWWlKXwGeMXYiRJsqoB6AxQw4wxpSK+oG+WAaAB9LhQ1HuguoRurrjnYax1QOTvnunhA79Iiq9eXkLNb/8F);fillColor=none;strokeColor=#FF0000;strokeWidth=5;" parent="5rvtZwvqExJEslM-TS6T-2" vertex="1">
          <mxGeometry x="151.1000132841222" y="366.2411804199219" width="497.41175034466914" height="184.99162818203453" as="geometry" />
        </mxCell>
        <mxCell id="BGpcuFCuqagJxrYyY0Eg-4" value="" style="shape=stencil(lZvJbiTHFUW/httEzMNalv9DgNruhu1uodXy8Pe+YSKTlTdYh/CuSOZhxvDivinqJf/0++dffvv0ksLvP75/+9unf3359cfnl/ynl5S+fP386fuXH/r0kn9+yT/95dv3T3/9/u2Pr7++/vzbL+vJ9ekf3/65/sO/X7lUjlAWlcJ/Xn8TjhD+94s/vz7/9y9fP3g+RXw+Tnu+THy+h9vz8QgZnq/nn9+eLzSeerR+ez4dkf5/O+r9/2den360dHteCzbg+XHM+3zrkWH8Wct9X/92Tuj95+PRxu35ccQCz+cj1tvz82gw31x8vjEcEzY412PahqVzSu8D/VzAC8hHoSFphvEOFAbmuaUXoE1gYNgc2hFg0iUctTjQCYhHtEl3nIOAbvswjpAA0KpnBxqcBAHd5jCPRG/I558fgAE7LcDO/hKLBkBxY11qAadBQAsOdDhupbrcSS8KrVI9arsD+dzK94F2xODArAi0u3kvzaR96Ee874M0hjRYQLubhkQm0T5sJ04ySKpdxvaGfgwy73mq1gWMo9IcJFtmGhMdQw3uqN6k9hlg50FaS1Jf45GqAxMmLaDbkHQGYVlrOrI5q3xUMA0B4y4z0vNMgKT3bkv5OiHPAPNvAjpNWgOwIbUj0xvKMW1InYekIxocwGVtLgJyMSTGAswpLhcD1lr7ZnySSrLW7sa3XAzNYZyLeAGXOT4DbFkFTFrWeQrjBaRTC58B04YkqQT1blfo+ADQKrXowaEcAKm3gNodoGimJfdAbw7gGWB+ejkAOHEtn6HIA9BoSDpxdzGWnlM008pRN4B0qdXTmC9goENp1R275JmksrUzqXgAGhifAFvWpef0hu7hz5uePwP6fUiS50y2NPxMV5Z7AZaaSJ5xWacbn9QWl3V6+COAsoce3LFLbRMMSYAp35JnmHSPHv5UDk4E1Lt/WPIMJ64nF4E3eX4GFNuHjjmTAJNKAbis2cW4XsbyDHDzHuhFe9mWVcE6Dam4ttYryXkGmGNf8kzLqpzqbq1LnkG9BYzgQAPz7s0DLKltBh/XLyW9gIyhQ++ng3oAKH8QYGGo1BaHNM5yxAMwybyHnwepbaMhTT8PrWEkIKAMBwYNafp5kHhWGNIIZzh1AeOUtmeAxa0CKJ8e0up7WiYtpNRSwLgr39JCMO+RzhTpASCHIsDkXtJGfnpkd7sCKJ8WYIGulOqDN4zpAM6hnKJyAUr66Q3Fz4MAcuyjngn9BRQs2Amw8yCAxHgo/rKNq5jtCjBdEjDJNPpR7nK/hIcmPTzblY5kMu9xGsIFjHNW7wNzW6WBfnoG11ad8grLKmDcl3VwRDaj5w8COoiAAAt0dWipFj2Ti4AAKm4K6NsbJhjf3I7okgUaUj6LEg9AAdMQYMYngCKBudXIBOAciquGZIFsScCoDlAkMOupEQ8AOXYBdTpATlGA+YelVLQPbRtSwcqJgFIdoAqWALelijUBAVYoF5DpxPVtpyubd/eITADFfAKsjC0tpBBuXoWVB4ACXQHmgQRQQWpupUcBlSY9zv7KA4DGNzwdGBz+CGgmM513emzW2jFInNOjewG409MLgwJwDtPbXoMdypweLwkoMIcYgnddRNwnoQ9vfcvXluf1t2cNze2/xstNvDuO4BF9TOimggu2nqfCW/RKxupewUJuNd9YsKWRTh95PV8xTr2E83q+nQXX96t0nqpGnWkqcB3T1nOiLY+t5xOxbxWDV6C1BBRMaX+CdQIK7rA2qBpQsWCgHZpbv4RcrJZ872ZQUBu3alWaGKPG4UHt6mYwMK0CHVGpta3d3pCwDrNOTnZgUGs8eiqcOUwQYLFRLqhBaav05Io9n7R1x3PDgoGAkRwg4U1bHSZ3nnTddnqgAxTgHRk+oesKhBXFAzZ+U/c7CoXbsgK8ZB15lYYf0ZKwea3jErfWAU56a/GXq6T2vq5uNQwBg4Q4nG3ex9YBXf2IZ0T62DoA09D5sjBBABUM8qWkD52AQm/Ifk2hsJCtE9wcoMJNLtsbuHCTy//ZCVhHfjpADXgBlmyvRi0BzVuaNWHzWoAXlDNmhdIIL1lznV4aEaywX89A+hng9eGKBQMBFgh8UHZfKmRv6HwxSB5oq9NT+iLZ8n7JwORi9VSjA3hNYSt6rLI73/Ox8FAA2ZIAS4Ubi/Hq2g4HqGAgJbV9aJHfkPw8CKAQcV0M2uv09IbtYpCAQcta/MpLyxgJ7BeDGofd62LQcID89BJ3GxJfMhNgB0gAZTISd4uMG6fCAryF0zF3WI3k4QDVh8uWzreBblfeIHcHJu3D8OJTm9iAL1sq3AP2GgT04QBNuga/9/ZBYV+Aud1V2Id9kL+xlOaDwr4Ar0AndLv71aOe+bpI8jz6rWf5DLCLcp3TMgF2XWQV9vnqUd4K+xScCDCHIoCuWtTtcnPni3ICLJTuDR2KnGwwW+p4P7hWP0AC0Jaqx0t98BuaV9w6O0UBlvh1Tl4F+ImbfGesb/WwgNFM7d7SFEDdjHXfyoqAEbPdOrZibOQ3DDeNkfg64XDHvjqKtNPbBa1V2CfznltdMp87837tJ2xlxoJ9q7bdoRQw6Q3RtfWDGve6MrCVrCmaackd+wfl3pa2UukVjT8DLPEbA22pbUI2rhLzM8CLsXz7oxXPgQRQgNWKl1pmwEyxbbc/JtcEBFjlRABOunkveiaedPPS6eSoct0Zs0lnvk64fRlEAN2hVLBjdzNmwersWzj1AGB5dvh5mBXrGiv+yg5QCKf4y1Ka1b6jVZoenEx2u+saW3OA6hptE7LZ8Fs8ivDCBlCQKMBuaa6OIt1VCp4OTK7D97BZa8NAV4DFS6sFSVfA4mbeDWNvAZZwzI63P/omxgLoAK04uDtAprEu+92FbPLXYFbgHB3AfUjup1e/j4dklcQ52fiyR/cC0Jay11tX+46ugGUv5gigdGC/fyiAamQLsDZW8C8WvkB3Tx/8G4z61eu3H/PP/wU=);fillColor=none;strokeColor=#FF0000;strokeWidth=5;" parent="5rvtZwvqExJEslM-TS6T-2" vertex="1">
          <mxGeometry x="223.57064460305605" y="132.00588809742646" width="368.0000215418199" height="458.3529483570772" as="geometry" />
        </mxCell>
        <mxCell id="BGpcuFCuqagJxrYyY0Eg-7" value="" style="shape=stencil(nVnZUhsxEPwav6p0jK5nQv6DKpzgSoIpQ66/z2yMllXL24t5M3b37miOnhmxCzfPD3dP+523zy+n47f978P9y8MufNp5f3h82J8OL/ppF2534ebL8bT/ejr+fLw///10NyGnTz+Ov6Yn/DnzrLF2Inn79/yFN9X//+LzGf798NjBnQN4SgyeEG7jOtwZ3xvjTKBwCQC3mcFLb4w1kcC9cRXgnhjjTQxXwXNBYyi8Vjjqq6suwgM6Ug9D4SF38LDx9NjbLkZIzgSTe9ujyQQumJHJVGKMGN9HNZtCnx6kgxeaBPr03vZKU0yPagHOPWMDwBNNguAAXohnnEkCcOZIa2qfBE61gUqBJMQ74huLgVJ8oPa81s8Cz5xpmzMWeFZSzkSP+A3vD89nmRaMDPYXnmqDf/rn64c3GT93gPm3NX0v2UTIgtSU6qIZSsgZCY4RtCSgRsQU4siqcYe0V18JJWQ4g6epXN1waN9K7TJBg9tLmj4iMEIwDt6g9VMoAatRuxUjSKu+BSFygi94aGFxUNmuGIfI3CqDvAktmSkRIJdi63trhNoXjSYf07gLhGzSxhnAS4XKlhJCQgJrGepELKBChUIJFt5QWw9czVZBgmNx0FbgkcC09y03FwRhhFmrFoTIDm2HwPHmpyaJQ0JmBN9ka0GgunQpDpWnN5Sos5ZHToY5bosRTSnXMRI2wukYZEjXisG5oraXrhEkD6Ho1PIjrUoHvdQbbmmnmgZDuQavyoAz92vLvYwvJmXAW4avTUgWeDZGW2ycljap4NoQ/74VI3hc1mw70GW85n/vT0dFQvG5L2G+3QXBCYp3ccVDPgTaCyZ8b//cr95pT6TtT88L+aCDERsAw7jJsMah8YIGzjcfzYeEqw/rAooHfcs8vrbJ5RtersrPTOsxeFx/cmtTq/5HPFskQ2wNZbEasvPqz4J4NrDb0X7WLsTjNFRaQC7jB+kvNN9k0HHEf0SVtVF7qCpH3V5nlVwQ2CWREiBvlLAxbMSMBMcalg4bg0nsQmQcNpTAluE6S99MmPfpNQIU1/QGPp3kgATPZ+k4EOhoHPGyQza2ptjuChcEtnLraAKDqwQ+uKpiViTQ5BsJ0i63Vk2ySKCBi3idJbxtTG6FN6StIREDl+jNh6YG3GzKxtYUWrnMhEylRbMVpFcJtESHhVo29jKPM6USNsb7OhCYXI97mXC9HtddKVwENDXcQODpndNVhOFyZsukOmhrbivIGgGGuolA3rBYR5aBeHff0Q/4vwr96vx/jnD7Dw==);fillColor=none;strokeColor=#0000FF;strokeWidth=5;" parent="5rvtZwvqExJEslM-TS6T-2" vertex="1">
          <mxGeometry x="447.57056561638325" y="41.06471252441406" width="279.5294548483456" height="470.5882397819968" as="geometry" />
        </mxCell>
        <mxCell id="BGpcuFCuqagJxrYyY0Eg-8" value="" style="shape=stencil(rZzbbhw3EoafRrcNnpqHa2/2PQLEXgvrtQPH2SRvnyKElmb+6vk4o13AF/KI3zSLLNaJ1XrKH377/POvH59S+O3H92///vjH8y8/Pj/lfzyl9Pz188fvzz/sp6f801P+8Onb94//+v7t96+/vPz/15/nyPnTf779d37Dny/c2LcSJpXCXy+flLbN/9q/f74AX56/XgNNgLqNDkDd4lCgDgT8E/Ydgd4dEAEwEasCJSNQ/RMI6FvYFegBgVzdPlQE9q5AJ6H71tI10LfCQM/XwNhCYWAoUFmGEa+APWyJdtqe0BRoCxmudWmPKxlklQxIvHE1O4DU222cAZllqE6GFTAeBHp8UIZRHdAAGFt8FMgOyHTixskqFVK+caIaqK1jG7sCA6YUQ9iCPCJtiWzlOEzpBYC2cuiR2/MWaauH04186OMtoMiBKHyCzEg0BdC4mrruCjQ2G1GmtG+B7f0+FMBDbS7NA6Sudcu7A2jjzI16gP1uCk5oekI5LOPFsg7auHKIeLkPpBr5UP8LYKdVylstCmSy93krDoj8hCxTysdW3gJSUQAdtZ0vB1QG9DxkMUz2w1t89hLavf7uVuBmji9cz8M0hAykAbE/COShQIHFN2B3T+j8BNEHO0cB1nJ6+10BipIMECNvwA7HbAJJgcZCNxG6oTGaQFYgwjGbq1QVoChpAskBLIP4zjuAR58gxsiAvNiHokBhoYfbhwrmzpx3dFPqYComIOeho8k+BfbFE3YFBqm3BbOiGhY38QGSiPstbrp348ZxQm4BZSiAMgS1wBdx0ylRXJT0FprdAlpxQvATvBAVpDZAfOeMm8AKzFRqV4CsQHGpz9QNmlJ3O9cxvi0uMTGAIujy+uvLA7EAggKBhc7O9A22MyuveOVsPz1/+XKnw+1RJ98DVhlOAdqAU4BKKxO4ltY+oWB+AkMBsnlv3/cKpGNLbgGidQZ0MMNzAtd63TN6Bvs+sdsGULpggC5rwRzJAIkyekHvZhOI2QG0rJZz+SmRDFlrMfYJWdX5fcmtEi2rReJuHwrpksX6VQE6/QZInjfXDazwBLoDIJ48fUKmjTPA6RIV0abQcoDKkR/fC+xLoaMCiylJAapzbfJkWRtmwwaI+zSAYuIJiNDmGFgGVe9+aNdNYFeAPPopQInhyZQGpp79tWhxAeSrJ7wnz6v18JCvHo3LVAYkyS/SEWvcAjTYSXjyq6u3G0AqWpumwAZQ7GKABgoZ7aMBsvgzsYftrd1F/xlrpAaU3U2JVqm7KSWsv1QLCZMCFQ6yARI5Dy4vGqDLGjFwNmDPClR+giaGEe9uJuDUm2pIBmhYGw93fRPYdZXIAk/AaSsZowmIDBlLc3W4IkNeLWsXXSqrnZa68Hg1gLcAqeW93QzeBJoCnackNdVZNIUnNFc9N4As3wSSAmTjTwAuY5wCpN6nAGnrKdD/Zy+SspYipnMCczeBXQHKdgwIDqDAfwKiceFwE3c+wYAIXiS9hpcXABXODNAsPmC2Y8CeFKC7DgO6k2GHQ5CK8+YBnYIB1clABZu0O08YeR/2E6dApsIALTrFI0A8B1zLwDTZDGipml2nAbsLMAKt0hlA1fOTKfFF24nQmVfJL2vG+8i5caJ8fJV3ohoFXedUvvQgILcpc0p84tT9Fyy3G5Ddxg0CkqsuLvYhab/K9OYkQzrRJbStSXPzqXykS+lE6EQ7nY5K9mV0S7qUjmTo3gPkgYSXQ3e4rPeW8uaOSarWDz2817ktAa05dcwep2NwU6Kk3E5OeCjHNkBrf/3wLbcArcx1dp+75iMTYE9S3SpR1uZN3gqox5rcD/iNWwBi8lbAWvnerddOTeMRY92p1nGlpBKcRg5ekob8ESu1Z+MpaZnzud7dtJS3yfi0CCCrjKdin48fE7v8fASLb+Opm83GV5W3s7OU2++88pXS1pU57CoaH2S89JrBrM6n0v664DfjbcWcj/REcoJQNAUpW2arLutZMPubyyENkcfd/019KzIe9zdpYbZgOWeGBdK7ghetdvxGemz87uZD9sRdkBcOzcI2dP2p6GvjtW33SI5ujd8f2t+gcVnhRCi4vmO2P8GvD9q3oDFWPlz4nd/Pd0Rz/np+qVaX3NX+wj4E7aLj65u1v/v/edLATt21kS3Hy8kKq1is6nwWlnm48WRJXGq4KK1U1fxF7aZqOw+3eKzX/707G6PGzW3gUhogRnkCMPcY9RQ2vmo6mRK3dsSg2jMBmlLQrl8DKLKKQRsvJkA9uRo5LEQY6inawEuqobdgNp5yEdeV37h82TX/bdzm1LRc3gPeBjVt+pvNI1Sa1s7I2QpCdWOXhUTsomjaU2jjyTU2vROx8dSa0tT+9LTYL0320xE73RhfXF8K3aB0dyOdcH+Ha59IuP5DI/nO5ZChr5nM8dScrbcti++Prtt3CgAbPE98cSsEMzKguC2mLTBgd2tK/cQTcFMiJTp9wmKVilNranmPrie6cwo8gaDAQgbdOH5jyYDgTAtdxA1X1gl4JTW0vNkDNtYO1xcU+K2AIya8HE9vcxw3n5fj6f0S9d/9Va9uuRo/HzRdw60PmfY7IpB3h61qRWvFMmXU26jleDlfNp7q0FGrbzaeVC2ql6/8bqlr1q8NEwb3gkLldyaD9ldWru0FffukcldS0HrRbOnA709Dx1Mjlo/iAtaIXe92C1jACnrXaOOpQBO0K6FFTEtcfaDxTWM8DMfFeDI9UbOSxu0t7g6jce9J0gbpOZ7SJG1VaRELgq7+uZA3H67nYjyd36ymebFf7jq8BSzouHpm48vtrPUcG09RbtYoqwUsoLjx83zx+KDjKRrImsXP887rWXU8xQJZQ7LKaV7WmM/GUxaQnT3v+DZVdva8c4FM81obT/vr6p91ceGknQt1caOl9ajl94t9WMw/alRf+ZX8qPZhsf7xRF7a33giL5YJnLwDG9/cO1o2nt7/dG/vzXZB0H/3WtpsOkP/q/aZy2rO/7aA6x/0fmT6R7AnruPN7O11VeQJmr/sB/2zH/bRy58MyT/9DQ==);fillColor=none;strokeColor=#0000FF;strokeWidth=5;" parent="5rvtZwvqExJEslM-TS6T-2" vertex="1">
          <mxGeometry x="109.6882162655101" y="50.12356387867648" width="645.1764903349035" height="641.7646969065947" as="geometry" />
        </mxCell>
        <mxCell id="BGpcuFCuqagJxrYyY0Eg-9" value="" style="shape=stencil(pZfLctswDEW/RlsMSfCFdZr+R2bi1p62dsZxX39fqCrVELKu7HbHKIc0CFxcSAM/vO6fXnZDcK+X8+nT7vvh+bIf+N0QwuG4350PF10N/Djww4fTeffxfPp6fJ7+fnkayXH15fRtPOHHtM+Rc+Om4H5OD2omqb+fvJ/4z4djx4di+ZoRL8HyEZzvqaSeT+2Eq3wgVy1fHOJztjyndZ4peMu7iPhi7hupgvgj+XQfHxf5cYL45X2zR3wxfCYG9dVojX4KBRiP5SsxyOcyHqFU7rivOKjnSKmvr4SNeJh7ntsvrtXX8JEE6JNtv0je0pu5byEH9ZyD5VF+mKL0fKWM+b6+Ihv9xWL5Au/Lvf69my3szwZd/HW7ySjn/63ZoKfY25qWlUGbeMoLGSA+2LA3eG4ifMM7IDOVQW+DKmNkmwsbUR7ZZmom8IaPoM3zok1mo17hqzlfBwH/b1XHJPRldW28XI1Ck+zjfXzMhkfNobxUw0d0vrqH5VEzKZ+S4QNQwehF3vBomEiiYONxQDUyz5qbz69i8wPMYPTGPh7fCrjGh979AnnQVcqbNtSCM+b7eHTcIT0s+Nx8aJU30xCa/cgbt6eE6qX56e/rHXwb0Q2mYbynijPkzIbQrHRNEmYgevVGrLnKdgNsymRfOXWDdFn9J+/R3u0Dn4u91ovBamGDF76HTy0LN/KL3trkS7E86sVCycYfkJarfVNQHulAbK/nVpDrE90tPoVUSTfLQBf2k0sfTZ9r/PgL);fillColor=none;strokeColor=#0000FF;strokeWidth=5;" parent="5rvtZwvqExJEslM-TS6T-2" vertex="1">
          <mxGeometry x="70.15880629595586" y="106.47650011848002" width="576.000016156365" height="267.4117660522461" as="geometry" />
        </mxCell>
        <mxCell id="gB4EqIJ7P2_oo9sxyjf8-1" value="Untitled Layer" parent="0" />
        <mxCell id="gB4EqIJ7P2_oo9sxyjf8-2" value="" style="shape=stencil(nZpJbhxHEEVP09tEzsNalu8hQLRJ2CYFirKt2+unG1ns+lH1KXrXZMfLMebsS/rw9f7Tl7tL9F9fnp/+uPvn4fPL/SX9conx4fH+7vnhBZ8u6eMlffjt6fnu9+enb4+fr39/+TQl56e/nv6eI/x75bzLfkLRf7/+I7mW/vvHr1fxPx8etXgeSrzmnXh0o5yLB+cTiceqxGPZiQc3pHhh8ZyV+Nhv1bsRz8UjLwZHJRYTXckkHuTobZC490p8sLgaPTnP4mrtyQVeu7rV5GKmcy9CxSC+X0x0oSnxxCrWgxTfj57e2Grej56dl6MbcT06LSa7Lk+Gzr24IBYDnWHxJFUseRIvQsWMeRRXpfFVFlfXFNbcr+JDnIwZvTovtmrWDnFpq7mwuHB65prqG8Y3jLiwpsy3CvF+Ll6Wf/45cXz7PvHyPvGhxfHhNVBdY9z23VkE6831uBt1JFfEgffO7m4kGQkAtL4H4gpsx8BwnYCwTuoQGN7FxkAQKglgEOBlJMZ4dX9Kc5FCz7DF1BhIaklpGdENEMQpAaiBgayWtDnfm00rfQOQAh9r1DPQksYWqM+Avt80djWEYxubz94A7ZbxdaQZqlS+OR4BTYaVAwAK/74lQTX0DN4AVWlrXtHhBpDHml3ZzxC8TpGsbvwEYXcxtIKzcrxhc+lg203ZnLWIIcPwPCcDFJFeHd51VjZXD04pK22qB6ckHU1zzRtAqV93vRlAaROuycwQxSndqM4NsXd+/ye2mVFDlv7rSF6pg5UvqwQ7kQ+N5ZM4F885JeSVtnnOtCA/ZH1JmhCq1LVg9lulQQYud0Nb5cZZYllYXheNlOaG/kZtRJlLGKu4OpGvRl650cwFCU64iPMpvB6cQBD3haQ/s7zK601+iRNT+txM7ZikZ+im4aDru76aIzfyVTnDdZubPPJxVfb4tdwNqC4qIKwEaAOaDGIhmi235ezOAHKeUetogNIRMJYbOAZQJO+BpANx2DKmG6Aq94yYRDMgDxT3BqAZQOVQsHPeQ5S5LAw97KNeStL1AugGqEo1tkxgA7I0zumtDaBUY7pTArR6A+A9vFF5w9wLA00tKZkGZZM3DQMOBuhqSXlFjA3osnp87aNswJDdCZh8MkAVqjFNfr+k7KXXAEBxAYBq+8ZuGltBZlBxcBMkb02XM6DTkqLMM2HyFBty0m2ZwMEhJ+k1AFBnJiP7EhcHk6+JAdnQS+zuc1l+5AwYe3eftQGlLT7dAMqApgXTktoyqWOgukBAXyZ1BgwDdLXptqrRDdBFzjTIPVD82tUxMDivLUHf9Fhp3QbEZYPHiZXn9guALrwGzIU6QiW5Iuxh2hfNkKXnm/bVGFB9/Glf+9qxlNV3PQMoApUqM4FsanIAqsLOpv1Smj6lshryG9BdVEsy5SwA1bkGwJseK6s+BhpX2EW3FXLj6rTq3h/sKxUGhjqlbmYIq79yDAwOuzXKt4liKk8AqiNUPL/e1SRLclhwMICqfQDwprNs2hb7LlBWiDkGTPlWdXkLgOqlWmXIggXTs2LV3hsWTI9zVXvvUkwPX9sDLJgfLMbqQR0DjXONpru8MEiKQABU2J0WvA+KTT9JwiALAVF6DdhXNIA6pWmQtIckQ9Y0SJoBpavwGtMgDVBFjANA7yoNyqKWlDigtCJjHOzL0wxVusqaOYo2HR9gX4GAJl0lAMo1WtfHWleicAMoXaqmtASgnAAsmGfQAQVACwyoLjIsONJDjJepNACKcV0nWDB5O4Nc0jBvQ0H6pekjKgPq/RoA70H3ouAjKE73uOLqGdAM0IQjg4+g9Kcn2d6bTqUwoN6G4FSotOy64QWAZ8iy4wunYmeo6pSya2aGLpQPToUq9l7kO2MzBTiApO6hmE3rRLdVzjW69nwAeEm6jgPAp1S1alSuFAGo36LAMUYzg8o1pic1QNtd3EU8eeAD/0YN/7r+vi19/AE=);fillColor=none;strokeColor=#0000FF;strokeWidth=5;" vertex="1" parent="gB4EqIJ7P2_oo9sxyjf8-1">
          <mxGeometry x="424.67133004324774" y="35.72858483450753" width="286.28572736467635" height="467.1428653172085" as="geometry" />
        </mxCell>
        <mxCell id="gB4EqIJ7P2_oo9sxyjf8-5" value="" style="shape=stencil(nVXLUsMwDPyaXHdsyc9zgf/oTAPNAE0nLa+/xyETUyVUMNwcZde2Viu54c1pvz22DZnTeegf27dud943fNMQdYd9O3Tnsmr4tuHNfT+0D0P/cthN38ftiBxXz/3ruMP7xCMDdiOLzMcUMTDmK3A34Z+6wyWeEVngGazhPUwS+IRoVXyIAm8ZPqmE5CXBw2eFEBCNJGR4rxAiLAlCydlrOaxOGCOsEkgmTRkuqEnnLKtAMLqsTubAjKCdsK6zQxAqlcW3qyZD1n/X7FbNVXeNCKRcAxQkPoEUNzgYKaSzsIoZwmzeii/mcdfxCUaazUV45f7WwkjdvUFUDihuz7JfvAMplbVx9mIllA7T7FwVmQmBwHqHLbwTHFh45z9WKMo5WdvkYZWLF+UWnf4boQ6CC0JWxC9C5MUJSbVDCPCyS1KeL/kjIRKSLG+26niLGSTncy7DR2ncFOdBUAnF5PE6Ia96Jid1vFmz6uKL0B8cURbL56mEpqeNbz8B);fillColor=none;strokeColor=#FF0000;strokeWidth=5;" vertex="1" parent="gB4EqIJ7P2_oo9sxyjf8-1">
          <mxGeometry x="616.6713213239398" y="444.01429530552457" width="33.71429443359375" height="57.71429879324777" as="geometry" />
        </mxCell>
        <mxCell id="gB4EqIJ7P2_oo9sxyjf8-6" value="" style="shape=stencil(pZXbTsMwDIafpreWD0kbX4/xHpNWWAWsU1dOb09K1TEHak3iLk38Wb+dP24lm/Nhd2orxvM49E/te7cfD5XcVczd8dAO3ZhXlWwr2Tz0Q/s49K/H/fx92k2R0+qlf5syfMycNkDNRDF+zjsJoUnfO/cz8NwdLSBSAtq4QE0WIAjRARJgATCgD0xnFhCvhgQxlkDyakiQagsIBHEABcYSUHKBqBYIENQFUioBrdcBQgQsNEXgcE3kxY9RZo9dztYcRApUKM/tdbqfAYkl0Djdz0AsSs0pvFJ16cQCKEJyus8IZC2nBHVwAbFFK4OiC9SFpADs3G8GNFggQu20lQnYdim/PM9BGQiFJAV0TJ2B2l7claf+4SAEtmnLpFbGH+HRMcOvcF7Gy23hAcQXY0dPdOdC9pm9ozxNXTFkxVze2lq4FUO0zN6VeLQGIIHGzV8MEIogfOv150X5V8pb8x9Ntl8=);fillColor=none;strokeColor=#FF0000;strokeWidth=5;" vertex="1" parent="gB4EqIJ7P2_oo9sxyjf8-1">
          <mxGeometry x="162.95704868861603" y="357.15716988699774" width="464.57142421177457" height="205.1428658621652" as="geometry" />
        </mxCell>
        <mxCell id="gB4EqIJ7P2_oo9sxyjf8-7" value="" style="shape=stencil(nVnLchw3DPyavaJIAiTIs+P8h6usRKokkktWXn+f3my4HmJm29rcRiP0kHijsSf98PXx05eHU0lf315ffnn48+nz2+NJfziV8vT8+PD69Iank3486YefXl4ffn59+f358+XvL5/Okuen317+OH/hrwsuSUpnUEl/X16ojPzvix8v4r8+PXNxLXeIF2n0660v4lmcfD1LzkHcEhP3VTxJJ5cpoh7E/3txKK6SSxBPVHxoFCd3N+nx64VYpoqNO1RtkqIhG/l6E13dVKR2Jh68qtIGEx9rzEB3YkiIr26CMvWOr7sUpXdfxbuUxsTL6tUh2Zibegvig3x959WcqCWrJFvlsxTiKIvKQr7ToMx1lS9SiLoa1YV8pfLeo3wnzrJdGCuNBROrUb4QfavksZOnoZl6lFdyH5+3fad8l9zukR9Sd/dn8givcZcCiJfqHICHb63o0sWu/7vVo7pPt1+zsNK2cwAwcRI5vYvmCEgMMGYmXQFKexUA3SKgkRNGmrm3ASgD5IMTMikPQ6eKGwCrbsNmNXuvDlVKjWZlBXG02dY2ANa5ABhrDiA0WE0cLjVcqdEiB0APAOQdU9plBB3GLDS3AL5mDXzvpE4DYGvwjTJL/TutBN8XZqUmtnoavjdS6uDpYCW8MR4aOejQJLMTbA4ZG4DfFa2wGy2PuvODz451CxBiafQ5Gt0CmEeA8ytFwOCe3uswRBnAZiBsADSnkZA9AjrToc5h8tvYwoddOFbbfQjfRdOYA/YxoEdm8j0t+uRFGwBN0rELDm7YjY4bhC1H/K/uGVubohrwqSLIO40gn1/byHdSW3os8dp555S6dikdU6MbU06YoizxDBBfE8DynJNuTkWrgUwp1cPUmtecNKM9CkNTCyogIxgAfTZcqVNak1ucFYznS+6TWk9A5Rwxj1gmqlJyAM4Z4qLaNMMxoOyuxKkf+ESYf6tTSn8mRGvoVYQqKUNgCG31dOWM7swv1xNanq48Bng8oRUaGkiftnq6wQxMh7E7wSaBP2ZpKe5VWp1vjgE58szW5pnHgBKJb7tOcccAjRuK1mdLOQbYJHJXwKDTiNbIvQAYxA8ounn1tCc6d6KKplVpz7MSHgPQ0tYreaHzDupoWUPDlVYNFNIwgrnRaQSVNJRKAFiXRSUNhMGRUsRxtpsKvdFB1Wqczt1pxplPTnQFwNCk8qH0hjIDABtUbcTZ2QdNUZTesNjpibbEWuJeque5rjwGYO7MEcBG4brbpfQilZ2wW2Z9h3yiuMcTdLryGOAxp8ElWWNHcQ/7I3DJzPzQ42YTABZ86AbxSnU24luAMJyArbIVXku7RUajmw8APBBop5Xv3KBSBLClfrsu8TcEmq5od/MSAJVd6fqrwoZxZ7am1VgqAWA9DgALi91EdysA9B2nZ9M/mqyuVhqZUp52nSE3ACP5gK4cOhAArO0CEBl3DssYxkfwEH+EwqvLD1j68R8=);fillColor=none;strokeColor=#0000FF;strokeWidth=5;" vertex="1" parent="gB4EqIJ7P2_oo9sxyjf8-1">
          <mxGeometry x="516.0999014718192" y="59.30001613071987" width="192.5714329310826" height="193.71427263532368" as="geometry" />
        </mxCell>
        <mxCell id="gB4EqIJ7P2_oo9sxyjf8-8" value="" style="shape=stencil(pVnLchs3EPwaXlEABs+z4/yHqyxHrCiSS5bz+Ps0wtr1bkPsZegbRXUvgUFPzwz2ZB++PX76+nCK/tvb68vvD3+dP789nuyXU4zn58eH1/MbPp3s48k+fHl5ffjt9eX78+fL318/DeT49MfLn+MJf194ObtqgxX9P5dvvPP+vy9+veCfzs97fAuEz0Hgi/N9hw/OV4lPnvDZJD5Xwtcs8S3v8NGFLvDVhUL43CQ+G+G72m/leJozFc/G8TSXyxaPDz8O+6KT9X9XVTCtOi9hunGXkNHBLverhiyK3KV5wielyraI8Ac+R4lvkfA1CXxnFVSdJd2lTvio4tlZlVVmVfEuBMIXkSXAx0j4quJ/qIedyr6cn55uVNrqLmvgoysiktPCD/HFGN8FPiznsuLtAE92U5JLQjnReXp+dlE8P3LggVf+Yc6T8Is8WXOJnl/JPxjf6bzaIu138cmFCd8kPlI8u/M7f73HzzrbTcO+xS6DX4KwIaiECtBN2xOS88JxQOiVCUo4ITozJhShhGCLpa6EvIjvGoFMEISkNo0FBCZUUQxDdkZLKi6oPeDfjQnKCENd1LIhlF1Y79FPqy7tQzMOXKQtCKH/TwKdFgimCGhcKhNUJra1pG0IRcQShDTtoeklRfqFKBUHufTGBNXtDH15Jii7GgqOTFCdDAhUSZEWQeQlspC8BQRT54CsKUyQ55Cmc0Cm6iXZvsggU71IZBBYrUn2J22y9aDda7hhYsLeUO/ydbgonRaXi/063iWYWDgINA+BoHYKQpoIqnSAEAsT1MgCgp/2oHqC7jlr0BYp2wXBOhOUpkEg9xqNl9JDXwrFhtCVRBF1IhwYancxMEFKtLnemaBapxvEd29XHFzYuxb6IlmJOeGBV11xmIIJF5PPp0KP/l8Vp8AWB7xeT93XMsxfQZX5aWhHlRf6nE4K846pVmiSQpPd3NTVA1+EdCIXGXSoUeON8Woqiezn5l0S8Yw89QBffvoWAT0NtSiQgbpcQQr6WWeqvDceB8dFgqqlbekvtsrRrmCTNLv+Bc6ttXm8RqAREoSuo1Qmtak7sUGgJfWjKNVJb8p/BqEwQRnKTIDiwvUbhVsVN3m4HXTRbemktgTRQAxCYIKqEmNJe4lalN6DwuUnghr02nQZZSbLOwg0SoKgOg4QMvkDWkyl6b4MChtCU7V0aiAsy0kABBq4QahiSSBkCut6FX21azImqE0PQmfCfli9R9Pz5UWHA4nTsukysFfZ/o/iYExQvRUIffoF5aLIEZoMQVAjjE0dQV+t/n1C5KsFEFTLYdNNGQgyrMgRIsAUFWGa20BoQtNQcKCR3vPbl7umpOn2FnvJSvqVr9uPCGXyXZOCACFVJihB9OkmCAQ59EwvsnAeQVlQnhwlSaPuq6VtCFktKXHzceSKiMlkcqov7pNGQYg/ff21keHy3BTpuXyB+h5DXU+N3IhMkGNw57k5mZ79kd8TIarJfGrlQFC3j8ibnpmg2qCRaPu8SWkZ/a6lQalMkNcRZXm9uiHIOolJjc4hL3c3N0gIH/hVM766vKa2j/8C);fillColor=none;strokeColor=#FF0000;strokeWidth=5;" vertex="1" parent="gB4EqIJ7P2_oo9sxyjf8-1">
          <mxGeometry x="181.2427564348493" y="134.3000052315848" width="508.57143947056363" height="449.14291381835943" as="geometry" />
        </mxCell>
        <mxCell id="gB4EqIJ7P2_oo9sxyjf8-10" value="" style="shape=stencil(nVpJchw3EHzNXBFYCttZlv+hCNEmwzapoCgvv3fCQzS7Ez3JoG8jKrMHqDWrei7p0/f7L9/uLtF/f3l++u3ur4evL/eX9NMlxofH+7vnhxd8uqTPl/Tpl6fnu1+fn348fr3++9uXgRyf/nj6czzh7yuvZ1fSYEX/z/Uv3rX23x9+vuJ/f3jc44vzjK9d4mslfFT46jLjvUl8y4z3At+cxY/hu33k/N2ZZ3sGia9HfHBZ2b+zPaOz+pHnJ5eyxOdwwJuLyv7dpaM9swtR4oMnfFX3hf2P5ykuKPs3VwvhTd0X+Ej414S4hW+V8E3Hgz+ep7pYJD42wlcVn4u/mgvvxI8Rvur46Uf7IMCFfYLf8mkLaO+C/oZXA+4ITRPyMeVDcPYhH4Sog7TN5+0IVWVxnUm+EZKL6hvqcqQ0HXOrjsZj3AVzQREyBwYIpiLJXEtMyMqsdnIkGavJtciEoqyUnNlyBxXdaYbajiDLdXS9M8Gr/I+u0ZHecVx0ZfG0qQoAwhJLQQXfSojT0K8EfHgTAFftsP3fLWWQnKfED64Ly6SZUju8Mgz6UGN8FsGQlkIUZIoBf7R797OVn+JtGnmHL8Ls5pJnfJJ4y4z3Ig6QGsfntz5b4S28MV6VUST3Yh8v7InzL/aJItvP7JPleVb7K38lFkKIB2X/NPvWDl9ELUE8L/guzo9KQvdFkxHKAx0lMz6K/DrF6/MY45PwV5o6b4+X9qnLfbOM59AZr5TfEs9dl8G81KsklVxm4Tr6mYj/pZ+OhinOn6eO3/BZNjvg6b5FKvW8xHOV+Ztntu7wVeY7x3N7r751xldxfmOdOEYDgUe/6IxXWiDOuXSHV/0oTu/v8ErZh6Wvez1KBtYmQ1uLhPFLwusD+aXBdJlgfpabHV7pPdxueb4SlMsg8I6DVzxmrYN9/o+MCZkVXkWei2OEwoUKBNWoQaDOWNMUibcIbSGYSK1Q5w5kR1C1EATactQ45cQtAo3ZIKi9S2gszWuQg3bo7N7q56h+i0CytmqBMgKaVgVd7i5Ghh1LdGmzyJ8TAmuaUuV2BwTeFlQtCtBzaX1RZGiAQPuvkuWouupuELwmkJAoJhvBUJbkhySV31gZEQG3EtE6dkadCWpqG0sg8kOQa5JYuQgUqHt1ByTQ0ay5Szn0tnfZCLpfxs6CPVctkD0rBBCUYk8IbyIUlxUh8rIqZ+m4lObya0dQy6FkrEqzyRRNefp1I6SZIeeE4nxngtrQgdCPGZdRW9UdKpeZrNdPqfEOPGM0VqN3Xxznp3o7116opI0JqlSa50JmXU/HYdpkI7TZiM8JcYbajqBWN5a4VFqV+sWMBY8VGRqW54ZtR/BqZCncp/GIpMy6xJKZ7NO4Iq1vYQbp6SWWLMmMs2Whb/oNQ/bLpYNcKYNQGhO8IgQuMwhHE2YFgQQWMkR5GglJdQkEVQTyMl0gaYs6UuI7gKDa7ihbdIcq5/G8LGhQqYrIB5Reqnwonl1ZKc+Bd0dQO2i0D7bSOzP2skdPeo+etxFhI+itC7oyZRy6nhcECAV/PBIasWq7INDAgVavzArt0o91aYgJ4TjIqboQ1KUh2EisQxApNVMyL3MhuVSPG6KzMEGadTvARjD5EgfCmf2QtB8ql5m3FcI5oXFDiVHOcRgvqIuOJYK6dJ/qaCNsW4RTAiYea0xQGYchjB3n9TeExXFeKuO6TChB71XqEt4gqEXkGIbpnQwvAohgy8u0JmfRur122hFUY6955tdGqHJ5DAK9VgZBbWtr4eE1FLnuB4F/OFDmBvGcsIw0YfvOWwRKoLFLUYTGDSXolScINJaBoDQfCPye1WSprH0qix2hCikNQloIauAAgfbUQe+XQGjLC0G1B2x+MWuSOQ0CSTgQVLkHgd8V6/0SCNSBxitH4QcQ6O0dCGo738KScXEOObcItJsBQeV0C7wvDfyCU+0b8YF/Y4U/XX+flT7/Cw==);fillColor=none;strokeColor=#0000FF;strokeWidth=5;" vertex="1" parent="gB4EqIJ7P2_oo9sxyjf8-1">
          <mxGeometry x="361.8141871861049" y="330.8714479718889" width="378.85718209402904" height="387.85712650844033" as="geometry" />
        </mxCell>
        <mxCell id="gB4EqIJ7P2_oo9sxyjf8-11" value="" style="shape=stencil(pVjbchsxCP0avzISCF2e0/Q/MhO38bSNM457+/viuutUsD5ppm9rWWcFHDig3cjN88Pd03bD6fl42H/aft/dHx828m7DvHt82B52R3vayO1Gbj7sD9uPh/3Xx/vz76e7087T05f9t9MbfpxxvVCrJxSnn+eVRtp/L7w/7/+8e4T7cyZpEDB0BtgKOkEXAy6AToUBoFJqM2BQGxDw5+8FwExVAKBR5RmglBIAdNLZJK40EGBQLTOgUwJRGom6eIAqADAl9gAGJg0hzjOgUQZRGoV4+Ch1BFBi5/TlFeuAwPQrxI3IdKaETmgkLvkGjQwBrXhAQSa1Jfv/MVtHp5xmH4x7xHQEMCnyoZOI50GRDzG9GyV8Qne5NEhR8g1Ks2pIpoGiNHzySVmy6xqgzjxIpQrCmlNaav6CsMABm9YQg2Qyyh5epPms6pf/rmm2UpuDWY3fet2OuN9EHEi2xWFmt1pVALIalTmS1dgD9oQKsP0V2BNyoeEizonE9TQTP5AL1sJG8gDIrFDRN52glPlNPgTlqlgmrEk6ua62gvLZKnA2qVZScILJjudZF2bWAZmy80Fg6zeAzzyB+m4AH6WyMHMNoOqdzkC5DCAhrAX74HqUMY2qk0MnbwqVywDVZauJH6gfDvXQBeo7B92yCQj5cGph8wmn+QREKQf1tekBMR2z1RppB07noBp/yfF/iG+UdF0IX7Uj7i+LFKzH3heZNT7U7VsYiTqssThoNji/m9T5Xn+5AqwDgrxbSQzkMVN3VwpzAVVMGMdNLRkkjzBlN6TJMratAzRcWjIVoI3W1/McJasI4HMJwmVDG2CtFP/+CrO/VC+9ShXYXwJpZYnx+n4bcl1aw9uHBs1iaoAxDfFhOGBqzCE4sqg1oll0E7yqaFnk7GW/oJErzFxee9z+MHO9sj+UwFu0zR789wFbOn9bkNtf);fillColor=none;strokeColor=#0000FF;strokeWidth=5;" vertex="1" parent="gB4EqIJ7P2_oo9sxyjf8-1">
          <mxGeometry x="530.957035609654" y="562.8714556012835" width="120.00000000000001" height="120.57141985212054" as="geometry" />
        </mxCell>
        <mxCell id="gB4EqIJ7P2_oo9sxyjf8-12" value="" style="shape=stencil(pZbdchoxDIWfZm81tuQf+TpN3iMzkMAkBQZI2r59tdksxAJOO+2dWc6nteQjeQe5O6wed8uBw+G4374sf6wXx9Ug3wbm9Wa13K+PthrkfpC7p+1++bzfvm0W0+/d46gcV9+372OEnxNXM0kYKQ6/pictU4wfTx4m4HW9+ROQEgRC6YFCoQEgUa4eUIYA5x6oFAsAhFQ8UCsERHtASTIAmLR5QNEbmNgBjRICItXiAVUI5NQBMQQK4Sthi7NRJo+d/rvloC9R5sAaiMPtnYwbvQCQhQzI7AGUqxW79RZSKxfaklLpi6N2IKANDIhuS0IB5VApZw8oaAMzfesdoYkqSrpQ6h2hec7qOpAvqmQhUJXyxTlUCsCk4ywRDxSUdKLmqqQUQO8bUMUDsUv6X0wtkUof1rdKvw3Ti9ejCSRmeHX6As6WG0lvBnshiM/WAOz0MP6FnRm2MFd/CzBVcExcKPf5CjEwDue5Xc96ND5Nz3397U5A+WY/s9Js7f9wTaPmJqxNHdCAekXf0Aj311bk+RK4qrdujr1eqAB9ns/wpE+zLa7qkzex6RXcijLfmSe9DSjkGv/lEM1GwJWBqot/sukNvTOB6T+nyV+4wBb+K8seTV9ocv8b);fillColor=none;strokeColor=#FF0000;strokeWidth=5;" vertex="1" parent="gB4EqIJ7P2_oo9sxyjf8-1">
          <mxGeometry x="213.24275861467632" y="132.0143040248326" width="379.4285801478795" height="467.42854527064736" as="geometry" />
        </mxCell>
        <mxCell id="gB4EqIJ7P2_oo9sxyjf8-17" value="" style="shape=stencil(rZrbchs3DIafRrccng/XafoemYlbe9raGcdpm7cPthrqANCftJneOQo+aQmCwA9wD+nD18dPXx4O0X99e3354+Gfp89vj4f0yyHGp+fHh9enN/nrkD4e0offXl4ffn99+fb8+fjvL582y+2vv17+3r7h3yMXk0t9o6L/fvxkRJfCf5/8egT+fHq+BZS8C0guFACyC1EDjX6huFqugey8B6C56jVQaNHD9XYNFOdhDSm6NjRQEwDV+XwNVPRSGi4ODdT+PpCj6/UaaC5UAIprXQO1AdBcS9dAdwEWnYdLRQMFfqF4l6IGBnhpAYjfaA32kYYr5CW76OEauzUYYEDw5TAf4BKAnU7NpetYCt7jgUjBdeOmATsXq0teAx38Gr0JpjE/WQKhuGIAir4QzAkamJgk+o19ogPkog0l8FFYuCjA85y26MLew/db++76VRzJH+e8fywZp//bURAkXQ/MvqPtASTYwj5AdirsAbJ3se4CbKpjoISZdi6ACIe4dJezAWB3a3bDApDqmrjVGwAOTJN6YepsgizRbZZIM72ugeay8VKC3ChSIpqdRiDPkH8X+H8OAefPGKd8ONtn0hMmGwYMhu3nVUZXR93YK8dLvIIbo4mdONXFe+vN2r6QfZ7S5GzfyL65EZX9gEATuaVyeXIe/CNqqw5lH+D7pQT3ruzpLObqWlH2mdOJqhXJdYi3IsXx2j+imaF0FakkQ9lXKEU1TvdN+4L+qWn2DGf7Cv4R+3GdoCs+v/1+1ro1zCQw7RuWXsnOquVoU32s7Y0WaHi+RFWq+O8uwvNkk9akfMD3SzOgigXr6JRnQ3VhTy3Z0OuV54F4kPBSKlrWS/nTa03cUBKLOBzhcP9+hagVccPybo7L6Tyvw20e7rM5Zc88fX0+LJ2S29zKsznJVGOesUMykcyd8CLxeAg045mEXbARSZyWRfKrNB5VWvup4t+1B/3M/u8VH5922Gcj3D0Wc+lhc1X21DnZ4iD2tEdZTxI8RntLc/RxYU+bmnS8iz0kA1FwRkyR/UVz+x7wM2FgBXjImLSXAGXJJXBjpzRQULEvgboPuFGZV0Df5yXO3Qugu7TPS4PVS9HtYuBhRjWzCYk4qre1Tnl/AgL2ZgIowbkpeEgSVZyofiHOT9ZAn/t6AhJqpDrmtPACoDzUTFGXYkEqppmuaJOdUEil5c1JAzS2apKq1S9UzC0CqOnepjQgliQ5NtUZSbTSIxWdvER9BHokM2/ZptMEVD2rSB5rfOuzuTkBASfFbegMLwCFRve6REkRpTPdgxES0hHSrMJ2hAlbcgFy0wCduJ50z5A43QvQmgZwDVnL0FRwGtJPD3ABUCLrpg+QzjhB7e8SrVUDnR5JnlitoaF8FaAFDeA+WICbpSUwIM0sAJ4sW2DTfLQPxksC0EDF7kMOWOPsTguAUtzEUo54mWOjVYDK50Gp/cxyv5tLtXyjnTADS2mscQ1+apcLoHLmUxeD+UbJ6vPIXwB0udnMKCxzd2nTfeYjagtKbpgqbckSAMtu1h1S5iNqW4zM93y2sOcxtcGd0/LMt3BWzWx9GUlpo5cK94WiyFTfs40FCWj6RrfcFIlqvF7iPIN3ylABaB+s0C1p1tU7pbQAdLlp1X3hiYVtb6VBpuFwTXOIcAGQ5qtxlo8TUJ1nQI2jBECxbgYdpc2Av3MAWho3fub2tPDdffW6xglA6V4AVePKjbbM6xonAKV7+W9V46rHNSwBSvcLIPC13wqgtwMWQMT+YQmQqlwANy4nLJDnhez9AE2IFkDBi8UlQJlvAVSec1qg4Rs/S4DuQBYAD8mXwE63Dry2ske08ksaNmtImSRxYhPZ1vQTYCf3AUPDJmMBqD226b7xG3C2oAhAA1xbshrfmy8BuiJYABmzxhLYN7YTFZj2AjvXwEJ3CdAwZwE0HLUsAUqVSwAniRbo80LmfgClwwrYudP83tISyJRmVgD1QEtgn0iUzm6fWwVAZbwCSDosAarTC4Bb/CWw74j2gO86LgGsDysAN86M4qXpp6Jo+4dtkEdeMlfHnccUtqXpN9J9ne8pnoDE7YCZ3Xd+vWQJXHe7B7jxkj/06+Hy0fHV8vTxBw==);fillColor=none;strokeColor=#0000FF;strokeWidth=5;" vertex="1" parent="gB4EqIJ7P2_oo9sxyjf8-1">
          <mxGeometry x="271.5284772600446" y="38.3000313895089" width="44.00001525878906" height="650.0000326974052" as="geometry" />
        </mxCell>
        <mxCell id="gB4EqIJ7P2_oo9sxyjf8-18" value="" style="shape=stencil(nVlJchsxDHyNriiS4HrO8g9XWYldSeyU42y/T08UjofgqC3lJo/ZGoAAupvUQd98u7v5ejwE9+356fHT8ef97fPdQd8eQrh/uDs+3T/j00HfHfTNh8en48enx+8Pt6e/v94sK5dPXx5/LN/w64TLXlxZUMH9Pj0pTnL6++T9CfD5/mEElHANIDVp7ipAngBetBFAlNZGQBD1BBCmpFVKPQ+IVaJJOkkhb4hRinlDFccAXvz4huokufMALT2AFaASMgEgpHGXahZPQtIgeaxDrVILAaxl6oCGrDjAxxGg4kmlAcg6ApAVS3rKoWVxke6SjtvaigQGyL1MK6CKZyFVaWoBlVQaraF5BLT+5FzzuWgBNRBAtjPtnRPHYmqSp1c0PnLVWUAi+5qSxGK3qTEWKD2ADSAwJnPiTUilj/k+IEz7mkUZQKfeAFWRpHOUWO1AJFJqAJrpjUB7YwfAZxQA0xsNrcHfEMb+rk0cq8O0S+AZNqOoQzBMhhklzYdKVxNSlkxygGZZNs4SyDyg+fxYuJr6Oy/ULACoKk4DBEBkOUBlvQWwXoLIzTkUUgfQhq00yJXxDFqjWoAy3Q2SJkBlIc0yiplmMjq5k1eaD/Rt2BiATHLYEepGaWYGYOJGRcGHF0N38oLr/845PR8kjl+LGSBheN/dwct6pv7eTaaKDmWd7EiPb3d5scsbHUj01diaCC+xTuu5resDl/1ekXU9RJd8P1zz2GY+U6fjJI7p+tqfnFnvxu/Hk0L2x/Xs1vWB6reTNu4PdqwRfkOzjfu/dA8jn96L6/pK4y+iY77qqO6h/GF8AbwkI2iv1puqdm7ZB6TusVZA7O/cByDDcY80UaHEptqQUp+KfUDqSr0C0HXsDaUT/oUA7HrO14SETTSM/krSCOCfidts6ysEncfRwSGAaoazxxa0BlNWiIxR1rCqyIUyhu5W0nxR7SkE45PItgJgyBe1Z92KkNQQgHKxn5PGjJPCzdsKEtSrCrewIBPKbLvVt/4VFx7uAKC9NJ03MbSMxl5UaQMoRDVR15KvCQlMaZWt0YuCmTUAaCwH15Xpwjq8SNMG0JgYFnFGHTz3IhO3Bn7MgRrXqb09CylatwNAYyFpd64bRWRnChgK4zQxopGFNBk2NAvzADuA0q8/LgVYXvofp7mw4VhefpmAKTPa7OjBfbnUGSXB9346N/ZmfeDxTJITqHfcURw6kTOVRlqm+TIR48DEYDrIFdr783Vo5WfXPJEcN9fzTQs6j+lfhhaZCnN7nddT3sZfs/vW4vpZeAUUejVT1Dpg0Ci7My6wqEaSPb0zrq4boQ0FKdGOGiYTz015RZ+ZkDij1NW0bxilsZDQOZM1YrOMo62pNCwlsxUt9FPlxq0lBlB7FAF/RJJDm+gCppX9/tCy1Q4wjid1aKU38wbAXAIAZlvhmpkkt9ovVzdGnt3aLVfKyQLYtcbmhnhFFHqTuI8YfTOTG3ywv2rh0ekXMX33Bw==);fillColor=none;strokeColor=#0000FF;strokeWidth=5;" vertex="1" parent="gB4EqIJ7P2_oo9sxyjf8-1">
          <mxGeometry x="147.67134148733953" y="482.8714556012835" width="58.714291708809995" height="155.2857426234654" as="geometry" />
        </mxCell>
        <mxCell id="gB4EqIJ7P2_oo9sxyjf8-19" value="" style="shape=stencil(nVrZchs3EPwavqJwD/DsOP/hKsuRKorkkpXr79OICitug9sU/UbL0yQwR0/P7J7Spx/3X77fnaL/8fry/Pvd3w9fX+9P6ZdTjA9P93cvD6/4dEqfT+nTt+eXu99env98+vr27+9fhuX49MfzX+Mb/nnDeef9AEX/79sfWnSp//+XX9/sHx+epH1wPSr72Nm+JGVvxvYxH9sH5zPbB2mfy97eu+6Vfetsb+L88F5l+xqUffOLvR3bJxeW71fnTy4v/szCP8lZ4HwIRdk3Ok9yUeRDcp3ilV0R+QZ7+v4q47t+v00PH52f4tunx47s9/7pOt8Wf/boqvRP3edDx42kfwrZF+erzIfI9jp/0r5eenUm8yHR95tL7Tb7tjs/PryT1xvvbf93xGrR+X3Wdz/z6KAKQ2b7LE4dXe5sH4QXUeVUhX3+5cArPrG9CRaBFzPbZ2lvy/cHcZ48OWCzbzIrt5o+s2/Cn9n1xvZVxKvMHnVmX8T3I8eDtv+ZLEMphP0xvKw92Gd/mz2F6Yq9Od9us4832le7xb7deJ7GZHbVvi3+F1XY+2xNH7YvgeyD4G7YG/tHsQjs+76soGZE1Qa/qC/IE9F8xg/sL7wRy+EF9g7NLqsA9Kltpv1WEUf2VADIEG0fiMcl7SAhqM7DFQeBZvYVFtCAVcgaM08os0MeASIdCVWtkqjNnN8ANm91VJWdkqJRC10AlKahTzcc1v2+vSCxi7qDuUKAoCvNXE4M2Mv+nyJoEOI+/5EPsiJt5uMZQJXkUDdUwn4qxA/6MuiB4kK0vNQCI4E8A5TEHjm9AtSRwNPLka4ArN0EuB64XT58e3h8/GBOhDyV2vtZdBsAYvHPVYSRqu0uifuCRIgY3318BCCPDqIRJRkW7TEyUQEWMQE5ongIgLaMCl7doS2zUZmevgzoLCt7lsPa6L/UP5JkOrAOhRrjmuLSMTlUBqiWNjrwMkAmtSBIPDtg1iiip6Fn12UYMOWlJfnGNKCOVJklIaeVTgCAtzo85RHAeEwFIKo7NHZrq3KPAkBdAF6NfPAJzShlNq0jgNHQlKdevTyUrbuyLOsBgEaRTjP2lwFhzuJnAK+m+eA6DYp6PZjihX2T3L8s9XBlgQcABw71oO6QXdzfwbqOQ2YVCYDaQaYyh8kNAGpTl64uFgbIOFSeFMzmIvMywKaM3QBVx6ExCQAQFaBzf7CiN5dLPQAQRAFl79I+lyzP7dgRoC8ANbDlwELGktRWeVkUARDVIiQucYhSH+a0pEacy50jAPUHC84UIM9yOQOolpXLzP4NsEXmMqCyeqtdtiwASDpU0LNI72y8GakmKy4vdF+r7EC5M5HVMrPr8orJs3QAQBVQCSxEa55rxSNA2+dSTbKxl8i8BEBQa7LEVFmjbChlST4AlHQoeQ6OGyBIoVsKV1zV2QqAEQD9Qe0S69RfZwAvWAMAikPpOnA2Z5cN0CafXwZs3eAMkNQdGitj/KYpQGfdCoAMXJ/ftwG2ieIiAE4krYHIqNVKDTy3IllUxQFQIwOUlEZuEpEhfxUvAUD7M5SUqjjUF8chysaOkqf1EKpc0T0ApPlAPNKtZUrzM4AqoFq5sWed3gDYPnBgW7V1A1fTQx8AovKScRxGA1CRbkwzWac3GhTRDHqSWnHVpR7QJrtQM7bUAwBqJwAAPRRB5zYRB1vUDABJ3MEWNTPEhAgcADSxA6BmoKGOGgPUTgAAUgI5ykhD4ZFuzVFSJQD0hBgqsKtLF34KAIBiPlsLyOvUqCwSh/RVkd6G4W2v36W6B6AtACVOMI/kvZdSk+8xYESitXVqcnMKAF06mdzNYswjZTymIhE4AFpkgNrVj1cjCFCkWB/vvnQGRHWHOKXIBshSrGM+D4kBUR0pTeG8AZIMXMv8EHOM5II1ACDmG0O/Amw8twGCHMABaAtATVmt8vPv5OU4AEBbAOoBflv2/LFL3dqWbehYIKnkQwvcu3WsqNQvNG67ACi6b0uJRpPvfoyXCBID1AA+Fo2ZAYqMu+dJEQD5BNHzhBKrlNLjRY7MADVaAkAFBIBaMgNAr3ABoLK1L419PDZVvxD49YuxgVWP0wILrFjkONC3l/IOASfx/A0f+H1D/OntXcX0+T8=);fillColor=none;strokeColor=#0000FF;strokeWidth=5;" vertex="1" parent="gB4EqIJ7P2_oo9sxyjf8-1">
          <mxGeometry x="73.8141948154994" y="111.30004828316824" width="551.2857273646764" height="240.14283588954382" as="geometry" />
        </mxCell>
      </root>
    </mxGraphModel>
  </diagram>
</mxfile>
